<svg width="49" height="62" viewBox="0 0 49 62" fill="none" xmlns="http://www.w3.org/2000/svg">
<path d="M19.2372 16.3818C17.5772 17.8347 15.2309 18.7064 13.093 17.809C12.1655 17.42 10.9265 16.3031 11.3235 15.1741C11.5498 14.5324 12.4652 14.3538 12.9566 13.9316C13.3776 13.5699 13.5739 13.075 13.908 12.6437L12.4382 13.0054C11.755 12.9675 11.0493 13.134 10.3736 13.1688C10.2268 13.1764 9.8118 13.2082 9.77734 13.0387C9.88072 12.6119 10.1969 12.2351 10.498 11.9309C11.782 10.6384 13.4271 9.68191 14.6676 8.26534C15.7613 7.01677 16.3546 5.44735 17.6896 4.40914C19.1324 3.28619 21.0606 2.50526 22.8165 2.0361C23.9312 1.73795 25.0804 1.52154 26.2385 1.51548C25.9538 2.11934 25.6917 2.75649 25.7621 3.44207C26.9547 3.33159 27.1794 2.29641 27.7967 1.52002C29.5451 -0.677467 33.4136 -0.50645 34.6601 2.12539C35.9681 4.8889 33.9739 7.94752 31.0554 8.18513L29.3429 7.98082C32.4577 10.4174 31.5917 15.3118 28.8664 17.7046C26.3928 19.8763 23.3184 18.9955 20.4164 19.9338C19.1144 20.3546 18.3787 20.9735 17.279 21.6652C15.1875 22.9849 12.4127 22.5717 11.6621 19.9747C11.5827 19.6977 11.2966 18.4567 11.788 18.5566C14.3215 20.5135 18.2829 19.563 19.2402 16.3758L19.2372 16.3818ZM26.7135 6.82003C28.7361 6.51431 31.1857 7.4708 32.6345 5.53059C34.6781 2.79281 30.501 0.560512 29.0582 3.28467C28.5398 4.26234 28.7316 5.19158 27.7862 6.0164C27.4476 6.31152 26.9891 6.46286 26.7135 6.82003ZM24.2474 7.38453C22.3955 7.79316 21.0426 6.1965 19.2103 7.31794C17.7929 8.18513 17.4513 9.918 17.4873 11.4814L19.005 9.51997C19.7781 8.8011 20.4208 9.20518 21.3078 8.95395C21.6045 8.8692 21.8652 8.55592 22.1228 8.41215C22.6442 8.12308 23.3139 7.97325 23.9028 7.63879C24.0046 7.58128 24.2219 7.49652 24.2474 7.38453Z" fill="url(#paint0_linear_293_9818)"/>
<path d="M22.3388 51.1693C21.8534 50.5473 21.4593 49.7043 21.1327 48.9749C19.3438 44.9794 19.5716 41.8542 21.7695 38.0994C26.7616 29.5743 37.4785 27.4752 38.7251 16.182C39.0562 13.1794 38.1243 9.39736 36.674 6.76552C36.635 6.69439 36.4987 6.56272 36.617 6.50067C37.5295 7.43899 38.373 8.38186 39.0277 9.52903C41.9223 14.5945 41.8219 21.3065 38.791 26.2902C34.4101 33.4956 23.6947 37.1051 22.2804 46.1675C22.0212 47.8322 22.1395 49.5076 22.3403 51.1693H22.3388Z" fill="url(#paint1_linear_293_9818)"/>
<path d="M29.708 42.3022L29.4983 42.449C27.3888 44.8175 25.3362 47.5038 24.8837 50.7668C24.7339 50.7244 24.6949 50.517 24.665 50.3854C23.9233 47.0377 25.053 43.3737 26.9992 40.6526C31.6393 34.1691 39.3238 31.8989 41.8828 23.389C42.566 21.1173 42.5345 19.6205 42.6199 17.305C42.6229 17.2081 42.56 17.0053 42.6993 17.025C43.0664 18.1661 43.4214 19.33 43.5668 20.5286C44.199 25.7423 42.7173 30.2554 39.3223 34.1388C36.4876 37.3821 32.691 39.2466 29.7095 42.3022H29.708Z" fill="url(#paint2_linear_293_9818)"/>
<path d="M12.0802 27.227C13.4287 26.8683 13.1005 25.7665 12.3185 24.978C14.0489 24.6254 16.1884 24.7798 17.6058 25.9421C18.0627 26.3174 18.5017 26.9742 18.9721 27.2936C19.5115 27.6583 20.3116 27.7491 20.9079 27.9898C21.1581 28.0912 21.5581 28.2743 21.5446 28.5906L19.5565 28.9931C19.3647 29.1687 20.4569 29.7332 20.5603 29.7862C20.7551 29.8861 21.0187 29.8891 21.1326 30.0919C21.6405 31.0015 20.2022 32.017 19.4321 32.1199C18.6785 32.2198 18.0402 32.0487 17.3316 31.8853C17.4364 32.3938 18.0777 32.807 18.5407 32.9538C19.2583 33.1823 20.3146 32.9553 20.9094 32.4861C21.0262 32.3938 21.0652 32.1471 21.188 32.2077C21.669 32.4407 21.2015 33.5682 20.9438 33.8876C20.1198 34.9076 18.9961 34.5928 17.8575 34.7063C16.9525 34.7971 16.082 35.2966 15.1891 35.4645C13.8766 35.7112 12.5042 35.4191 11.4525 34.5701C10.3333 33.6651 9.8164 31.7975 10.3333 30.44C7.44019 31.6053 4.81677 27.3829 7.31733 25.4245C9.14219 23.9958 11.4914 25.1778 12.0832 27.2255L12.0802 27.227ZM11.0465 29.3155C10.8292 28.5512 10.988 27.8505 10.6389 27.1165C10.2269 26.2493 9.29501 25.9497 8.44551 26.4067C7.47914 26.9258 7.64395 28.3469 8.38408 28.9931C9.20661 29.7105 10.0726 29.4684 11.0465 29.3155ZM17.8859 29.2353C17.5773 28.6557 16.9211 27.6114 16.2379 27.4873C14.816 27.2285 14.0265 28.359 13.8317 29.6379C14.3261 29.2096 15.1951 28.5437 15.8663 28.5179C16.5944 28.4907 17.1698 29.2444 17.8874 29.2353H17.8859Z" fill="url(#paint3_linear_293_9818)"/>
<path d="M24.0103 32.4499C24.0582 32.1986 24.1586 31.9338 24.259 31.6977C27.3783 24.4499 34.9879 20.9978 34.2598 11.8507C34.1893 10.9653 33.9107 10.1117 33.5526 9.31114L34.3422 8.94186L35.3415 7.94452C35.4134 8.00657 35.4823 8.07316 35.5303 8.1564C37.5454 11.6161 37.5978 16.4923 36.0322 20.1306C33.9152 25.0553 29.383 27.5751 25.561 30.9228C25.0156 31.3995 24.5062 31.9232 24.0088 32.4483L24.0103 32.4499Z" fill="url(#paint4_linear_293_9818)"/>
<path d="M17.4077 46.9106C17.2639 46.9424 17.2519 46.8667 17.183 46.7774C16.7695 46.2387 16.4818 45.5864 15.9694 45.1112C13.4059 42.7321 10.2491 41.6151 8.38681 38.3083C7.27661 36.3363 7.01292 33.8604 7.38748 31.6462L8.7344 32.017C8.3958 33.4896 8.92318 34.9848 9.60038 36.2803C10.3615 37.7393 11.4792 39.0575 12.7572 40.0805C13.8419 40.9492 15.2263 41.6212 16.2541 42.4944C16.6286 42.8123 17.4377 43.5765 17.4901 44.0578C17.589 44.9371 17.4482 46.0237 17.4077 46.9121V46.9106Z" fill="url(#paint5_linear_293_9818)"/>
<path d="M15.1021 46.9908C14.9613 47.0014 14.8249 46.9908 14.6856 46.9712C13.7312 46.8274 11.9258 45.5137 11.0209 44.9689C9.56311 44.0896 8.34354 43.6068 7.23035 42.2099C4.79571 39.1543 4.9725 35.2315 6.03625 31.6478C6.17559 31.6296 6.11116 31.8309 6.11566 31.9277C6.16061 33.084 6.03026 34.2993 6.21454 35.4434C6.83631 39.3087 9.24249 41.6727 12.0787 44.0608C12.9821 44.8221 13.926 45.3654 14.7036 46.3098C14.7785 46.4021 15.18 46.9167 15.1021 46.9908Z" fill="url(#paint6_linear_293_9818)"/>
<path d="M25.2015 27.1468C25.0621 27.1619 25.1146 26.8698 25.1235 26.7866C25.3018 25.0794 26.2233 22.8411 27.3095 21.5229C28.6519 19.893 30.6985 18.9138 31.7892 17.0492L32.5204 15.5782C32.1473 16.7783 31.7937 17.9997 31.2124 19.1166C29.9883 21.4669 27.8039 23.2997 26.2397 25.4215C25.8442 25.9572 25.4097 26.496 25.203 27.1453L25.2015 27.1468Z" fill="url(#paint7_linear_293_9818)"/>
<path d="M15.8766 39.1483C16.3036 39.5266 16.7066 39.9307 17.0797 40.3635C17.4483 40.7903 17.8887 41.264 17.9577 41.8512C17.9187 41.8724 17.8887 41.8618 17.8468 41.8467C17.4962 41.7241 16.5658 41.1672 16.1897 40.9492C15.2024 40.3741 14.0547 39.6492 13.1543 38.953C11.5871 37.7423 10.2237 36.0896 9.69336 34.1358L10.4095 35.2179C10.9759 36.0715 11.9932 36.4846 12.8322 36.9825C13.845 37.5834 14.8548 38.2599 15.7567 39.0423C15.7972 39.0771 15.8361 39.1119 15.8751 39.1467L15.8766 39.1483Z" fill="url(#paint8_linear_293_9818)"/>
<path d="M2.5184 54.3263C2.67122 54.3263 2.80007 54.2734 2.90345 54.1689C3.00683 54.0645 3.05927 53.9344 3.05927 53.78C3.05927 53.6256 3.00683 53.4879 2.90345 53.3865C2.80007 53.2851 2.67122 53.2336 2.5184 53.2336C2.36558 53.2336 2.23673 53.2851 2.13336 53.3865C2.02998 53.4879 1.97754 53.6211 1.97754 53.78C1.97754 53.9389 2.02998 54.0645 2.13336 54.1689C2.23673 54.2734 2.36558 54.3263 2.5184 54.3263Z" fill="url(#paint9_linear_293_9818)"/>
<path d="M1.39047 54.3263C1.54329 54.3263 1.67214 54.2734 1.77552 54.1689C1.8789 54.0645 1.93134 53.9344 1.93134 53.78C1.93134 53.6256 1.8789 53.4879 1.77552 53.3865C1.67214 53.2851 1.54329 53.2336 1.39047 53.2336C1.23765 53.2336 1.10881 53.2851 1.00543 53.3865C0.902048 53.4879 0.849609 53.6211 0.849609 53.78C0.849609 53.9389 0.902048 54.0645 1.00543 54.1689C1.10881 54.2734 1.23765 54.3263 1.39047 54.3263Z" fill="url(#paint10_linear_293_9818)"/>
<path d="M2.34025 55.2057L2.32527 55.1921H1.59263L1.57765 55.2057C0.530377 56.091 0 56.9794 0 57.8496C0 58.2008 0.0824032 58.5186 0.245711 58.794C0.40902 59.0695 0.641247 59.2874 0.934902 59.4418C1.22706 59.5946 1.57016 59.6733 1.95371 59.6733C2.33726 59.6733 2.68635 59.5961 2.977 59.4418C3.26766 59.2874 3.49839 59.0695 3.6632 58.7955C3.82651 58.5201 3.90891 58.1993 3.90891 57.8436C3.90891 56.9734 3.38153 56.0865 2.33875 55.2072L2.34025 55.2057ZM2.01214 56.2288C2.34774 56.539 2.59795 56.8326 2.75676 57.1005C2.91558 57.3684 2.99498 57.6181 2.99498 57.8421C2.99498 58.001 2.95453 58.1417 2.87363 58.2598C2.79272 58.3793 2.67436 58.4717 2.52454 58.5367C2.37022 58.6033 2.17844 58.6366 1.9552 58.6366C1.73197 58.6366 1.54469 58.6033 1.38887 58.5367C1.23605 58.4717 1.11619 58.3793 1.03528 58.2628C0.954379 58.1478 0.913927 58.0086 0.913927 57.8496C0.913927 57.6211 0.994832 57.3699 1.15215 57.1035C1.31096 56.8387 1.56416 56.5436 1.90426 56.2288H2.01214Z" fill="url(#paint11_linear_293_9818)"/>
<path d="M11.4178 56.3877C11.2919 56.1804 11.1241 56.0108 10.9189 55.8867C10.7121 55.7611 10.4604 55.6976 10.1712 55.6976C9.90905 55.6976 9.67083 55.7521 9.46257 55.861C9.25582 55.9685 9.06704 56.1107 8.89923 56.2848C8.73293 56.4573 8.57861 56.6525 8.44077 56.8629C8.30293 57.0702 8.17259 57.2852 8.04973 57.5001C7.92987 57.7165 7.80402 57.9147 7.67667 58.0873C7.55232 58.2568 7.40549 58.393 7.24368 58.4898C7.08337 58.5852 6.8796 58.6351 6.63689 58.6351H5.74694V52.9764H4.83301V59.6718H6.69232C7.00995 59.6643 7.28862 59.6037 7.52235 59.4887C7.7336 59.3858 7.93137 59.236 8.11565 59.0407C8.19356 59.1043 8.27447 59.1663 8.35687 59.2238C8.56363 59.3676 8.80335 59.4872 9.07003 59.5795C9.33522 59.6718 9.64835 59.7354 10.0004 59.7702C10.3465 59.805 10.76 59.8095 11.2305 59.7838L11.265 59.8065L11.2799 59.7808H11.3054L11.3039 59.7399C11.4717 59.4403 11.5931 59.1149 11.668 58.7713C11.7429 58.4232 11.7804 58.1085 11.7804 57.833C11.7804 57.5788 11.7519 57.323 11.695 57.0748C11.638 56.8236 11.5466 56.5935 11.4223 56.3877H11.4178ZM9.95849 58.7244C9.61989 58.682 9.32623 58.6018 9.08651 58.4853C8.95167 58.4187 8.82282 58.3385 8.70147 58.2462C8.74641 58.175 8.79136 58.0994 8.83631 58.0222C9.03557 57.6832 9.21087 57.4168 9.3562 57.2292C9.49853 57.046 9.63637 56.9159 9.76522 56.8417C9.89107 56.7691 10.0274 56.7328 10.1712 56.7328C10.3975 56.7328 10.5638 56.816 10.6806 56.9885C10.8005 57.1656 10.8619 57.4486 10.8619 57.8315C10.8619 58.0767 10.8305 58.3234 10.769 58.564C10.7511 58.6306 10.7316 58.6972 10.7106 58.7623C10.4319 58.7653 10.1802 58.7501 9.95999 58.7229L9.95849 58.7244Z" fill="url(#paint12_linear_293_9818)"/>
<path d="M29.7877 58.6351H28.652C28.4363 58.6351 28.2715 58.6184 28.1636 58.5851C28.0662 58.5549 28.0033 58.5019 27.9733 58.4217C27.9389 58.3324 27.9224 58.1992 27.9224 58.0252V52.9764H27.0085V58.0252C27.0085 58.1992 26.9905 58.3324 26.9575 58.4217C26.9261 58.5019 26.8646 58.5549 26.7703 58.5851C26.6654 58.6184 26.4991 58.6351 26.2788 58.6351H25.7065C25.4908 58.6351 25.326 58.6184 25.2181 58.5851C25.1207 58.5549 25.0578 58.5019 25.0278 58.4217C24.9933 58.3324 24.9769 58.1992 24.9769 58.0252V57.7755C24.9724 57.5394 24.9454 57.3033 24.893 57.0732C24.836 56.822 24.7446 56.5905 24.6203 56.3861C24.4944 56.1788 24.3266 56.0108 24.1214 55.8852C23.9146 55.7596 23.6629 55.696 23.3737 55.696C23.1116 55.696 22.8733 55.7505 22.6651 55.8595C22.4583 55.9669 22.2695 56.1092 22.1017 56.2832C21.9354 56.4558 21.7811 56.651 21.6433 56.8614C21.5054 57.0687 21.3751 57.2836 21.2522 57.4985C21.1324 57.7149 21.0065 57.9132 20.8792 58.0857C20.7548 58.2552 20.608 58.3914 20.4462 58.4883C20.2859 58.5836 20.0821 58.6336 19.8394 58.6336H18.9494V57.5106C18.9494 57.1883 18.891 56.8886 18.7741 56.6177C18.6573 56.3468 18.4895 56.1092 18.2752 55.9124C18.061 55.7157 17.8048 55.5613 17.5141 55.4554C17.2235 55.3494 16.8983 55.295 16.5493 55.295C16.2436 55.295 15.9395 55.3373 15.6443 55.4221C15.3492 55.5068 15.066 55.634 14.8038 55.802L14.7634 55.8277L15.1319 56.6555L15.1829 56.6313C15.3597 56.5481 15.5679 56.4754 15.8046 56.4179C16.0399 56.3604 16.2856 56.3317 16.5343 56.3317C16.8474 56.3317 17.1216 56.3831 17.3463 56.483C17.5681 56.5829 17.7419 56.7221 17.8587 56.8962C17.9756 57.0702 18.0355 57.2775 18.0355 57.5106V58.6336H13.6981V52.9749H12.7842V59.6703H19.8963C20.214 59.6627 20.4926 59.6022 20.7264 59.4871C20.9376 59.3842 21.1354 59.2344 21.3197 59.0392C21.3976 59.1027 21.4785 59.1648 21.5609 59.2223C21.7676 59.3661 22.0073 59.4856 22.274 59.5779C22.5392 59.6703 22.8524 59.7338 23.2044 59.7686C23.5505 59.8035 23.9641 59.808 24.4345 59.7823L24.469 59.805L24.4824 59.7792H24.5079L24.5064 59.7384C24.5693 59.6264 24.6263 59.5098 24.6757 59.3888C24.7267 59.4266 24.7791 59.4599 24.8375 59.4887C25.0668 59.6067 25.3619 59.6672 25.7125 59.6672H26.2848C26.6624 59.6672 26.9755 59.6067 27.2152 59.4887C27.3111 59.4417 27.3965 59.3842 27.4729 59.3176C27.5493 59.3842 27.6347 59.4417 27.7306 59.4887C27.9703 59.6067 28.2835 59.6672 28.661 59.6672H30.7121V52.9719H29.7982V58.6305L29.7877 58.6351ZM23.1565 58.7244C22.8179 58.682 22.5242 58.6018 22.2845 58.4853C22.1497 58.4187 22.0208 58.3385 21.8995 58.2461C21.9444 58.175 21.9894 58.0993 22.0343 58.0222C22.2336 57.6831 22.4089 57.4168 22.5542 57.2291C22.6965 57.046 22.8344 56.9158 22.9632 56.8417C23.0891 56.769 23.2254 56.7327 23.3693 56.7327C23.5955 56.7327 23.7618 56.816 23.8787 56.9885C23.9985 57.1656 24.0599 57.4486 24.0599 57.8315C24.0599 58.0766 24.0285 58.3233 23.967 58.564C23.9491 58.6305 23.9296 58.6971 23.9086 58.7622C23.6284 58.7652 23.3782 58.7501 23.158 58.7229L23.1565 58.7244Z" fill="url(#paint13_linear_293_9818)"/>
<path d="M41.2372 60.6343C41.0739 60.6343 40.9346 60.6918 40.8207 60.8023C40.7069 60.9143 40.6484 61.0581 40.6484 61.2276C40.6484 61.3971 40.7054 61.5333 40.8192 61.6483C40.9331 61.7633 41.0739 61.8208 41.2357 61.8208C41.3976 61.8208 41.5459 61.7618 41.6568 61.6468C41.7676 61.5318 41.8231 61.3895 41.8231 61.2261C41.8231 61.0626 41.7661 60.9128 41.6553 60.8008C41.5444 60.6888 41.4021 60.6313 41.2343 60.6313L41.2372 60.6343Z" fill="url(#paint14_linear_293_9818)"/>
<path d="M46.411 53.8284C46.5638 53.8284 46.6927 53.777 46.796 53.6756C46.8994 53.5742 46.9518 53.441 46.9518 53.2821C46.9518 53.1232 46.8994 52.9975 46.796 52.8931C46.6927 52.7887 46.5638 52.7357 46.411 52.7357C46.2582 52.7357 46.1368 52.7887 46.0304 52.8916C45.9241 52.996 45.8701 53.1277 45.8701 53.2821C45.8701 53.4364 45.9241 53.5742 46.0304 53.6756C46.1368 53.777 46.2642 53.8269 46.411 53.8269V53.8284Z" fill="url(#paint15_linear_293_9818)"/>
<path d="M46.4336 54.2688C46.4336 54.4292 46.486 54.5609 46.5894 54.6623C46.6928 54.7637 46.8216 54.8152 46.9745 54.8152C47.1273 54.8152 47.2561 54.7637 47.3595 54.6623C47.4629 54.5609 47.5153 54.4277 47.5153 54.2688C47.5153 54.1099 47.4629 53.9843 47.3595 53.8799C47.2561 53.7754 47.1273 53.7225 46.9745 53.7225C46.8216 53.7225 46.6928 53.7754 46.5894 53.8799C46.486 53.9843 46.4336 54.1144 46.4336 54.2688Z" fill="url(#paint16_linear_293_9818)"/>
<path d="M48.088 55.69V58.0252C48.088 58.2477 48.0251 58.4126 47.9022 58.5156C47.7734 58.623 47.6341 58.6745 47.4767 58.6745C47.3494 58.6745 47.2265 58.6397 47.1127 58.57C47.0033 58.505 46.9284 58.4142 46.8834 58.2946C46.8924 58.2083 46.8969 58.119 46.8969 58.0252V56.082H45.983V58.0252C45.983 58.2477 45.9201 58.4126 45.7972 58.5156C45.6684 58.623 45.529 58.6745 45.3717 58.6745C45.2444 58.6745 45.1215 58.6397 45.0076 58.57C44.8998 58.505 44.8249 58.4157 44.7814 58.2991C44.7889 58.2114 44.7934 58.1206 44.7934 58.0252V56.4846H43.8795V58.0252C43.8795 58.1993 43.8615 58.3324 43.827 58.4217C43.7956 58.5019 43.7356 58.5549 43.6397 58.5852C43.5349 58.6185 43.3686 58.6351 43.1483 58.6351H42.4247C42.2089 58.6351 42.0441 58.6185 41.9362 58.5852C41.8389 58.5549 41.7759 58.5019 41.746 58.4217C41.7115 58.3324 41.695 58.1993 41.695 58.0252V55.69H40.7811V58.0252C40.7811 58.1993 40.7631 58.3324 40.7302 58.4217C40.6987 58.5019 40.6373 58.5549 40.5429 58.5852C40.438 58.6185 40.2717 58.6351 40.0515 58.6351H39.3203C39.1046 58.6351 38.9398 58.6185 38.8319 58.5852C38.7345 58.5549 38.6731 58.5019 38.6416 58.4217C38.6072 58.3324 38.5907 58.1993 38.5907 58.0252V52.9764H37.6767V58.4505C37.6767 58.8364 37.6108 59.1709 37.479 59.4448C37.3501 59.7172 37.1629 59.9276 36.9246 60.0714C36.6849 60.2151 36.3958 60.2878 36.0631 60.2878C35.7305 60.2878 35.4474 60.2151 35.2061 60.0714C34.9649 59.9276 34.7777 59.7172 34.6488 59.4448C34.5185 59.1709 34.451 58.8349 34.451 58.4505C34.451 58.2507 34.466 58.0464 34.4945 57.8451C34.523 57.6423 34.5634 57.4259 34.6173 57.2049L34.6308 57.1474L33.7603 56.9825L33.7469 57.0324C33.6824 57.2549 33.6315 57.4895 33.594 57.7301C33.5566 57.9738 33.5371 58.2159 33.5371 58.4535C33.5371 58.8531 33.594 59.2314 33.7064 59.575C33.8188 59.92 33.9851 60.2272 34.2008 60.4891C34.4166 60.7509 34.6833 60.9582 34.9949 61.1065C35.3065 61.2533 35.6646 61.329 36.0631 61.329C36.4617 61.329 36.8213 61.2549 37.1314 61.1065C37.4415 60.9597 37.7097 60.7509 37.9255 60.4891C38.1412 60.2272 38.3075 59.92 38.4199 59.575C38.4259 59.5568 38.4319 59.5371 38.4379 59.5175C38.6701 59.6204 38.9667 59.6733 39.3203 59.6733H40.0515C40.429 59.6733 40.7422 59.6128 40.9819 59.4947C41.0778 59.4478 41.1632 59.3903 41.2396 59.3237C41.316 59.3903 41.4014 59.4478 41.4973 59.4947C41.737 59.6128 42.0501 59.6733 42.4277 59.6733H43.1513C43.5289 59.6733 43.842 59.6128 44.0817 59.4947C44.2241 59.4236 44.3469 59.3313 44.4458 59.2163C44.4563 59.2284 44.4668 59.239 44.4773 59.2511C44.6196 59.3979 44.7799 59.5069 44.9537 59.5734C45.3507 59.7263 45.7867 59.7051 46.1643 59.4932C46.3006 59.4176 46.422 59.3162 46.5269 59.1906C46.5448 59.2117 46.5628 59.2314 46.5823 59.2511C46.7246 59.3979 46.8849 59.5069 47.0587 59.5734C47.231 59.64 47.4093 59.6733 47.5906 59.6733C47.8273 59.6733 48.0551 59.6128 48.2693 59.4932C48.4836 59.3737 48.6619 59.189 48.7997 58.9454C48.936 58.7032 49.0064 58.393 49.0064 58.0267V55.6915H48.0925L48.088 55.69Z" fill="url(#paint17_linear_293_9818)"/>
<path d="M45.8465 54.8152C45.9993 54.8152 46.1282 54.7637 46.2316 54.6623C46.335 54.5609 46.3874 54.4277 46.3874 54.2688C46.3874 54.1099 46.335 53.9843 46.2316 53.8799C46.1282 53.7754 45.9993 53.7225 45.8465 53.7225C45.6937 53.7225 45.5649 53.7754 45.4615 53.8799C45.3581 53.9843 45.3057 54.1144 45.3057 54.2688C45.3057 54.4232 45.3581 54.5609 45.4615 54.6623C45.5649 54.7637 45.6937 54.8152 45.8465 54.8152Z" fill="url(#paint18_linear_293_9818)"/>
<defs>
<linearGradient id="paint0_linear_293_9818" x1="22.4234" y1="0" x2="22.4234" y2="22.3958" gradientUnits="userSpaceOnUse">
<stop stop-color="#CC966A"/>
<stop offset="1" stop-color="#C19877"/>
</linearGradient>
<linearGradient id="paint1_linear_293_9818" x1="30.5359" y1="6.50067" x2="30.5359" y2="51.1693" gradientUnits="userSpaceOnUse">
<stop stop-color="#CC966A"/>
<stop offset="1" stop-color="#C19877"/>
</linearGradient>
<linearGradient id="paint2_linear_293_9818" x1="34.0724" y1="17.0237" x2="34.0724" y2="50.7668" gradientUnits="userSpaceOnUse">
<stop stop-color="#CC966A"/>
<stop offset="1" stop-color="#C19877"/>
</linearGradient>
<linearGradient id="paint3_linear_293_9818" x1="13.9302" y1="24.7963" x2="13.9302" y2="35.549" gradientUnits="userSpaceOnUse">
<stop stop-color="#CC966A"/>
<stop offset="1" stop-color="#C19877"/>
</linearGradient>
<linearGradient id="paint4_linear_293_9818" x1="30.5704" y1="7.94452" x2="30.5704" y2="32.4499" gradientUnits="userSpaceOnUse">
<stop stop-color="#CC966A"/>
<stop offset="1" stop-color="#C19877"/>
</linearGradient>
<linearGradient id="paint5_linear_293_9818" x1="12.3761" y1="31.6462" x2="12.3761" y2="46.918" gradientUnits="userSpaceOnUse">
<stop stop-color="#CC966A"/>
<stop offset="1" stop-color="#C19877"/>
</linearGradient>
<linearGradient id="paint6_linear_293_9818" x1="10.2025" y1="31.6466" x2="10.2025" y2="46.995" gradientUnits="userSpaceOnUse">
<stop stop-color="#CC966A"/>
<stop offset="1" stop-color="#C19877"/>
</linearGradient>
<linearGradient id="paint7_linear_293_9818" x1="28.8134" y1="15.5782" x2="28.8134" y2="27.1474" gradientUnits="userSpaceOnUse">
<stop stop-color="#CC966A"/>
<stop offset="1" stop-color="#C19877"/>
</linearGradient>
<linearGradient id="paint8_linear_293_9818" x1="13.8255" y1="34.1358" x2="13.8255" y2="41.8631" gradientUnits="userSpaceOnUse">
<stop stop-color="#CC966A"/>
<stop offset="1" stop-color="#C19877"/>
</linearGradient>
<linearGradient id="paint9_linear_293_9818" x1="2.5184" y1="53.2336" x2="2.5184" y2="54.3263" gradientUnits="userSpaceOnUse">
<stop stop-color="#CC966A"/>
<stop offset="1" stop-color="#C19877"/>
</linearGradient>
<linearGradient id="paint10_linear_293_9818" x1="1.39047" y1="53.2336" x2="1.39047" y2="54.3263" gradientUnits="userSpaceOnUse">
<stop stop-color="#CC966A"/>
<stop offset="1" stop-color="#C19877"/>
</linearGradient>
<linearGradient id="paint11_linear_293_9818" x1="1.95446" y1="55.1921" x2="1.95446" y2="59.6733" gradientUnits="userSpaceOnUse">
<stop stop-color="#CC966A"/>
<stop offset="1" stop-color="#C19877"/>
</linearGradient>
<linearGradient id="paint12_linear_293_9818" x1="8.30668" y1="52.9764" x2="8.30668" y2="59.8065" gradientUnits="userSpaceOnUse">
<stop stop-color="#CC966A"/>
<stop offset="1" stop-color="#C19877"/>
</linearGradient>
<linearGradient id="paint13_linear_293_9818" x1="21.7482" y1="52.9719" x2="21.7482" y2="59.805" gradientUnits="userSpaceOnUse">
<stop stop-color="#CC966A"/>
<stop offset="1" stop-color="#C19877"/>
</linearGradient>
<linearGradient id="paint14_linear_293_9818" x1="41.2357" y1="60.6313" x2="41.2357" y2="61.8208" gradientUnits="userSpaceOnUse">
<stop stop-color="#CC966A"/>
<stop offset="1" stop-color="#C19877"/>
</linearGradient>
<linearGradient id="paint15_linear_293_9818" x1="46.411" y1="52.7357" x2="46.411" y2="53.8284" gradientUnits="userSpaceOnUse">
<stop stop-color="#CC966A"/>
<stop offset="1" stop-color="#C19877"/>
</linearGradient>
<linearGradient id="paint16_linear_293_9818" x1="46.9745" y1="53.7225" x2="46.9745" y2="54.8152" gradientUnits="userSpaceOnUse">
<stop stop-color="#CC966A"/>
<stop offset="1" stop-color="#C19877"/>
</linearGradient>
<linearGradient id="paint17_linear_293_9818" x1="41.2718" y1="52.9764" x2="41.2718" y2="61.329" gradientUnits="userSpaceOnUse">
<stop stop-color="#CC966A"/>
<stop offset="1" stop-color="#C19877"/>
</linearGradient>
<linearGradient id="paint18_linear_293_9818" x1="45.8465" y1="53.7225" x2="45.8465" y2="54.8152" gradientUnits="userSpaceOnUse">
<stop stop-color="#CC966A"/>
<stop offset="1" stop-color="#C19877"/>
</linearGradient>
</defs>
</svg>
