<svg width="16" height="17" viewBox="0 0 16 17" fill="none" xmlns="http://www.w3.org/2000/svg">
<path opacity="0.4" d="M7.99992 15.5795C11.6818 15.5795 14.6666 12.5948 14.6666 8.91288C14.6666 5.23098 11.6818 2.24622 7.99992 2.24622C4.31802 2.24622 1.33325 5.23098 1.33325 8.91288C1.33325 12.5948 4.31802 15.5795 7.99992 15.5795Z" fill="white"/>
<path d="M10.3332 8.41288H6.87321L8.01988 7.26622C8.21321 7.07288 8.21321 6.75288 8.01988 6.55955C7.82655 6.36622 7.50655 6.36622 7.31321 6.55955L5.31321 8.55955C5.11988 8.75288 5.11988 9.07288 5.31321 9.26622L7.31321 11.2662C7.41321 11.3662 7.53988 11.4129 7.66655 11.4129C7.79321 11.4129 7.91988 11.3662 8.01988 11.2662C8.21321 11.0729 8.21321 10.7529 8.01988 10.5596L6.87321 9.41288H10.3332C10.6065 9.41288 10.8332 9.18622 10.8332 8.91288C10.8332 8.63955 10.6065 8.41288 10.3332 8.41288Z" fill="white"/>
</svg>
