<svg width="10" height="8" viewBox="0 0 10 8" fill="none" xmlns="http://www.w3.org/2000/svg">
<path d="M8.49994 3.24994H3.30994L5.02994 1.52994C5.31994 1.23994 5.31994 0.759941 5.02994 0.469941C4.73994 0.179941 4.25994 0.179941 3.96994 0.469941L0.969941 3.46994C0.679941 3.75994 0.679941 4.23994 0.969941 4.52994L3.96994 7.52994C4.11994 7.67994 4.30994 7.74994 4.49994 7.74994C4.68994 7.74994 4.87994 7.67994 5.02994 7.52994C5.31994 7.23994 5.31994 6.75994 5.02994 6.46994L3.30994 4.74994H8.49994C8.90994 4.74994 9.24994 4.40994 9.24994 3.99994C9.24994 3.58994 8.90994 3.24994 8.49994 3.24994Z" fill="white"/>
</svg>
