<svg width="30" height="30" viewBox="0 0 30 30" fill="none" xmlns="http://www.w3.org/2000/svg">
<path d="M6.67001 22.2088L10.5805 14.8171L15.7951 17.5755L11.894 24.9493C11.7933 25.1402 11.5205 25.1412 11.418 24.9515L10.1201 22.5439C10.0699 22.4507 9.96979 22.3955 9.86384 22.4028L6.92723 22.6043C6.71603 22.6187 6.57113 22.396 6.67001 22.2088Z" fill="#FC4E51"/>
<path d="M13.8163 16.5289L12.6491 15.9115L9.26795 22.4436L9.86381 22.4028C9.96953 22.3952 10.0696 22.4504 10.1199 22.5437L10.4193 23.0989L13.8163 16.5289Z" fill="#EA3942"/>
<path d="M23.1296 22.2088L19.219 14.8171L14.0049 17.5755L17.9055 24.9493C18.0065 25.14 18.2791 25.1412 18.3815 24.9515L19.6799 22.5439C19.7302 22.4507 19.8302 22.3955 19.9357 22.4028L22.8726 22.6046C23.0835 22.6187 23.2284 22.396 23.1296 22.2088Z" fill="#FC4E51"/>
<path d="M20.5519 22.445L17.166 15.9035L15.9981 16.521L19.3923 23.0774L19.68 22.5439C19.7302 22.4506 19.8303 22.3954 19.936 22.4025L20.5519 22.445Z" fill="#EA3942"/>
<path d="M16.2695 4.41458C16.6999 4.80066 17.2736 4.98685 17.8489 4.92785C18.8901 4.82071 19.8449 5.51451 20.0649 6.53775C20.1864 7.1034 20.5408 7.59095 21.0409 7.88145C21.9461 8.40675 22.3112 9.52933 21.8874 10.4865C21.6533 11.0151 21.6533 11.6183 21.8874 12.1469C22.311 13.1043 21.9461 14.2266 21.0411 14.7522C20.5408 15.0424 20.1864 15.5304 20.0649 16.0956C19.8449 17.1189 18.8901 17.8127 17.8489 17.7055C17.2736 17.6465 16.6999 17.8327 16.2695 18.2188C15.49 18.9175 14.3099 18.9173 13.5304 18.219C13.0997 17.8327 12.5261 17.6465 11.951 17.7058C10.9096 17.8127 9.95476 17.1189 9.73482 16.0956C9.61353 15.5302 9.25884 15.0424 8.75879 14.7519C7.85355 14.2266 7.48871 13.1043 7.91254 12.1471C8.14641 11.6183 8.14641 11.0151 7.91254 10.4863C7.48895 9.52933 7.85355 8.40675 8.75879 7.88145C9.25908 7.59118 9.61353 7.10317 9.73482 6.53774C9.95476 5.51451 10.9098 4.82095 11.9507 4.92785C12.5263 4.98708 13.0997 4.80066 13.5304 4.41482C14.3099 3.71607 15.49 3.71583 16.2695 4.41458Z" fill="#FCB038"/>
<path d="M20.0647 16.0956C20.1863 15.5304 20.5407 15.0424 21.041 14.7522C21.946 14.2266 22.3108 13.1043 21.8872 12.1469C21.6531 11.6183 21.6531 11.0151 21.8872 10.4865C22.3108 9.5291 21.946 8.40675 21.0408 7.88145C20.5407 7.59095 20.1863 7.1034 20.0647 6.53775C19.8448 5.51451 18.89 4.82072 17.8488 4.92785C17.2735 4.98685 16.6998 4.80066 16.2694 4.41459C15.4899 3.71583 14.3098 3.71607 13.5303 4.41482C13.4751 4.46391 13.4177 4.50992 13.3583 4.55287C15.715 5.8869 17.307 8.41525 17.307 11.3169C17.3068 14.2184 15.7153 16.7467 13.358 18.0807C13.4177 18.1235 13.4751 18.1695 13.5303 18.219C14.3095 18.9175 15.4899 18.9175 16.2694 18.2188C16.6998 17.8327 17.2735 17.6465 17.8488 17.7055C18.89 17.8127 19.8448 17.1189 20.0647 16.0956Z" fill="#FD8F31"/>
<path d="M19.2696 11.3165C19.2696 8.90334 17.313 6.94679 14.8998 6.94679C12.4862 6.94679 10.5299 8.90311 10.5299 11.3168C10.5299 13.73 12.4864 15.6865 14.8996 15.6865C17.3133 15.6865 19.2696 13.7302 19.2696 11.3165Z" fill="#FFE285"/>
</svg>
