<svg width="64" height="65" viewBox="0 0 64 65" fill="none" xmlns="http://www.w3.org/2000/svg">
<rect y="0.913086" width="64" height="64" rx="32" fill="white"/>
<path d="M31.9996 23.3951H29.5144C29.273 23.3951 29.0415 23.4919 28.8627 23.6677C28.3752 24.1466 27.4776 24.7174 25.9695 24.7174C24.1874 24.7174 22.8083 23.7836 22.086 22.0881C21.9431 21.7526 21.6132 21.5359 21.2456 21.5359H19.041C18.5965 21.5359 18.2362 21.1756 18.2362 20.7311C18.2362 20.2866 18.5966 19.9263 19.041 19.9263H21.2456C22.2595 19.9263 23.1707 20.5273 23.5669 21.4573C24.0334 22.5526 24.8417 23.1078 25.9695 23.1078C26.9334 23.1078 27.4614 22.7879 27.7346 22.5195C28.2163 22.0463 28.8484 21.7856 29.5144 21.7856H31.9996V23.3951Z" fill="#5B5555"/>
<path d="M20.2671 24.0482C20.0004 24.0482 19.7842 23.832 19.7842 23.5653V19.4785C19.7842 19.2118 20.0004 18.9956 20.2671 18.9956C20.5337 18.9956 20.7499 19.2118 20.7499 19.4785V23.5653C20.75 23.832 20.5337 24.0482 20.2671 24.0482Z" fill="#FFD597"/>
<path d="M32 23.3946H34.4852C34.7266 23.3946 34.9581 23.4915 35.1369 23.6672C35.6244 24.1461 36.522 24.717 38.0301 24.717C39.8122 24.717 41.1913 23.7831 41.9136 22.0876C42.0565 21.7522 42.3864 21.5354 42.754 21.5354H44.9586C45.4031 21.5354 45.7634 21.1751 45.7634 20.7306C45.7634 20.2861 45.403 19.9258 44.9586 19.9258H42.754C41.7401 19.9258 40.8289 20.5268 40.4327 21.4568C39.9662 22.5521 39.1579 23.1073 38.0301 23.1073C37.0662 23.1073 36.5382 22.7874 36.265 22.519C35.7833 22.0458 35.1512 21.7851 34.4852 21.7851H32V23.3946Z" fill="#5B5555"/>
<path d="M43.7324 24.0482C43.4656 24.0482 43.2495 23.832 43.2495 23.5653L43.2496 19.4785C43.2496 19.2118 43.4658 18.9956 43.7324 18.9956C43.9992 18.9956 44.2153 19.2118 44.2153 19.4785L44.2153 23.5653C44.2153 23.8319 43.9991 24.0482 43.7324 24.0482Z" fill="#FFD597"/>
<path d="M33.5981 47.9515H30.4015L31.1823 19.9028H32.8173L33.5981 47.9515Z" fill="#FCB44D"/>
<path d="M32.88 22.1428C32.6057 22.2446 32.3089 22.2999 31.9998 22.2999C31.6908 22.2999 31.3939 22.2446 31.1196 22.1428L31.1821 19.9028H32.8175L32.88 22.1428Z" fill="#FB9927"/>
<path d="M30.6682 38.3643L30.5955 40.9777H33.4037L33.331 38.3643H30.6682Z" fill="#FB9927"/>
<path d="M23.5524 39.0109C23.3377 39.0109 23.1417 38.8667 23.0854 38.6491L20.2673 27.7826L17.4492 38.6492C17.3823 38.9073 17.1187 39.0622 16.8606 38.9954C16.6024 38.9284 16.4474 38.6649 16.5144 38.4067L19.7999 25.7377C19.8551 25.5247 20.0473 25.376 20.2673 25.376C20.4873 25.376 20.6795 25.5247 20.7347 25.7377L24.0202 38.4067C24.0872 38.6649 23.9322 38.9284 23.674 38.9954C23.6334 39.0059 23.5925 39.0109 23.5524 39.0109Z" fill="#FFD597"/>
<path d="M21.82 42.0031H18.7148C17.2154 42.0031 16 40.7876 16 39.2883V38.9757C16 38.5504 16.3448 38.2056 16.7701 38.2056H23.7646C24.1899 38.2056 24.5347 38.5504 24.5347 38.9757V39.2883C24.5347 40.7876 23.3193 42.0031 21.82 42.0031Z" fill="#FCB44D"/>
<path d="M24.5318 39.4204C24.5156 39.763 24.4358 40.0887 24.3045 40.3862H16.2305C16.0991 40.0888 16.0193 39.763 16.0032 39.4204H24.5318Z" fill="#FB9927"/>
<path d="M24.535 38.9757V39.2876C24.535 40.787 23.3198 42.003 21.8203 42.003H19.6501C21.1496 42.003 22.3648 40.787 22.3648 39.2876V38.9757C22.3648 38.5498 22.0198 38.2056 21.5947 38.2056H23.7649C24.19 38.2056 24.535 38.5498 24.535 38.9757Z" fill="#FB9927"/>
<path d="M20.2675 25.8588C20.9363 25.8588 21.4784 25.3166 21.4784 24.6479C21.4784 23.9791 20.9363 23.437 20.2675 23.437C19.5988 23.437 19.0566 23.9791 19.0566 24.6479C19.0566 25.3166 19.5988 25.8588 20.2675 25.8588Z" fill="#FCB44D"/>
<path d="M21.478 24.6481C21.478 25.3169 20.9359 25.8591 20.267 25.8591C20.0025 25.8591 19.7582 25.7741 19.559 25.6304C19.977 25.4397 20.267 25.0178 20.267 24.5285C20.267 24.1242 20.0691 23.7663 19.7647 23.5468C19.9176 23.4762 20.088 23.437 20.267 23.437C20.9359 23.4371 21.478 23.9792 21.478 24.6481Z" fill="#FB9927"/>
<path d="M47.0175 39.0109C46.8028 39.0109 46.6068 38.8667 46.5504 38.6491L43.7323 27.7825L40.9143 38.6492C40.8473 38.9073 40.5841 39.0623 40.3257 38.9954C40.0675 38.9284 39.9125 38.6649 39.9795 38.4067L43.2649 25.7377C43.3201 25.5247 43.5123 25.376 43.7323 25.376C43.9523 25.376 44.1446 25.5247 44.1998 25.7377L47.4853 38.4067C47.5522 38.6649 47.3973 38.9284 47.1391 38.9954C47.0984 39.0059 47.0576 39.0109 47.0175 39.0109Z" fill="#FFD597"/>
<path d="M45.2852 42.0031H42.18C40.6807 42.0031 39.4652 40.7877 39.4652 39.2883V38.9757C39.4652 38.5504 39.81 38.2056 40.2353 38.2056H47.2298C47.6551 38.2056 47.9999 38.5504 47.9999 38.9757V39.2883C47.9999 40.7876 46.7845 42.0031 45.2852 42.0031Z" fill="#FCB44D"/>
<path d="M47.9966 39.4204C47.9805 39.763 47.9007 40.0887 47.7693 40.3862H39.6953C39.564 40.0888 39.4841 39.763 39.468 39.4204H47.9966Z" fill="#FB9927"/>
<path d="M48.0001 38.9757V39.2876C48.0001 40.787 46.7848 42.003 45.2854 42.003H43.1152C44.6147 42.003 45.8299 40.787 45.8299 39.2876V38.9757C45.8299 38.5498 45.4849 38.2056 45.0598 38.2056H47.23C47.6551 38.2056 48.0001 38.5498 48.0001 38.9757Z" fill="#FB9927"/>
<path d="M24.5319 39.4204C24.5158 39.763 24.436 40.0887 24.3046 40.3862H22.1335C22.2655 40.0888 22.3454 39.763 22.3615 39.4204H24.5319Z" fill="#F98824"/>
<path d="M47.9968 39.4204C47.9807 39.763 47.9009 40.0887 47.7695 40.3862H45.5984C45.7304 40.0888 45.8102 39.763 45.8263 39.4204H47.9968Z" fill="#F98824"/>
<path d="M43.7322 25.8588C44.401 25.8588 44.9431 25.3166 44.9431 24.6479C44.9431 23.9791 44.401 23.437 43.7322 23.437C43.0635 23.437 42.5214 23.9791 42.5214 24.6479C42.5214 25.3166 43.0635 25.8588 43.7322 25.8588Z" fill="#FCB44D"/>
<path d="M44.9435 24.6481C44.9435 25.3169 44.4013 25.8591 43.7325 25.8591C43.4679 25.8591 43.2237 25.7741 43.0244 25.6304C43.4425 25.4397 43.7325 25.0178 43.7325 24.5285C43.7325 24.1242 43.5345 23.7663 43.2302 23.5468C43.383 23.4762 43.5535 23.437 43.7325 23.437C44.4013 23.4371 44.9435 23.9792 44.9435 24.6481Z" fill="#FB9927"/>
<path d="M31.9998 38.2812C33.1625 38.2812 34.105 37.3386 34.105 36.176C34.105 35.0133 33.1625 34.0708 31.9998 34.0708C30.8372 34.0708 29.8947 35.0133 29.8947 36.176C29.8947 37.3386 30.8372 38.2812 31.9998 38.2812Z" fill="#FB9927"/>
<path d="M34.1057 36.1756C34.1057 37.3384 33.163 38.281 32.0002 38.281C31.7175 38.281 31.4478 38.225 31.2012 38.1239C31.9674 37.809 32.5069 37.0551 32.5069 36.1756C32.5069 35.2961 31.9674 34.5428 31.2012 34.2279C31.4478 34.1269 31.7175 34.0708 32.0002 34.0708C33.163 34.0708 34.1057 35.0134 34.1057 36.1756Z" fill="#F98824"/>
<path d="M31.9999 21.0442C32.8645 21.0442 33.5654 20.3433 33.5654 19.4786C33.5654 18.614 32.8645 17.9131 31.9999 17.9131C31.1352 17.9131 30.4343 18.614 30.4343 19.4786C30.4343 20.3433 31.1352 21.0442 31.9999 21.0442Z" fill="#FFD597"/>
<path d="M33.5655 19.4789C33.5655 20.3434 32.8641 21.044 31.9996 21.044C31.7538 21.044 31.5216 20.9877 31.3143 20.8865C31.835 20.6318 32.1941 20.0976 32.1941 19.479C32.1941 18.8603 31.835 18.3253 31.3143 18.0706C31.5216 17.9693 31.7538 17.9131 31.9996 17.9131C32.8641 17.913 33.5655 18.6136 33.5655 19.4789Z" fill="#FCC16D"/>
<path d="M38.4065 46.622H25.5933V44.9419C25.5933 44.4085 26.0256 43.9761 26.5591 43.9761H37.4407C37.974 43.9761 38.4065 44.4084 38.4065 44.9419V46.622Z" fill="#756F6F"/>
<path d="M38.4062 44.9419V46.6217H36.8081V44.9419C36.8081 44.4081 36.3754 43.9761 35.8423 43.9761H37.4403C37.9742 43.9761 38.4062 44.4081 38.4062 44.9419Z" fill="#5B5555"/>
<path d="M40.514 48.4107H23.4855C23.1299 48.4107 22.8417 48.1225 22.8417 47.7668V46.723C22.8417 46.3674 23.1299 46.0791 23.4855 46.0791H40.5139C40.8696 46.0791 41.1578 46.3674 41.1578 46.723V47.7668C41.1578 48.1225 40.8696 48.4107 40.514 48.4107Z" fill="#FFD597"/>
<path d="M41.1584 46.723V47.7667C41.1584 48.1221 40.87 48.4105 40.5146 48.4105H38.9159C39.272 48.4105 39.5598 48.1221 39.5598 47.7667V46.723C39.5598 46.3669 39.272 46.0791 38.9159 46.0791H40.5146C40.87 46.0791 41.1584 46.3669 41.1584 46.723Z" fill="#FCC16D"/>
<path d="M34.2263 39.5592H29.7738C29.4181 39.5592 29.1299 39.2709 29.1299 38.9153V38.0897C29.1299 37.7341 29.4181 37.4458 29.7738 37.4458H34.2263C34.5819 37.4458 34.8702 37.7341 34.8702 38.0897V38.9153C34.8701 39.2709 34.5819 39.5592 34.2263 39.5592Z" fill="#FFD597"/>
<path d="M34.8702 38.0897V38.9151C34.8702 39.2705 34.5818 39.559 34.2264 39.559H32.6277C32.9837 39.559 33.2716 39.2705 33.2716 38.9151V38.0897C33.2716 37.7342 32.9837 37.4458 32.6277 37.4458H34.2264C34.5818 37.4458 34.8702 37.7342 34.8702 38.0897Z" fill="#FCC16D"/>
</svg>
