<svg width="32" height="31" viewBox="0 0 32 31" fill="none" xmlns="http://www.w3.org/2000/svg">
<path d="M15.9997 5.48205H13.5145C13.2731 5.48205 13.0417 5.57886 12.8628 5.75461C12.3753 6.23348 11.4777 6.80436 9.96962 6.80436C8.18756 6.80436 6.80838 5.87055 6.08613 4.17505C5.94319 3.83955 5.61332 3.6228 5.24569 3.6228H3.04114C2.59664 3.6228 2.23633 3.26249 2.23633 2.81799C2.23633 2.37349 2.5967 2.01318 3.04114 2.01318H5.24569C6.25963 2.01318 7.17081 2.61418 7.567 3.54424C8.03356 4.63949 8.84187 5.19474 9.96962 5.19474C10.9336 5.19474 11.4615 4.8748 11.7347 4.60643C12.2164 4.13318 12.8485 3.87249 13.5145 3.87249H15.9997V5.48205Z" fill="#5B5555"/>
<path d="M4.26803 6.13513C4.00134 6.13513 3.78516 5.91894 3.78516 5.65225V1.56539C3.78516 1.29871 4.00134 1.08252 4.26803 1.08252C4.53472 1.08252 4.7509 1.29871 4.7509 1.56539V5.65219C4.75097 5.91888 4.53472 6.13513 4.26803 6.13513Z" fill="#FFD597"/>
<path d="M16 5.48156H18.4852C18.7266 5.48156 18.9581 5.57837 19.1369 5.75412C19.6244 6.233 20.522 6.80387 22.0301 6.80387C23.8122 6.80387 25.1913 5.87006 25.9136 4.17456C26.0565 3.83906 26.3864 3.62232 26.754 3.62232H28.9586C29.4031 3.62232 29.7634 3.262 29.7634 2.81751C29.7634 2.37301 29.403 2.0127 28.9586 2.0127H26.754C25.7401 2.0127 24.8289 2.61369 24.4327 3.54375C23.9662 4.639 23.1579 5.19425 22.0301 5.19425C21.0662 5.19425 20.5382 4.87431 20.265 4.60594C19.7833 4.13269 19.1512 3.872 18.4852 3.872H16V5.48156Z" fill="#5B5555"/>
<path d="M27.7329 6.13507C27.4661 6.13507 27.25 5.91888 27.25 5.65219L27.2501 1.56539C27.2501 1.29871 27.4663 1.08252 27.7329 1.08252C27.9997 1.08252 28.2158 1.29871 28.2158 1.56539L28.2157 5.65219C28.2158 5.91882 27.9996 6.13507 27.7329 6.13507Z" fill="#FFD597"/>
<path d="M17.599 30.0387H14.4023L15.1832 1.98999H16.8181L17.599 30.0387Z" fill="#FCB44D"/>
<path d="M16.8795 4.23047C16.6052 4.33222 16.3084 4.3876 15.9993 4.3876C15.6903 4.3876 15.3935 4.33222 15.1191 4.23047L15.1816 1.99048H16.817L16.8795 4.23047Z" fill="#FB9927"/>
<path d="M14.6685 20.4517L14.5957 23.0652H17.4039L17.3312 20.4517H14.6685Z" fill="#FB9927"/>
<path d="M7.55168 21.0976C7.33693 21.0976 7.141 20.9534 7.08462 20.7358L4.26657 9.86926L1.44852 20.7359C1.38158 20.994 1.11795 21.1489 0.85983 21.082C0.601706 21.0151 0.446644 20.7515 0.513644 20.4934L3.79913 7.82433C3.85438 7.6114 4.04657 7.46265 4.26657 7.46265C4.48657 7.46265 4.67876 7.61133 4.734 7.82433L8.01949 20.4934C8.08643 20.7515 7.93143 21.0151 7.67331 21.082C7.63262 21.0925 7.59181 21.0976 7.55168 21.0976Z" fill="#FFD597"/>
<path d="M5.81998 24.09H2.7148C1.21543 24.09 0 22.8745 0 21.3752V21.0626C0 20.6373 0.344811 20.2925 0.770122 20.2925H7.7646C8.18991 20.2925 8.53472 20.6373 8.53472 21.0626V21.3752C8.53472 22.8745 7.31929 24.09 5.81998 24.09Z" fill="#FCB44D"/>
<path d="M8.53251 21.5071C8.51638 21.8496 8.43657 22.1754 8.30519 22.4729H0.231218C0.0998434 22.1755 0.0200312 21.8496 0.00390625 21.5071H8.53251Z" fill="#FB9927"/>
<path d="M8.53525 21.0628V21.3747C8.53525 22.8742 7.32 24.0902 5.82057 24.0902H3.65039C5.14982 24.0902 6.36507 22.8742 6.36507 21.3747V21.0628C6.36507 20.637 6.02007 20.2927 5.59495 20.2927H7.76513C8.19025 20.2927 8.53525 20.637 8.53525 21.0628Z" fill="#FB9927"/>
<path d="M4.26751 7.94494C4.93626 7.94494 5.47838 7.40281 5.47838 6.73406C5.47838 6.06532 4.93626 5.52319 4.26751 5.52319C3.59877 5.52319 3.05664 6.06532 3.05664 6.73406C3.05664 7.40281 3.59877 7.94494 4.26751 7.94494Z" fill="#FCB44D"/>
<path d="M5.47765 6.73425C5.47765 7.40313 4.93553 7.94525 4.26665 7.94525C4.00209 7.94525 3.75784 7.86031 3.55859 7.71662C3.97665 7.52587 4.26665 7.10394 4.26665 6.61469C4.26665 6.21038 4.06872 5.85244 3.76434 5.63294C3.91722 5.56238 4.08765 5.52319 4.26665 5.52319C4.93553 5.52326 5.47765 6.06538 5.47765 6.73425Z" fill="#FB9927"/>
<path d="M31.0185 21.0976C30.8037 21.0976 30.6078 20.9534 30.5514 20.7358L27.7332 9.8692L24.9153 20.7359C24.8483 20.994 24.5851 21.149 24.3266 21.082C24.0684 21.0151 23.9134 20.7515 23.9804 20.4934L27.2659 7.82433C27.3211 7.6114 27.5133 7.46265 27.7333 7.46265C27.9533 7.46265 28.1456 7.61133 28.2007 7.82433L31.4862 20.4934C31.5532 20.7515 31.3982 21.0151 31.14 21.082C31.0994 21.0925 31.0586 21.0976 31.0185 21.0976Z" fill="#FFD597"/>
<path d="M29.2848 24.09H26.1796C24.6803 24.09 23.4648 22.8746 23.4648 21.3752V21.0626C23.4648 20.6373 23.8097 20.2925 24.235 20.2925H31.2294C31.6548 20.2925 31.9996 20.6373 31.9996 21.0626V21.3752C31.9996 22.8745 30.7841 24.09 29.2848 24.09Z" fill="#FCB44D"/>
<path d="M31.9954 21.5071C31.9793 21.8496 31.8995 22.1754 31.7681 22.4729H23.6941C23.5627 22.1755 23.4829 21.8496 23.4668 21.5071H31.9954Z" fill="#FB9927"/>
<path d="M32.0001 21.0628V21.3747C32.0001 22.8742 30.7848 24.0902 29.2854 24.0902H27.1152C28.6147 24.0902 29.8299 22.8742 29.8299 21.3747V21.0628C29.8299 20.637 29.4849 20.2927 29.0598 20.2927H31.23C31.6551 20.2927 32.0001 20.637 32.0001 21.0628Z" fill="#FB9927"/>
<path d="M8.53118 21.5068C8.51505 21.8494 8.43524 22.1751 8.30387 22.4726H6.13281C6.26481 22.1752 6.34462 21.8494 6.36075 21.5068H8.53118Z" fill="#F98824"/>
<path d="M31.9961 21.5068C31.98 21.8494 31.9001 22.1751 31.7688 22.4726H29.5977C29.7297 22.1752 29.8095 21.8494 29.8256 21.5068H31.9961Z" fill="#F98824"/>
<path d="M27.7324 7.94494C28.4011 7.94494 28.9432 7.40281 28.9432 6.73406C28.9432 6.06532 28.4011 5.52319 27.7324 5.52319C27.0636 5.52319 26.5215 6.06532 26.5215 6.73406C26.5215 7.40281 27.0636 7.94494 27.7324 7.94494Z" fill="#FCB44D"/>
<path d="M28.9444 6.73425C28.9444 7.40313 28.4023 7.94525 27.7334 7.94525C27.4689 7.94525 27.2246 7.86031 27.0254 7.71662C27.4435 7.52587 27.7334 7.10394 27.7334 6.61469C27.7334 6.21038 27.5355 5.85244 27.2311 5.63294C27.384 5.56238 27.5545 5.52319 27.7334 5.52319C28.4023 5.52326 28.9444 6.06538 28.9444 6.73425Z" fill="#FB9927"/>
<path d="M15.9997 20.3678C17.1624 20.3678 18.1049 19.4253 18.1049 18.2627C18.1049 17.1 17.1624 16.1575 15.9997 16.1575C14.8371 16.1575 13.8945 17.1 13.8945 18.2627C13.8945 19.4253 14.8371 20.3678 15.9997 20.3678Z" fill="#FB9927"/>
<path d="M18.1057 18.2623C18.1057 19.4251 17.163 20.3677 16.0002 20.3677C15.7175 20.3677 15.4478 20.3117 15.2012 20.2106C15.9674 19.8957 16.5069 19.1418 16.5069 18.2623C16.5069 17.3828 15.9674 16.6295 15.2012 16.3146C15.4478 16.2135 15.7175 16.1575 16.0002 16.1575C17.163 16.1575 18.1057 17.1001 18.1057 18.2623Z" fill="#F98824"/>
<path d="M15.9992 3.13111C16.8638 3.13111 17.5647 2.43019 17.5647 1.56556C17.5647 0.700924 16.8638 0 15.9992 0C15.1345 0 14.4336 0.700924 14.4336 1.56556C14.4336 2.43019 15.1345 3.13111 15.9992 3.13111Z" fill="#FFD597"/>
<path d="M17.5656 1.56581C17.5656 2.43031 16.8643 3.13087 15.9998 3.13087C15.7539 3.13087 15.5217 3.07462 15.3145 2.97343C15.8351 2.71874 16.1942 2.18449 16.1942 1.56587C16.1942 0.947247 15.8351 0.412186 15.3145 0.157499C15.5218 0.0562498 15.754 4.18157e-09 15.9998 4.18157e-09C16.8643 -6.24956e-05 17.5656 0.700498 17.5656 1.56581Z" fill="#FCC16D"/>
<path d="M22.407 28.7089H9.59375V27.0288C9.59375 26.4954 10.0261 26.063 10.5596 26.063H21.4411C21.9745 26.063 22.407 26.4954 22.407 27.0288V28.7089Z" fill="#756F6F"/>
<path d="M22.4057 27.0288V28.7086H20.8076V27.0288C20.8076 26.495 20.3749 26.063 19.8418 26.063H21.4399C21.9737 26.063 22.4057 26.495 22.4057 27.0288Z" fill="#5B5555"/>
<path d="M24.5141 30.4976H7.48567C7.13005 30.4976 6.8418 30.2094 6.8418 29.8538V28.8099C6.8418 28.4543 7.13005 28.166 7.48567 28.166H24.5141C24.8697 28.166 25.1579 28.4543 25.1579 28.8099V29.8538C25.1579 30.2094 24.8697 30.4976 24.5141 30.4976Z" fill="#FFD597"/>
<path d="M25.1586 28.8099V29.8536C25.1586 30.209 24.8701 30.4974 24.5147 30.4974H22.916C23.2721 30.4974 23.5599 30.209 23.5599 29.8536V28.8099C23.5599 28.4538 23.2721 28.166 22.916 28.166H24.5147C24.8701 28.166 25.1586 28.4538 25.1586 28.8099Z" fill="#FCC16D"/>
<path d="M18.2273 21.6463H13.7747C13.4191 21.6463 13.1309 21.3581 13.1309 21.0025V20.1768C13.1309 19.8212 13.4191 19.533 13.7747 19.533H18.2273C18.5829 19.533 18.8712 19.8212 18.8712 20.1768V21.0025C18.8711 21.3581 18.5828 21.6463 18.2273 21.6463Z" fill="#FFD597"/>
<path d="M18.8695 20.1768V21.0023C18.8695 21.3577 18.5811 21.6461 18.2256 21.6461H16.627C16.983 21.6461 17.2708 21.3577 17.2708 21.0023V20.1768C17.2708 19.8214 16.983 19.533 16.627 19.533H18.2256C18.5811 19.533 18.8695 19.8214 18.8695 20.1768Z" fill="#FCC16D"/>
</svg>
