<svg width="64" height="65" viewBox="0 0 64 65" fill="none" xmlns="http://www.w3.org/2000/svg">
<rect y="0.913086" width="64" height="64" rx="32" fill="white"/>
<path d="M39.9965 36.4817L25.4983 28.0563L34.1959 23.0347L48.6942 31.4601L39.9965 36.4817Z" fill="#F45170"/>
<path d="M39.913 36.5491L25.4148 28.1236L25.4983 28.0562L39.9966 36.4816L39.913 36.5491Z" fill="#F45170"/>
<path d="M38.6132 37.2946L24.115 28.8692C24.6267 28.7664 25.049 28.4929 25.4149 28.1235L39.9131 36.549C39.5473 36.9183 39.1249 37.1919 38.6132 37.2946Z" fill="#E93565"/>
<path d="M29.8027 42.3669L15.3044 33.9415L24.115 28.8691L38.6132 37.2946L29.8027 42.3669Z" fill="#F45170"/>
<path d="M29.8042 43.1915L15.306 34.7661L15.3044 33.9419L29.8027 42.3673L29.8042 43.1915Z" fill="#CC104A"/>
<path d="M48.6943 31.46L48.6958 32.2841L40.04 37.2816C39.802 37.5152 39.5514 37.7128 39.2964 37.86C39.0415 38.0072 38.7738 38.1088 38.5061 38.1672L29.8042 43.1912L29.8027 42.367L38.6133 37.2947C39.1249 37.1919 39.5472 36.9184 39.9131 36.549L39.9967 36.4815L48.6943 31.46Z" fill="#DF3260"/>
<path d="M16.7612 32.9768V34.3897C19.6825 32.4835 22.4243 30.7897 24.4269 29.9706C25.113 29.7069 25.7562 29.4186 26.14 28.9816L25.4091 28.3833C22.886 28.6668 19.8992 30.5597 16.7612 32.9768Z" fill="white"/>
<path d="M33.9423 23.0151C31.1446 24.1716 28.2836 26.1868 25.4092 28.3833L26.1402 28.9815C28.7467 27.3023 31.3849 25.8167 34.0571 24.5395L33.9423 23.0151Z" fill="#F1F6FA"/>
<path d="M30.017 40.6384L16.7612 32.9707V34.4656L30.017 42.0513V40.6384Z" fill="#DEDFFB"/>
<path d="M38.7938 35.9465C36.2734 36.228 33.1566 38.2182 30.0144 40.6403L16.7583 32.9681L25.4124 28.3857L38.7938 35.9465Z" fill="white"/>
<path d="M47.198 30.677C44.4027 31.8357 41.674 33.7472 38.7937 35.9467L25.4124 28.386L33.9421 23.0181L47.198 30.677Z" fill="#F1F6FA"/>
<path d="M30.0171 40.6384V42.0512C32.9383 40.1451 35.6802 38.4512 37.6828 37.6322C38.3689 37.3685 39.012 37.0801 39.3959 36.6431C42.0025 34.9639 44.6191 33.1919 47.2913 31.9148L47.1981 30.6768C44.4004 31.8332 41.6682 33.7501 38.7938 35.9465C36.2708 36.23 33.155 38.2212 30.0171 40.6384Z" fill="#E9E7FC"/>
<path d="M38.9608 35.0238C38.9493 35.0083 38.9523 34.9866 38.968 34.9751C41.0064 33.4448 43.4313 31.7252 45.9602 30.5737C45.9991 30.5535 46.0324 30.6176 45.9887 30.6369C43.4663 31.7859 41.0451 33.5027 39.0094 35.0308C38.9939 35.0424 38.9721 35.039 38.9608 35.0238Z" fill="#4F575F"/>
<path d="M29.5726 39.338C30.7869 38.4301 31.8593 37.7001 32.8508 37.1064C32.8908 37.0831 32.9259 37.1425 32.8868 37.1662C31.8973 37.7586 30.8267 38.4872 29.614 39.3938C29.5781 39.4217 29.5351 39.3657 29.5726 39.338Z" fill="#DEDFFB"/>
<path d="M38.3721 34.6301C40.4108 33.0997 42.8361 31.3799 45.3643 30.2288C45.4016 30.2077 45.4373 30.2723 45.3928 30.292C42.8711 31.4404 40.4496 33.1576 38.4136 34.6858C38.3766 34.7135 38.3351 34.6575 38.3721 34.6301Z" fill="#DEDFFB"/>
<path d="M28.9769 38.9933C29.9545 38.2626 30.8315 37.6529 31.6586 37.1295C31.6976 37.1047 31.735 37.1638 31.696 37.1882C30.8702 37.7107 29.9945 38.3194 29.0183 39.049C28.9824 39.0769 28.9394 39.021 28.9769 38.9933Z" fill="#DEDFFB"/>
<path d="M37.7764 34.2855C39.8155 32.7551 42.2408 31.0353 44.7686 29.8844C44.7852 29.8755 44.8066 29.8842 44.8145 29.9015C44.8226 29.919 44.8148 29.9397 44.7971 29.9475C42.2757 31.0958 39.8542 32.8129 37.8179 34.3412C37.7809 34.3689 37.7394 34.3129 37.7764 34.2855Z" fill="#DEDFFB"/>
<path d="M28.3812 38.6481C29.9494 37.4756 31.3034 36.5851 32.5194 35.9255C32.5603 35.9038 32.593 35.9649 32.5527 35.9866C31.3394 36.6446 29.9885 37.5333 28.4226 38.7038C28.3867 38.7317 28.3437 38.6758 28.3812 38.6481Z" fill="#4F575F"/>
<path d="M37.1807 33.9404C39.2191 32.4101 41.644 30.6905 44.1729 29.539C44.1892 29.5305 44.2109 29.5387 44.2188 29.5562C44.2269 29.5737 44.2191 29.5944 44.2014 29.6022C41.679 30.7512 39.2578 32.468 37.2222 33.9961C37.1852 34.0237 37.1437 33.9677 37.1807 33.9404Z" fill="#4F575F"/>
<path d="M27.7852 38.3038C30.6966 36.1275 32.9174 34.8833 34.7747 34.388C34.8188 34.3766 34.8373 34.4434 34.7924 34.4553C32.9442 34.9482 30.7309 36.1888 27.8267 38.3595C27.7908 38.3874 27.7478 38.3315 27.7852 38.3038Z" fill="#DEDFFB"/>
<path d="M36.5848 33.596C38.6231 32.0658 41.0481 30.3462 43.577 29.1947C43.5929 29.1864 43.6147 29.1945 43.6228 29.2118C43.631 29.2293 43.6231 29.2501 43.6055 29.2579C41.0831 30.4068 38.6619 32.1237 36.6262 33.6517C36.5893 33.6794 36.5477 33.6234 36.5848 33.596Z" fill="#DEDFFB"/>
<path d="M27.1895 37.9589C30.1009 35.7826 32.322 34.5384 34.1793 34.0432C34.2212 34.0301 34.2433 34.0982 34.197 34.1104C32.3488 34.6033 30.1352 35.8439 27.231 38.0146C27.1951 38.0425 27.1521 37.9866 27.1895 37.9589Z" fill="#DEDFFB"/>
<path d="M35.9896 33.2511C38.0279 31.7208 40.4529 30.0011 42.9814 28.8497C43.0195 28.8291 43.0541 28.8934 43.0099 28.9129C40.4875 30.0617 38.0667 31.7786 36.031 33.3068C35.9941 33.3344 35.9525 33.2785 35.9896 33.2511Z" fill="#DEDFFB"/>
<path d="M26.5938 37.6138C29.5052 35.4377 31.7263 34.1935 33.5836 33.6982C33.627 33.6861 33.6466 33.7535 33.6013 33.7655C31.7531 34.2584 29.5395 35.4988 26.6353 37.6695C26.5994 37.6974 26.5563 37.6415 26.5938 37.6138Z" fill="#DEDFFB"/>
<path d="M35.3939 32.9061C37.4319 31.3761 39.8565 29.6565 42.3857 28.505C42.4244 28.4844 42.4581 28.5488 42.4142 28.5682C39.8915 29.7171 37.4706 31.434 35.4353 32.9618C35.3984 32.9895 35.3568 32.9335 35.3939 32.9061Z" fill="#DEDFFB"/>
<path d="M25.9909 37.3179C25.9793 37.3024 25.9824 37.2807 25.998 37.2691C27.1824 36.3836 28.231 35.6681 29.2038 35.0813C29.2423 35.0573 29.2798 35.1166 29.2398 35.1407C28.2691 35.7263 27.2222 36.4408 26.0394 37.3248C26.0249 37.3362 26.0027 37.3335 25.9909 37.3179Z" fill="#1D2943"/>
<path d="M34.8188 32.6241C34.8082 32.6241 34.7977 32.6194 34.7909 32.6102C34.7794 32.5949 34.7824 32.573 34.798 32.5614C36.8361 31.0314 39.2607 29.3119 41.7899 28.1601C41.8294 28.14 41.8618 28.2041 41.8184 28.2233C39.2957 29.3724 36.8748 31.0893 34.8395 32.6171C34.8334 32.6217 34.8259 32.6241 34.8188 32.6241Z" fill="#DEDFFB"/>
<path d="M25.4022 36.9242C28.3135 34.7479 30.5346 33.5037 32.392 33.0084C32.4343 32.9957 32.4557 33.0635 32.4096 33.0757C30.5615 33.5686 28.3478 34.8092 25.4436 36.9799C25.4077 37.0078 25.3647 36.9519 25.4022 36.9242Z" fill="#DEDFFB"/>
<path d="M34.2228 32.279C34.2123 32.279 34.2018 32.2743 34.195 32.2651C34.1834 32.2498 34.1865 32.2279 34.2021 32.2163C36.2401 30.6863 38.6647 28.9669 41.1939 27.815C41.2103 27.8062 41.2317 27.8149 41.2398 27.8322C41.3198 28.0039 39.7654 28.127 34.2435 32.2721C34.2374 32.2766 34.23 32.279 34.2228 32.279Z" fill="#DEDFFB"/>
<path d="M24.8065 36.5794C27.7178 34.4031 29.9389 33.1589 31.7963 32.6637C31.8133 32.6591 31.834 32.6698 31.8387 32.6883C31.8949 32.8943 30.2494 32.5979 24.8479 36.6351C24.812 36.663 24.769 36.6071 24.8065 36.5794Z" fill="#DEDFFB"/>
<path d="M33.6271 31.9343C33.6166 31.9343 33.6061 31.9295 33.5993 31.9204C33.5877 31.9051 33.5908 31.8832 33.6064 31.8716C35.6448 30.3412 38.0697 28.6216 40.5986 27.4703C40.6149 27.4615 40.6366 27.4701 40.6444 27.4875C40.7276 27.666 39.2121 27.7502 33.6478 31.9273C33.6417 31.9319 33.6343 31.9343 33.6271 31.9343Z" fill="#DEDFFB"/>
<path d="M24.2105 36.2346C25.8871 34.9815 27.3233 34.0469 28.6015 33.3773C28.6195 33.3679 28.6395 33.3747 28.6487 33.3919C28.6575 33.4088 28.6511 33.4299 28.6341 33.4387C27.359 34.1069 25.9255 35.0396 24.252 36.2903C24.2161 36.3182 24.173 36.2623 24.2105 36.2346Z" fill="#78E75A"/>
<path d="M33.0312 31.5895C33.0206 31.5895 33.0101 31.5848 33.0033 31.5756C32.9918 31.5603 32.9948 31.5384 33.0105 31.5269C35.0482 29.997 37.4727 28.2777 40.0026 27.1255C40.0418 27.1051 40.0747 27.1695 40.0312 27.1887C37.5074 28.3382 35.0869 30.0549 33.0519 31.5826C33.0458 31.5872 33.0383 31.5895 33.0312 31.5895Z" fill="#DEDFFB"/>
<path d="M23.6148 35.89C26.5258 33.7141 28.7469 32.4697 30.6046 31.9743C30.6209 31.9695 30.6423 31.9804 30.6471 31.9989C30.6522 32.0176 30.641 32.0366 30.6223 32.0415C28.7738 32.5346 26.5601 33.7752 23.6563 35.9457C23.6204 35.9736 23.5773 35.9177 23.6148 35.89Z" fill="#DEDFFB"/>
<path d="M32.4355 31.2449C32.4249 31.2449 32.4144 31.2402 32.4076 31.231C32.3961 31.2157 32.3991 31.1938 32.4147 31.1822C34.4525 29.6524 36.877 27.9331 39.4069 26.7809C39.4236 26.7719 39.4446 26.7807 39.4528 26.7981C39.4609 26.8156 39.4531 26.8363 39.4355 26.8441C36.9117 27.9936 34.4912 29.7103 32.4562 31.238C32.4501 31.2425 32.4426 31.2449 32.4355 31.2449Z" fill="#DEDFFB"/>
<path d="M23.0194 35.545C23.6997 35.036 24.3526 34.5715 24.9596 34.1648C24.996 34.1389 25.0375 34.1963 24.9983 34.2225C24.3923 34.6288 23.7405 35.0924 23.0608 35.6007C23.0249 35.6286 22.9819 35.5727 23.0194 35.545Z" fill="#4F575F"/>
<path d="M31.8119 30.8862C31.8004 30.8709 31.8034 30.849 31.819 30.8375C33.8567 29.3076 36.2813 27.5883 38.8112 26.4362C38.8493 26.4155 38.8839 26.4798 38.8398 26.4993C36.316 27.6488 33.8955 29.3655 31.8605 30.8932C31.845 30.9048 31.8232 30.9014 31.8119 30.8862Z" fill="#4F575F"/>
<path d="M22.4236 35.2007C25.3343 33.0246 27.5554 31.7803 29.4131 31.2849C29.4298 31.2798 29.4505 31.291 29.4556 31.3095C29.4607 31.3282 29.4495 31.3473 29.4308 31.3522C27.5823 31.845 25.3686 33.0857 22.4651 35.2564C22.4292 35.2843 22.3862 35.2284 22.4236 35.2007Z" fill="#DEDFFB"/>
<path d="M31.2162 30.5415C31.2047 30.5262 31.2077 30.5043 31.2233 30.4927C33.2614 28.9627 35.686 27.2431 38.2155 26.0914C38.2542 26.0708 38.2879 26.1352 38.2441 26.1546C35.721 27.3037 33.3001 29.0204 31.2648 30.5484C31.2493 30.5601 31.2274 30.5566 31.2162 30.5415Z" fill="#DEDFFB"/>
<path d="M21.8277 34.8552C24.7387 32.6791 26.9595 31.4348 28.8172 30.9396C28.8335 30.9348 28.8549 30.9457 28.8597 30.9642C28.8648 30.9829 28.8535 31.0019 28.8349 31.0068C26.9864 31.4997 24.773 32.7402 21.8692 34.9109C21.8338 34.9384 21.79 34.8831 21.8277 34.8552Z" fill="#DEDFFB"/>
<path d="M30.6273 30.1476C32.665 28.6177 35.0896 26.8984 37.6194 25.7463C37.6578 25.7255 37.692 25.79 37.648 25.8094C35.1242 26.9589 32.7037 28.6756 30.6687 30.2033C30.6318 30.231 30.5902 30.175 30.6273 30.1476Z" fill="#DEDFFB"/>
<path d="M21.232 34.5105C23.6556 32.6985 25.6389 31.5156 27.2952 30.8938C27.3132 30.8871 27.3329 30.8962 27.34 30.9142C27.3468 30.9322 27.3376 30.9523 27.3196 30.9591C25.6695 31.5785 23.6919 32.7583 21.2734 34.5662C21.2376 34.5941 21.1945 34.5382 21.232 34.5105Z" fill="#F45170"/>
<path d="M30.0246 29.8516C30.013 29.8363 30.0161 29.8144 30.0317 29.8028C32.0694 28.2729 34.494 26.5537 37.0239 25.4015C37.062 25.3809 37.0966 25.4451 37.0524 25.4647C34.5286 26.6141 32.1081 28.3308 30.0731 29.8585C30.0576 29.8702 30.0358 29.8667 30.0246 29.8516Z" fill="#DEDFFB"/>
<path d="M20.6363 34.1655C23.547 31.9893 25.7677 30.7451 27.6258 30.2497C27.6424 30.2448 27.6631 30.2558 27.6682 30.2743C27.6733 30.293 27.6621 30.312 27.6434 30.317C25.7946 30.81 23.5813 32.0507 20.6777 34.2212C20.6419 34.2491 20.5988 34.1932 20.6363 34.1655Z" fill="#DEDFFB"/>
<path d="M29.4289 29.5067C29.4173 29.4914 29.4204 29.4695 29.436 29.458C31.474 27.9279 33.8986 26.2083 36.4282 25.0567C36.4441 25.048 36.4662 25.0565 36.474 25.0738C36.4822 25.0913 36.4744 25.112 36.4567 25.1198C33.9336 26.2689 31.5128 27.9857 29.4774 29.5137C29.4619 29.5253 29.4401 29.5219 29.4289 29.5067Z" fill="#DEDFFB"/>
<path d="M20.0403 33.8208C21.7887 32.5137 23.2802 31.5504 24.5995 30.8761C24.6161 30.867 24.6378 30.8739 24.6463 30.8912C24.6552 30.9084 24.6484 30.9293 24.6314 30.9379C23.3155 31.6105 21.8274 32.5718 20.0818 33.8765C20.0459 33.9044 20.0029 33.8484 20.0403 33.8208Z" fill="#4F575F"/>
<path d="M28.8329 29.1619C28.8214 29.1467 28.8244 29.1248 28.84 29.1132C30.8781 27.5831 33.3027 25.8635 35.8322 24.7119C35.8489 24.7034 35.8699 24.7115 35.8781 24.729C35.8862 24.7465 35.8784 24.7672 35.8608 24.7751C33.3377 25.9242 30.9168 27.6409 28.8815 29.1689C28.866 29.1806 28.8441 29.1771 28.8329 29.1619Z" fill="#4F575F"/>
<path d="M19.4446 33.4758C22.3557 31.2999 24.5764 30.0557 26.4341 29.5602C26.4762 29.5472 26.498 29.6153 26.4518 29.6275C24.6033 30.1205 22.39 31.361 19.4861 33.5315C19.4502 33.5594 19.4072 33.5035 19.4446 33.4758Z" fill="#DEDFFB"/>
<path d="M28.2651 28.8308C28.2545 28.8308 28.244 28.826 28.2372 28.8169C28.2257 28.8016 28.2287 28.7797 28.2443 28.7681C30.282 27.2382 32.7066 25.519 35.2365 24.3668C35.2528 24.358 35.2742 24.3666 35.2824 24.3839C35.2905 24.4014 35.2827 24.4221 35.2651 24.43C31.5748 26.1107 28.4054 28.8308 28.2651 28.8308Z" fill="#DEDFFB"/>
<path d="M18.8417 33.1803C18.8301 33.1649 18.8332 33.1431 18.8488 33.1316C21.7592 30.9558 23.9803 29.7116 25.8383 29.2158C25.881 29.2036 25.9017 29.271 25.856 29.2831C24.0068 29.7763 21.7935 31.0169 18.8903 33.1873C18.8757 33.1986 18.8535 33.196 18.8417 33.1803Z" fill="#DEDFFB"/>
<path d="M27.6485 28.4238C29.6869 26.8936 32.1118 25.174 34.6407 24.0225C34.6566 24.0138 34.6787 24.0223 34.6865 24.0396C34.6947 24.0571 34.6869 24.0778 34.6692 24.0857C32.1468 25.2346 29.7256 26.9515 27.6899 28.4795C27.653 28.5072 27.6115 28.4512 27.6485 28.4238Z" fill="#4F575F"/>
<path d="M27.0525 28.0786C29.0913 26.5482 31.5165 24.8284 34.0447 23.6773C34.0614 23.6686 34.0824 23.6769 34.0906 23.6944C34.0987 23.7119 34.0909 23.7327 34.0733 23.7405C31.5515 24.8889 29.13 26.6061 27.094 28.1343C27.0571 28.162 27.0155 28.106 27.0525 28.0786Z" fill="#DEDFFB"/>
<path d="M38.7998 35.9487L25.4219 28.3831L25.408 28.3135L38.7858 35.879L38.7998 35.9487Z" fill="#F1F6FA"/>
<path d="M44.2304 27.994L44.17 27.9847C41.7932 29.9948 40.2296 32.4346 38.7858 35.8791L25.408 28.3136C26.8517 24.8691 28.5644 22.3074 30.9412 20.2974L31.0015 20.3066L44.2304 27.994Z" fill="#F1F6FA"/>
<path d="M37.8661 34.4699C39.165 31.5349 40.5563 29.4719 42.3773 27.7808C42.4115 27.7495 42.4585 27.8002 42.4249 27.8318C40.611 29.5162 39.2248 31.5721 37.93 34.4981C37.9111 34.5403 37.8476 34.5117 37.8661 34.4699Z" fill="#DEDFFB"/>
<path d="M37.2704 34.1253C37.7015 33.1518 38.1305 32.2968 38.5829 31.5118C38.606 31.4718 38.6661 31.5067 38.6434 31.5465C38.1923 32.3294 37.764 33.1822 37.3343 34.1535C37.3154 34.1957 37.2519 34.1671 37.2704 34.1253Z" fill="#1D2943"/>
<path d="M38.5306 30.2765C39.3135 29.0654 40.1824 28.0236 41.1858 27.0914C41.2199 27.0601 41.2669 27.1108 41.2333 27.1423C40.2337 28.0706 39.3689 29.1082 38.589 30.3142C38.5636 30.3529 38.5055 30.3149 38.5306 30.2765Z" fill="#DEDFFB"/>
<path d="M37.2547 31.0632C38.2259 29.3297 39.2856 27.9581 40.59 26.7466C40.6039 26.7336 40.626 26.7342 40.6393 26.7485C40.6525 26.7626 40.6515 26.7845 40.6376 26.7976C39.3383 28.0039 38.2829 29.3701 37.3152 31.0972C37.2936 31.1373 37.2319 31.1036 37.2547 31.0632Z" fill="#DEDFFB"/>
<path d="M37.2181 31.1286C38.1981 29.3655 39.2694 27.9732 40.5901 26.7466C40.604 26.7336 40.6261 26.7342 40.6393 26.7485C40.6526 26.7624 40.6516 26.7845 40.6376 26.7976C39.3224 28.0191 38.2552 29.406 37.2793 31.1622C37.2567 31.2027 37.1961 31.1687 37.2181 31.1286Z" fill="#DEDFFB"/>
<path d="M35.4831 33.0908C36.4396 30.9295 37.4291 29.272 38.5962 27.8748C38.6088 27.86 38.6302 27.8581 38.6454 27.8704C38.66 27.8826 38.6621 27.9045 38.6499 27.9193C37.4865 29.3116 36.5007 30.9638 35.5469 33.119C35.528 33.1612 35.4646 33.1326 35.4831 33.0908Z" fill="#4F91FF"/>
<path d="M34.8871 32.7463C36.1864 29.811 37.5777 27.748 39.3987 26.0573C39.4126 26.0442 39.4347 26.0447 39.4479 26.0591C39.4612 26.0732 39.4602 26.0951 39.4462 26.1082C37.6324 27.7921 36.2458 29.8482 34.951 32.7745C34.9321 32.8167 34.8686 32.7881 34.8871 32.7463Z" fill="#DEDFFB"/>
<path d="M34.3235 32.4504C34.3187 32.4504 34.314 32.4494 34.3095 32.4474C34.2919 32.4397 34.2837 32.4192 34.2915 32.4015C35.5905 29.4662 36.9821 27.4032 38.8031 25.7125C38.8373 25.6812 38.8843 25.7318 38.8506 25.7634C37.0364 27.4475 35.6502 29.5034 34.3554 32.4297C34.3496 32.4426 34.3367 32.4504 34.3235 32.4504Z" fill="#DEDFFB"/>
<path d="M34.3235 32.4504C34.3187 32.4504 34.314 32.4494 34.3095 32.4474C34.2919 32.4397 34.2837 32.4192 34.2915 32.4015C35.5905 29.4662 36.9821 27.4032 38.8031 25.7125C38.8373 25.6812 38.8843 25.7318 38.8506 25.7634C37.0364 27.4475 35.6502 29.5034 34.3554 32.4297C34.3496 32.4426 34.3367 32.4504 34.3235 32.4504Z" fill="#DEDFFB"/>
<path d="M33.7275 32.1054C33.7228 32.1054 33.718 32.1044 33.7136 32.1024C33.6959 32.0947 33.6878 32.0742 33.6956 32.0565C34.9945 29.1214 36.3862 27.0584 38.2071 25.3673C38.2406 25.3359 38.2884 25.3866 38.2547 25.4183C36.4405 27.1025 35.0543 29.1586 33.7595 32.0847C33.7537 32.0976 33.7408 32.1054 33.7275 32.1054Z" fill="#DEDFFB"/>
<path d="M33.7275 32.1054C33.7228 32.1054 33.718 32.1044 33.7136 32.1024C33.6959 32.0947 33.6878 32.0742 33.6956 32.0565C34.9945 29.1214 36.3862 27.0584 38.2071 25.3673C38.2406 25.3359 38.2884 25.3866 38.2547 25.4183C36.4405 27.1025 35.0543 29.1586 33.7595 32.0847C33.7537 32.0976 33.7408 32.1054 33.7275 32.1054Z" fill="#DEDFFB"/>
<path d="M33.1318 31.7606C33.1271 31.7606 33.1223 31.7596 33.1179 31.7576C33.1002 31.7499 33.0921 31.7294 33.0999 31.7117C33.786 30.1618 34.4919 28.8676 35.2582 27.7552C35.2837 27.7173 35.3416 27.7563 35.3152 27.7946C34.5517 28.9035 33.8479 30.1939 33.1638 31.7399C33.158 31.7528 33.1451 31.7606 33.1318 31.7606Z" fill="#1D2943"/>
<path d="M32.5361 31.4158C32.5314 31.4158 32.5266 31.4148 32.5222 31.4127C32.5045 31.4051 32.4964 31.3846 32.5042 31.3669C33.8034 28.4316 35.1947 26.3686 37.0157 24.6779C37.03 24.6648 37.0521 24.6653 37.065 24.6797C37.0782 24.6938 37.0772 24.7157 37.0633 24.7288C35.2494 26.4127 33.8629 28.4688 32.568 31.3951C32.5623 31.408 32.5494 31.4158 32.5361 31.4158Z" fill="#DEDFFB"/>
<path d="M31.9402 31.0711C31.9354 31.0711 31.9307 31.0701 31.9262 31.068C31.9086 31.0604 31.9004 31.0398 31.9082 31.0222C33.2072 28.0869 34.5988 26.0239 36.4198 24.3331C36.4341 24.3201 36.4558 24.3206 36.469 24.335C36.4823 24.3491 36.4813 24.371 36.4673 24.3841C34.6531 26.0682 33.2669 28.1241 31.9721 31.0504C31.9663 31.0633 31.9534 31.0711 31.9402 31.0711Z" fill="#DEDFFB"/>
<path d="M31.9402 31.0711C31.9354 31.0711 31.9307 31.0701 31.9262 31.068C31.9086 31.0604 31.9004 31.0398 31.9082 31.0222C33.2072 28.0869 34.5988 26.0239 36.4198 24.3331C36.4341 24.3201 36.4558 24.3206 36.469 24.335C36.4823 24.3491 36.4813 24.371 36.4673 24.3841C34.6531 26.0682 33.2669 28.1241 31.9721 31.0504C31.9663 31.0633 31.9534 31.0711 31.9402 31.0711Z" fill="#DEDFFB"/>
<path d="M31.3305 30.7233C31.3129 30.7157 31.3047 30.6952 31.3125 30.6775C32.2483 28.5627 33.212 26.9363 34.3451 25.5591C34.357 25.5442 34.3795 25.5421 34.3941 25.5544C34.409 25.5666 34.411 25.5885 34.3988 25.6033C33.2697 26.9756 32.3095 28.5968 31.3764 30.7057C31.3686 30.7231 31.3478 30.7313 31.3305 30.7233Z" fill="#1D2943"/>
<path d="M30.7167 30.3322C32.0166 27.3962 33.4079 25.3332 35.2283 23.6432C35.2422 23.6301 35.2643 23.6306 35.2775 23.6451C35.2908 23.6592 35.2897 23.6811 35.2758 23.6941C33.4626 25.3776 32.0761 27.4334 30.7806 30.3604C30.7616 30.4027 30.6983 30.3739 30.7167 30.3322Z" fill="#DEDFFB"/>
<path d="M30.7167 30.3322C32.0166 27.3962 33.4079 25.3332 35.2283 23.6432C35.2422 23.6301 35.2643 23.6306 35.2775 23.6451C35.2908 23.6592 35.2897 23.6811 35.2758 23.6941C33.4626 25.3776 32.0761 27.4334 30.7806 30.3604C30.7616 30.4027 30.6983 30.3739 30.7167 30.3322Z" fill="#DEDFFB"/>
<path d="M30.1389 30.0333C30.1212 30.0255 30.1131 30.0051 30.1209 29.9874C31.4205 27.0516 32.8121 24.9886 34.6324 23.2984C34.6467 23.2853 34.6688 23.286 34.6817 23.3003C34.6949 23.3144 34.6939 23.3363 34.68 23.3494C32.8665 25.0329 31.4803 27.0888 30.1847 30.0156C30.1769 30.0331 30.1561 30.0412 30.1389 30.0333Z" fill="#DEDFFB"/>
<path d="M29.5432 29.6886C29.5255 29.6808 29.5174 29.6604 29.5252 29.6427C30.8248 26.7069 32.2164 24.6439 34.0367 22.9537C34.0507 22.9406 34.0727 22.9413 34.086 22.9555C34.0992 22.9696 34.0982 22.9916 34.0843 23.0046C32.2708 24.6882 30.8846 26.7441 29.589 29.6709C29.5812 29.6884 29.5604 29.6965 29.5432 29.6886Z" fill="#DEDFFB"/>
<path d="M29.5432 29.6886C29.5255 29.6808 29.5174 29.6604 29.5252 29.6427C30.8248 26.7069 32.2164 24.6439 34.0367 22.9537C34.0507 22.9406 34.0727 22.9413 34.086 22.9555C34.0992 22.9696 34.0982 22.9916 34.0843 23.0046C32.2708 24.6882 30.8846 26.7441 29.589 29.6709C29.5812 29.6884 29.5604 29.6965 29.5432 29.6886Z" fill="#DEDFFB"/>
<path d="M28.9475 29.3438C28.9298 29.3362 28.9217 29.3156 28.9295 29.298C29.6622 27.6426 30.422 26.2716 31.2522 25.1071C31.2785 25.0699 31.3354 25.11 31.3086 25.1475C30.4815 26.3082 29.724 27.675 28.9933 29.3262C28.9855 29.3436 28.9647 29.3518 28.9475 29.3438Z" fill="#DEDFFB"/>
<path d="M28.3515 28.9992C28.3339 28.9914 28.3257 28.971 28.3335 28.9533C29.6331 26.0179 31.0244 23.9548 32.8451 22.2643C32.8785 22.2329 32.9264 22.2836 32.8926 22.3152C31.0791 23.9992 29.6926 26.055 28.3974 28.9815C28.3896 28.999 28.3688 29.0071 28.3515 28.9992Z" fill="#DEDFFB"/>
<path d="M28.3515 28.9992C28.3339 28.9914 28.3257 28.971 28.3335 28.9533C29.6331 26.0179 31.0244 23.9548 32.8451 22.2643C32.8785 22.2329 32.9264 22.2836 32.8926 22.3152C31.0791 23.9992 29.6926 26.055 28.3974 28.9815C28.3896 28.999 28.3688 29.0071 28.3515 28.9992Z" fill="#DEDFFB"/>
<path d="M27.7558 28.6543C27.7382 28.6465 27.73 28.6259 27.7378 28.6084C28.177 27.6169 28.6139 26.7492 29.0731 25.9557C29.0965 25.9166 29.1564 25.9508 29.1336 25.9907C28.6753 26.782 28.2395 27.6475 27.8017 28.6366C27.7939 28.6541 27.7731 28.6622 27.7558 28.6543Z" fill="#1D2943"/>
<path d="M27.142 28.2634C28.4416 25.3281 29.8329 23.2651 31.6535 21.5743C31.687 21.5429 31.7348 21.5936 31.7011 21.6253C29.8876 23.3094 28.501 25.3653 27.2059 28.2916C27.1869 28.3338 27.1236 28.3051 27.142 28.2634Z" fill="#DEDFFB"/>
<path d="M26.5466 27.9188C27.8455 24.9839 29.2368 22.9207 31.0578 21.2296C31.072 21.2165 31.0941 21.217 31.107 21.2315C31.1203 21.2456 31.1192 21.2675 31.1053 21.2806C29.2915 22.965 27.9052 25.0211 26.6104 27.947C26.5915 27.9893 26.5281 27.9606 26.5466 27.9188Z" fill="#DEDFFB"/>
<path d="M44.1709 27.9839L44.2303 27.9939L44.195 28.0826C41.8405 30.0731 40.3066 32.4643 38.8676 35.8945L38.7995 35.9509L38.7844 35.8811C40.2293 32.4338 41.7927 29.9949 44.1709 27.9839Z" fill="#D4DAEA"/>
<path d="M30.7317 32.6214C30.9821 32.3384 31.4065 32.3027 31.8878 32.5807C32.6585 33.0263 33.2813 34.1043 33.2781 34.9889C33.2764 35.5661 33.0098 35.919 32.6114 35.9694C33.1382 36.145 34.0164 35.7192 34.4927 35.4214C34.496 35.4198 34.4976 35.4182 34.4992 35.4165L34.5009 35.4133C35.4093 34.6499 34.5847 32.2875 33.1854 31.4799C32.6553 31.1742 32.1805 31.1807 31.8699 31.4376C31.8699 31.4376 30.9756 32.062 30.7366 32.6084C30.7349 32.6132 30.7333 32.6165 30.7317 32.6214Z" fill="#BF7D5A"/>
<path d="M27.7498 34.2654C28.0076 34.1154 28.3648 34.1373 28.7591 34.3648C30.0205 35.0929 30.6451 37.214 29.7601 37.7265L32.8656 35.9218C33.7686 35.3955 33.1031 33.2759 31.863 32.5601C31.4704 32.3326 31.1131 32.3124 30.8536 32.4624L27.7498 34.2654Z" fill="#FFB961"/>
<path d="M28.7864 33.6632C29.0442 33.5133 29.4014 33.5352 29.7957 33.7626C31.0571 34.4908 31.6817 36.6119 30.7967 37.1243L31.8292 36.5238C32.7322 35.9976 32.0667 33.878 30.8266 33.1621C30.434 32.9347 30.0767 32.9144 29.8172 33.0644L28.7864 33.6632Z" fill="#4C5C75"/>
<path d="M26.7224 34.4572L26.7273 34.4588C27.007 34.3856 27.3501 34.4474 27.7208 34.6621C29.0853 35.4495 29.9049 37.7119 29.0964 38.5402C29.542 38.28 29.9338 37.8231 30.1322 37.3385L30.1306 37.3369C30.5543 36.5154 29.8734 34.925 28.8672 34.3434C28.6346 34.21 28.4151 34.1482 28.2232 34.1547V34.1531C27.6655 34.1303 27.1322 34.2523 26.7224 34.4572Z" fill="#BF7D5A"/>
<path d="M27.7214 34.6614C26.7839 34.1202 26.0219 34.5553 26.0188 35.6325C26.0158 36.7097 26.7729 38.0211 27.7104 38.5624C28.6486 39.1041 29.4106 38.6698 29.4137 37.5925C29.4167 36.5153 28.6596 35.2031 27.7214 34.6614Z" fill="#DBA660"/>
<path d="M27.7196 35.3703C27.1228 35.0258 26.6377 35.3027 26.6357 35.9885C26.6338 36.6742 27.1158 37.5091 27.7126 37.8536C28.3098 38.1984 28.7949 37.922 28.7969 37.2362C28.7988 36.5505 28.3169 35.7151 27.7196 35.3703Z" fill="#BF7D5A"/>
<path d="M38.6174 41.0641C38.563 41.017 38.4759 41.0066 38.3728 41.0432C38.0566 41.1554 37.7905 41.6331 37.9862 41.8027L31.5986 36.3459C31.5442 36.2989 31.5205 36.2166 31.5399 36.1108C31.6021 35.7734 32.0365 35.442 32.2294 35.6091L38.6174 41.0641Z" fill="#DBA660"/>
<path d="M42.8884 44.4851C42.8148 44.4225 42.7001 44.4079 42.5608 44.457C42.2834 44.5556 42.0167 44.8689 41.9636 45.1571C41.9387 45.2996 41.97 45.4098 42.0425 45.4709L37.1219 41.2563C37.0495 41.1939 37.017 41.0834 37.0432 40.9412C37.1244 40.4889 37.7061 40.0474 37.9667 40.269L42.8884 44.4851Z" fill="#4C5C75"/>
<path d="M42.5605 44.4575C42.8372 44.3591 43.0194 44.5126 42.9671 44.8008C42.915 45.0884 42.6483 45.4014 42.3716 45.4997C42.095 45.598 41.9121 45.4448 41.9642 45.1573C42.0164 44.8691 42.2838 44.5558 42.5605 44.4575Z" fill="#1D2943"/>
<path d="M48.1166 39.6168L48.1156 39.8855C48.1139 40.4794 47.7235 41.0725 46.9436 41.5258C45.3743 42.4378 42.8207 42.4378 41.2411 41.5258C40.4459 41.0667 40.0488 40.4641 40.0505 39.8625L40.0516 39.5938C40.0499 40.1954 40.4469 40.7979 41.2421 41.257C42.8217 42.169 45.3753 42.169 46.9446 41.257C47.7246 40.8038 48.1149 40.2107 48.1166 39.6168Z" fill="#AA6256"/>
<path d="M46.9263 37.9538C48.5059 38.8658 48.5145 40.3447 46.9446 41.2571C45.3752 42.1691 42.8217 42.1691 41.242 41.2571C39.6619 40.3448 39.6538 38.8658 41.2232 37.9538C42.7931 37.0415 45.3461 37.0414 46.9263 37.9538Z" fill="#BF7D5A"/>
<path d="M47.8124 39.0994L47.8115 39.432C47.8099 39.9812 47.449 40.5295 46.7279 40.9486C45.2768 41.7919 42.9158 41.7919 41.4553 40.9486C40.7201 40.5242 40.3529 39.967 40.3545 39.4108L40.3554 39.0781C40.3539 39.6344 40.721 40.1915 41.4562 40.616C42.9167 41.4592 45.2778 41.4592 46.7288 40.616C47.4499 40.1969 47.8108 39.6486 47.8124 39.0994Z" fill="#FFB961"/>
<path d="M46.7288 40.6162C46.1335 40.9622 45.3846 41.1637 44.6079 41.2258V41.5584C45.3842 41.4962 46.1328 41.2946 46.7279 40.9488C47.449 40.5298 47.8099 39.9814 47.8114 39.4322L47.8124 39.0996C47.8108 39.6488 47.4499 40.1971 46.7288 40.6162Z" fill="#F3A250"/>
<path d="M46.7119 37.5618C48.1725 38.4051 48.1804 39.7725 46.7289 40.6161C45.2778 41.4593 42.9168 41.4594 41.4562 40.6161C39.9952 39.7726 39.9878 38.4051 41.4388 37.5619C42.8904 36.7183 45.2509 36.7183 46.7119 37.5618Z" fill="#F9CF6B"/>
<path d="M47.3539 38.4239L47.3522 39.0227C47.3509 39.5042 47.0344 39.985 46.402 40.3525C45.1295 41.092 43.0593 41.092 41.7786 40.3526C41.1338 39.9803 40.8119 39.4918 40.8132 39.004L40.8149 38.4053C40.8136 38.893 41.1355 39.3816 41.7803 39.7538C43.061 40.4933 45.1312 40.4933 46.4037 39.7538C47.0361 39.3863 47.3525 38.9055 47.3539 38.4239Z" fill="#BF7D5A"/>
<path d="M46.3889 37.0758C47.6696 37.8153 47.6766 39.0142 46.4037 39.754C45.1312 40.4935 43.061 40.4935 41.7803 39.754C40.499 39.0143 40.4925 37.8153 41.7649 37.0758C43.0379 36.3361 45.1076 36.3361 46.3889 37.0758Z" fill="#DBA660"/>
<path d="M45.2709 37.7256C45.9304 38.1063 45.934 38.7236 45.2786 39.1045C44.6234 39.4852 43.5576 39.4852 42.8981 39.1045C42.2384 38.7236 42.2351 38.1063 42.8902 37.7256C43.5456 37.3447 44.6112 37.3447 45.2709 37.7256Z" fill="#BF7D5A"/>
</svg>
