<svg width="34" height="26" viewBox="0 0 34 26" fill="none" xmlns="http://www.w3.org/2000/svg">
<path d="M24.9963 16.5684L10.498 8.14292L19.1957 3.12134L33.6939 11.5468L24.9963 16.5684Z" fill="#F45170"/>
<path d="M24.9143 16.6357L10.416 8.2103L10.4996 8.14282L24.9978 16.5683L24.9143 16.6357Z" fill="#F45170"/>
<path d="M23.6135 17.3816L9.11523 8.95611C9.62692 8.85332 10.0492 8.57977 10.4151 8.21045L24.9133 16.6359C24.5475 17.0052 24.1252 17.2788 23.6135 17.3816Z" fill="#E93565"/>
<path d="M14.8029 22.4538L0.304688 14.0284L9.11521 8.95605L23.6135 17.3815L14.8029 22.4538Z" fill="#F45170"/>
<path d="M14.8044 23.278L0.306199 14.8525L0.304688 14.0283L14.8029 22.4538L14.8044 23.278Z" fill="#CC104A"/>
<path d="M33.6943 11.5469L33.6958 12.3711L25.04 17.3685C24.802 17.6021 24.5514 17.7997 24.2964 17.9469C24.0415 18.0941 23.7738 18.1957 23.5061 18.2541L14.8042 23.2781L14.8027 22.4539L23.6133 17.3816C24.1249 17.2788 24.5472 17.0053 24.9131 16.6359L24.9967 16.5685L33.6943 11.5469Z" fill="#DF3260"/>
<path d="M1.76172 13.0634V14.4763C4.68299 12.5702 7.42483 10.8763 9.42741 10.0573C10.1135 9.79356 10.7566 9.50525 11.1405 9.06826L10.4096 8.46997C7.88651 8.75349 4.89967 10.6463 1.76172 13.0634Z" fill="white"/>
<path d="M18.9433 3.10181C16.1456 4.25827 13.2846 6.27352 10.4102 8.46993L11.1411 9.06821C13.7477 7.38894 16.3859 5.90333 19.0581 4.62617L18.9433 3.10181Z" fill="#F1F6FA"/>
<path d="M15.0174 20.7253L1.76172 13.0576V14.5525L15.0174 22.1382V20.7253Z" fill="#DEDFFB"/>
<path d="M23.7933 16.0334C21.2729 16.3149 18.1561 18.3051 15.0139 20.7272L1.75781 13.055L10.4119 8.47266L23.7933 16.0334Z" fill="white"/>
<path d="M32.1977 10.7636C29.4025 11.9223 26.6738 13.8339 23.7935 16.0334L10.4121 8.47266L18.9419 3.10474L32.1977 10.7636Z" fill="#F1F6FA"/>
<path d="M15.0176 20.7253V22.1382C17.9388 20.232 20.6807 18.5382 22.6833 17.7191C23.3693 17.4554 24.0125 17.167 24.3964 16.7301C27.003 15.0508 29.6196 13.2788 32.2918 12.0017L32.1986 10.7637C29.4009 11.9201 26.6687 13.837 23.7943 16.0335C21.2713 16.317 18.1555 18.3082 15.0176 20.7253Z" fill="#E9E7FC"/>
<path d="M23.9621 15.1105C23.9505 15.095 23.9536 15.0733 23.9692 15.0617C26.0076 13.5315 28.4325 11.8119 30.9614 10.6604C31.0003 10.6401 31.0336 10.7042 30.9899 10.7236C28.4675 11.8725 26.0463 13.5894 24.0106 15.1174C23.9951 15.1291 23.9733 15.1256 23.9621 15.1105Z" fill="#4F575F"/>
<path d="M14.5731 19.4247C15.7874 18.5168 16.8597 17.7868 17.8513 17.1931C17.8913 17.1698 17.9264 17.2292 17.8873 17.2528C16.8978 17.8452 15.8271 18.5738 14.6145 19.4804C14.5786 19.5083 14.5356 19.4524 14.5731 19.4247Z" fill="#DEDFFB"/>
<path d="M23.3719 14.717C25.4106 13.1866 27.8359 11.4668 30.3641 10.3157C30.4014 10.2946 30.4371 10.3592 30.3926 10.3789C27.8709 11.5273 25.4493 13.2445 23.4133 14.7727C23.3764 14.8004 23.3348 14.7444 23.3719 14.717Z" fill="#DEDFFB"/>
<path d="M13.9774 19.0797C14.9549 18.3491 15.832 17.7393 16.6591 17.2159C16.6981 17.1911 16.7355 17.2503 16.6964 17.2747C15.8707 17.7971 14.995 18.4058 14.0188 19.1354C13.9829 19.1633 13.9399 19.1074 13.9774 19.0797Z" fill="#DEDFFB"/>
<path d="M22.7762 14.3719C24.8152 12.8415 27.2405 11.1218 29.7684 9.97079C29.785 9.96196 29.8064 9.97062 29.8142 9.98794C29.8224 10.0054 29.8146 10.0262 29.7969 10.034C27.2755 11.1822 24.854 12.8993 22.8176 14.4276C22.7807 14.4553 22.7391 14.3993 22.7762 14.3719Z" fill="#DEDFFB"/>
<path d="M13.3817 18.735C14.9499 17.5625 16.3039 16.672 17.5199 16.0124C17.5608 15.9907 17.5935 16.0518 17.5532 16.0735C16.3399 16.7315 14.989 17.6202 13.4231 18.7908C13.3872 18.8186 13.3442 18.7627 13.3817 18.735Z" fill="#4F575F"/>
<path d="M22.1805 14.0273C24.2189 12.497 26.6438 10.7774 29.1727 9.62594C29.189 9.61745 29.2107 9.6256 29.2185 9.64309C29.2267 9.66059 29.2189 9.68131 29.2012 9.68912C26.6788 10.8381 24.2576 12.5549 22.2219 14.083C22.185 14.1107 22.1434 14.0546 22.1805 14.0273Z" fill="#4F575F"/>
<path d="M12.786 18.3902C15.6973 16.2139 17.9181 14.9697 19.7754 14.4745C19.8195 14.463 19.838 14.5299 19.7931 14.5417C17.9449 15.0346 15.7316 16.2752 12.8274 18.4459C12.7915 18.4738 12.7485 18.4179 12.786 18.3902Z" fill="#DEDFFB"/>
<path d="M21.5848 13.6824C23.6231 12.1522 26.0481 10.4326 28.577 9.28111C28.5929 9.27279 28.6147 9.28094 28.6228 9.29827C28.631 9.31576 28.6231 9.33648 28.6055 9.34429C26.0831 10.4932 23.6619 12.2101 21.6262 13.7381C21.5893 13.7658 21.5477 13.7098 21.5848 13.6824Z" fill="#DEDFFB"/>
<path d="M12.1903 18.0454C15.1016 15.8691 17.3227 14.6248 19.1801 14.1296C19.2219 14.1165 19.244 14.1846 19.1977 14.1968C17.3496 14.6897 15.1359 15.9304 12.2317 18.1011C12.1958 18.129 12.1528 18.073 12.1903 18.0454Z" fill="#DEDFFB"/>
<path d="M20.991 13.3377C23.0294 11.8075 25.4543 10.0877 27.9829 8.9364C28.021 8.91578 28.0556 8.98006 28.0114 8.99958C25.489 10.1484 23.0681 11.8652 21.0325 13.3934C20.9956 13.4211 20.954 13.3651 20.991 13.3377Z" fill="#DEDFFB"/>
<path d="M11.5945 17.7005C14.5059 15.5244 16.727 14.2802 18.5844 13.7849C18.6278 13.7728 18.6474 13.8402 18.602 13.8522C16.7539 14.345 14.5402 15.5855 11.636 17.7562C11.6001 17.7841 11.5571 17.7282 11.5945 17.7005Z" fill="#DEDFFB"/>
<path d="M20.3953 12.9928C22.4334 11.4627 24.858 9.74314 27.3872 8.59165C27.4259 8.57109 27.4595 8.63544 27.4157 8.65483C24.8929 9.80378 22.4721 11.5207 20.4368 13.0485C20.3999 13.0762 20.3583 13.0202 20.3953 12.9928Z" fill="#DEDFFB"/>
<path d="M10.9914 17.4043C10.9798 17.3888 10.9829 17.3671 10.9985 17.3555C12.1829 16.47 13.2315 15.7545 14.2043 15.1677C14.2428 15.1437 14.2803 15.203 14.2403 15.2271C13.2695 15.8127 12.2227 16.5273 11.0399 17.4113C11.0254 17.4226 11.0032 17.42 10.9914 17.4043Z" fill="#1D2943"/>
<path d="M19.82 12.7105C19.8095 12.7105 19.7989 12.7058 19.7921 12.6966C19.7806 12.6813 19.7836 12.6594 19.7993 12.6479C21.8373 11.1178 24.2619 9.39837 26.7911 8.24654C26.8306 8.22641 26.863 8.29054 26.8196 8.30972C24.2969 9.45884 21.876 11.1757 19.8407 12.7036C19.8346 12.7082 19.8271 12.7105 19.82 12.7105Z" fill="#DEDFFB"/>
<path d="M10.4031 17.0109C13.3145 14.8346 15.5356 13.5903 17.393 13.0951C17.4352 13.0823 17.4567 13.1502 17.4106 13.1624C15.5624 13.6552 13.3488 14.8959 10.4446 17.0666C10.4087 17.0945 10.3657 17.0386 10.4031 17.0109Z" fill="#DEDFFB"/>
<path d="M19.2243 12.3659C19.2138 12.3659 19.2032 12.3612 19.1964 12.352C19.1849 12.3367 19.1879 12.3148 19.2036 12.3033C21.2416 10.7732 23.6662 9.05377 26.1954 7.90194C26.2117 7.89311 26.2331 7.90177 26.2413 7.91909C26.3213 8.0908 24.7669 8.21386 19.245 12.359C19.2389 12.3636 19.2314 12.3659 19.2243 12.3659Z" fill="#DEDFFB"/>
<path d="M9.80744 16.6663C12.7188 14.49 14.9399 13.2458 16.7972 12.7506C16.8142 12.746 16.835 12.7567 16.8397 12.7752C16.8959 12.9812 15.2504 12.6848 9.84888 16.722C9.81301 16.7499 9.76997 16.694 9.80744 16.6663Z" fill="#DEDFFB"/>
<path d="M18.6286 12.0212C18.6181 12.0212 18.6075 12.0165 18.6007 12.0073C18.5892 11.992 18.5922 11.9701 18.6079 11.9585C20.6462 10.4281 23.0712 8.70854 25.6001 7.55721C25.6164 7.54838 25.6381 7.55704 25.6459 7.57437C25.7291 7.75288 24.2136 7.83711 18.6493 12.0142C18.6432 12.0188 18.6357 12.0212 18.6286 12.0212Z" fill="#DEDFFB"/>
<path d="M9.21173 16.3213C10.8884 15.0682 12.3245 14.1336 13.6027 13.4639C13.6207 13.4546 13.6407 13.4614 13.6499 13.4785C13.6587 13.4955 13.6523 13.5166 13.6353 13.5254C12.3602 14.1935 10.9267 15.1263 9.25317 16.377C9.21731 16.4049 9.17427 16.349 9.21173 16.3213Z" fill="#78E75A"/>
<path d="M18.0329 11.6762C18.0224 11.6762 18.0118 11.6714 18.005 11.6623C17.9935 11.647 17.9965 11.6251 18.0122 11.6135C20.0499 10.0836 22.4745 8.36438 25.0043 7.21221C25.0435 7.19179 25.0764 7.25613 25.0329 7.27539C22.5091 8.42484 20.0886 10.1416 18.0536 11.6692C18.0475 11.6738 18.04 11.6762 18.0329 11.6762Z" fill="#DEDFFB"/>
<path d="M8.61408 15.9764C11.5251 13.8005 13.7462 12.5561 15.6039 12.0607C15.6202 12.0559 15.6416 12.0668 15.6463 12.0853C15.6514 12.104 15.6402 12.123 15.6216 12.1279C13.773 12.621 11.5594 13.8616 8.65552 16.0322C8.61965 16.0601 8.57661 16.0041 8.61408 15.9764Z" fill="#DEDFFB"/>
<path d="M17.4352 11.3313C17.4247 11.3313 17.4142 11.3266 17.4074 11.3174C17.3958 11.3021 17.3989 11.2802 17.4145 11.2687C19.4522 9.73878 21.8768 8.01952 24.4067 6.86734C24.4233 6.85834 24.4444 6.86717 24.4525 6.8845C24.4607 6.90199 24.4529 6.92271 24.4352 6.93052C21.9114 8.07998 19.4909 9.79669 17.4559 11.3244C17.4498 11.329 17.4424 11.3313 17.4352 11.3313Z" fill="#DEDFFB"/>
<path d="M8.02033 15.6317C8.7007 15.1227 9.35355 14.6582 9.96055 14.2514C9.99696 14.2255 10.0384 14.2829 9.99927 14.3092C9.39329 14.7154 8.74146 15.1791 8.06177 15.6874C8.0259 15.7153 7.98286 15.6594 8.02033 15.6317Z" fill="#4F575F"/>
<path d="M16.8136 10.9727C16.8021 10.9574 16.8051 10.9355 16.8208 10.9239C18.8585 9.39402 21.2831 7.67476 23.8129 6.52258C23.851 6.50196 23.8856 6.56624 23.8415 6.58576C21.3177 7.73522 18.8972 9.45193 16.8622 10.9796C16.8467 10.9913 16.8249 10.9878 16.8136 10.9727Z" fill="#4F575F"/>
<path d="M7.42463 15.2869C10.3353 13.1107 12.5564 11.8665 14.4141 11.3711C14.4307 11.366 14.4515 11.3772 14.4566 11.3957C14.4617 11.4144 14.4504 11.4334 14.4318 11.4384C12.5833 11.9312 10.3696 13.1719 7.46607 15.3426C7.4302 15.3705 7.38716 15.3146 7.42463 15.2869Z" fill="#DEDFFB"/>
<path d="M16.2179 10.6279C16.2064 10.6126 16.2094 10.5907 16.2251 10.5792C18.2631 9.04909 20.6877 7.3295 23.2172 6.17783C23.2559 6.15727 23.2896 6.22162 23.2458 6.24101C20.7227 7.39013 18.3018 9.10684 16.2665 10.6349C16.251 10.6465 16.2292 10.6431 16.2179 10.6279Z" fill="#DEDFFB"/>
<path d="M6.82895 14.9419C9.73995 12.7657 11.9607 11.5215 13.8184 11.0263C13.8347 11.0215 13.8561 11.0324 13.8609 11.0509C13.866 11.0696 13.8548 11.0886 13.8361 11.0935C11.9876 11.5864 9.77426 12.8269 6.87039 14.9976C6.83501 15.0251 6.79124 14.9697 6.82895 14.9419Z" fill="#DEDFFB"/>
<path d="M15.6277 10.2343C17.6655 8.70436 20.09 6.9851 22.6199 5.83293C22.6583 5.81217 22.6925 5.87664 22.6485 5.8961C20.1247 7.04556 17.7042 8.76227 15.6692 10.29C15.6323 10.3176 15.5907 10.2617 15.6277 10.2343Z" fill="#DEDFFB"/>
<path d="M6.23127 14.5972C8.65484 12.7852 10.6382 11.6023 12.2944 10.9805C12.3124 10.9737 12.3321 10.9829 12.3393 11.0009C12.3461 11.0189 12.3369 11.0389 12.3189 11.0457C10.6688 11.6651 8.69118 12.845 6.27271 14.6529C6.23684 14.6808 6.1938 14.6249 6.23127 14.5972Z" fill="#F45170"/>
<path d="M15.0246 9.93823C15.013 9.92294 15.0161 9.90103 15.0317 9.88949C17.0694 8.35959 19.494 6.64033 22.0239 5.48816C22.062 5.46754 22.0966 5.53181 22.0524 5.55134C19.5286 6.7008 17.1081 8.41751 15.0731 9.94519C15.0576 9.95684 15.0358 9.9534 15.0246 9.93823Z" fill="#DEDFFB"/>
<path d="M5.63556 14.2524C8.54623 12.0763 10.767 10.832 12.625 10.3366C12.6417 10.3317 12.6624 10.3427 12.6675 10.3612C12.6726 10.3799 12.6614 10.399 12.6427 10.4039C10.7939 10.8969 8.58054 12.1376 5.677 14.3081C5.64113 14.336 5.5981 14.2801 5.63556 14.2524Z" fill="#DEDFFB"/>
<path d="M14.4289 9.59339C14.4173 9.5781 14.4204 9.55619 14.436 9.54465C16.474 8.01458 18.8986 6.29499 21.4282 5.14332C21.4441 5.13466 21.4662 5.14315 21.474 5.16047C21.4822 5.17797 21.4744 5.19869 21.4567 5.2065C18.9336 6.35562 16.5128 8.07233 14.4774 9.60035C14.4619 9.612 14.4401 9.60856 14.4289 9.59339Z" fill="#DEDFFB"/>
<path d="M5.03986 13.9077C6.78816 12.6006 8.27967 11.6373 9.59896 10.963C9.61561 10.9539 9.63735 10.9608 9.64584 10.9782C9.65467 10.9953 9.64788 11.0162 9.63089 11.0249C8.315 11.6974 6.82688 12.6587 5.0813 13.9634C5.04543 13.9913 5.00239 13.9354 5.03986 13.9077Z" fill="#4F575F"/>
<path d="M13.8332 9.24862C13.8216 9.23333 13.8247 9.21142 13.8403 9.19987C15.8783 7.66981 18.3029 5.95021 20.8325 4.79855C20.8491 4.79006 20.8702 4.79821 20.8783 4.8157C20.8865 4.83319 20.8787 4.85392 20.861 4.86173C18.3379 6.01084 15.9171 7.72756 13.8817 9.25558C13.8662 9.26723 13.8444 9.26379 13.8332 9.24862Z" fill="#4F575F"/>
<path d="M4.44416 13.5628C7.35516 11.3868 9.57595 10.1426 11.4336 9.64716C11.4757 9.63412 11.4975 9.70223 11.4513 9.71442C9.60278 10.2075 7.38947 11.4479 4.4856 13.6185C4.44973 13.6464 4.40669 13.5904 4.44416 13.5628Z" fill="#DEDFFB"/>
<path d="M13.2653 8.91769C13.2548 8.91769 13.2442 8.91294 13.2374 8.90376C13.2259 8.88848 13.229 8.86657 13.2446 8.85502C15.2823 7.32513 17.7069 5.60587 20.2368 4.4537C20.2531 4.44487 20.2745 4.45353 20.2826 4.47085C20.2908 4.48834 20.283 4.50906 20.2653 4.51688C16.575 6.19761 13.4056 8.91769 13.2653 8.91769Z" fill="#DEDFFB"/>
<path d="M3.84292 13.2668C3.83137 13.2513 3.83443 13.2296 3.85005 13.218C6.76038 11.0422 8.9815 9.79801 10.8395 9.30225C10.8822 9.29005 10.903 9.35744 10.8572 9.36951C9.008 9.86271 6.79468 11.1034 3.89149 13.2737C3.87692 13.2851 3.85475 13.2824 3.84292 13.2668Z" fill="#DEDFFB"/>
<path d="M12.6492 8.51022C14.6876 6.97999 17.1125 5.26039 19.6414 4.1089C19.6574 4.10024 19.6795 4.10873 19.6873 4.12605C19.6954 4.14354 19.6876 4.16426 19.6699 4.17208C17.1475 5.32102 14.7263 7.03791 12.6907 8.56593C12.6537 8.59361 12.6122 8.5376 12.6492 8.51022Z" fill="#4F575F"/>
<path d="M12.0535 8.16552C14.0922 6.63512 16.5175 4.91535 19.0457 3.7642C19.0623 3.75554 19.0834 3.76386 19.0916 3.78135C19.0997 3.79884 19.0919 3.81956 19.0742 3.82738C16.5525 4.97581 14.131 6.69304 12.095 8.22123C12.058 8.24891 12.0165 8.1929 12.0535 8.16552Z" fill="#DEDFFB"/>
<path d="M23.8 16.0356L10.4221 8.47001L10.4082 8.40039L23.7861 15.9659L23.8 16.0356Z" fill="#F1F6FA"/>
<path d="M29.2306 8.08064L29.1703 8.07135C26.7935 10.0814 25.2298 12.5213 23.7861 15.9658L10.4082 8.40028C11.8519 4.95574 13.5646 2.39409 15.9414 0.384033L16.0018 0.393299L29.2306 8.08064Z" fill="#F1F6FA"/>
<path d="M22.8666 14.5565C24.1655 11.6216 25.5568 9.55857 27.3778 7.86751C27.412 7.83619 27.459 7.88686 27.4254 7.91846C25.6115 9.6029 24.2253 11.6588 22.9305 14.5847C22.9116 14.627 22.8481 14.5983 22.8666 14.5565Z" fill="#DEDFFB"/>
<path d="M22.2709 14.2117C22.702 13.2382 23.131 12.3832 23.5834 11.5983C23.6065 11.5583 23.6666 11.5932 23.6439 11.6329C23.1928 12.4158 22.7645 13.2686 22.3348 14.2399C22.3159 14.2821 22.2524 14.2535 22.2709 14.2117Z" fill="#1D2943"/>
<path d="M23.5296 10.3631C24.3125 9.15203 25.1814 8.11026 26.1848 7.17802C26.2189 7.14677 26.2659 7.19744 26.2324 7.22897C25.2327 8.1573 24.3679 9.19483 23.588 10.4008C23.5626 10.4395 23.5045 10.4016 23.5296 10.3631Z" fill="#DEDFFB"/>
<path d="M22.255 11.1496C23.2261 9.41612 24.2859 8.04452 25.5902 6.83307C25.6042 6.82 25.6262 6.82067 25.6395 6.83494C25.6527 6.84904 25.6517 6.87095 25.6378 6.88402C24.3385 8.09038 23.2832 9.45654 22.3154 11.1836C22.2939 11.2238 22.2322 11.19 22.255 11.1496Z" fill="#DEDFFB"/>
<path d="M22.2176 11.215C23.1976 9.45196 24.2689 8.05964 25.5896 6.83307C25.6035 6.82 25.6256 6.82067 25.6388 6.83494C25.6521 6.84887 25.6511 6.87095 25.6371 6.88402C24.3219 8.10549 23.2547 9.49238 22.2788 11.2487C22.2562 11.2891 22.1956 11.2551 22.2176 11.215Z" fill="#DEDFFB"/>
<path d="M20.4819 13.1772C21.4384 11.0159 22.4278 9.35845 23.595 7.9612C23.6075 7.94643 23.6289 7.94456 23.6442 7.95679C23.6588 7.96901 23.6609 7.99092 23.6486 8.0057C22.4853 9.39802 21.4995 11.0502 20.5457 13.2054C20.5268 13.2477 20.4634 13.219 20.4819 13.1772Z" fill="#4F91FF"/>
<path d="M19.8862 12.8325C21.1854 9.89717 22.5767 7.83416 24.3977 6.14344C24.4116 6.13036 24.4337 6.13087 24.447 6.1453C24.4602 6.1594 24.4592 6.18131 24.4453 6.19439C22.6314 7.87832 21.2448 9.93437 19.95 12.8607C19.9311 12.9029 19.8677 12.8743 19.8862 12.8325Z" fill="#DEDFFB"/>
<path d="M19.324 12.5366C19.3192 12.5366 19.3145 12.5356 19.31 12.5335C19.2924 12.5259 19.2842 12.5053 19.292 12.4877C20.5909 9.55239 21.9826 7.48938 23.8036 5.79866C23.8377 5.76734 23.8848 5.81801 23.8511 5.84961C22.0369 7.53371 20.6507 9.58959 19.3559 12.5159C19.3501 12.5288 19.3372 12.5366 19.324 12.5366Z" fill="#DEDFFB"/>
<path d="M19.324 12.5366C19.3192 12.5366 19.3145 12.5356 19.31 12.5335C19.2924 12.5259 19.2842 12.5053 19.292 12.4877C20.5909 9.55239 21.9826 7.48938 23.8036 5.79866C23.8377 5.76734 23.8848 5.81801 23.8511 5.84961C22.0369 7.53371 20.6507 9.58959 19.3559 12.5159C19.3501 12.5288 19.3372 12.5366 19.324 12.5366Z" fill="#DEDFFB"/>
<path d="M18.7283 12.1918C18.7235 12.1918 18.7187 12.1908 18.7143 12.1888C18.6967 12.1811 18.6885 12.1606 18.6963 12.1429C19.9952 9.20781 21.3869 7.1448 23.2079 5.45374C23.2413 5.42232 23.2892 5.47302 23.2554 5.50469C21.4412 7.18896 20.055 9.24501 18.7602 12.1711C18.7544 12.184 18.7415 12.1918 18.7283 12.1918Z" fill="#DEDFFB"/>
<path d="M18.7283 12.1918C18.7235 12.1918 18.7187 12.1908 18.7143 12.1888C18.6967 12.1811 18.6885 12.1606 18.6963 12.1429C19.9952 9.20781 21.3869 7.1448 23.2079 5.45374C23.2413 5.42232 23.2892 5.47302 23.2554 5.50469C21.4412 7.18896 20.055 9.24501 18.7602 12.1711C18.7544 12.184 18.7415 12.1918 18.7283 12.1918Z" fill="#DEDFFB"/>
<path d="M18.1306 11.8471C18.1258 11.8471 18.1211 11.846 18.1167 11.844C18.099 11.8364 18.0909 11.8158 18.0987 11.7981C18.7848 10.2482 19.4907 8.95406 20.257 7.84163C20.2825 7.80373 20.3404 7.84277 20.314 7.88103C19.5504 8.98989 18.8466 10.2803 18.1625 11.8263C18.1568 11.8392 18.1438 11.8471 18.1306 11.8471Z" fill="#1D2943"/>
<path d="M17.5349 11.5022C17.5301 11.5022 17.5254 11.5012 17.521 11.4992C17.5033 11.4915 17.4952 11.471 17.503 11.4533C18.8022 8.51802 20.1935 6.45501 22.0145 4.76429C22.0288 4.75121 22.0509 4.75172 22.0638 4.76615C22.077 4.78025 22.076 4.80216 22.0621 4.81524C20.2482 6.49917 18.8617 8.55522 17.5668 11.4815C17.5611 11.4944 17.5481 11.5022 17.5349 11.5022Z" fill="#DEDFFB"/>
<path d="M16.9392 11.1575C16.9344 11.1575 16.9297 11.1565 16.9253 11.1544C16.9076 11.1468 16.8995 11.1263 16.9073 11.1086C18.2062 8.1733 19.5978 6.11029 21.4188 4.41956C21.4331 4.40648 21.4548 4.40699 21.4681 4.42143C21.4813 4.43552 21.4803 4.45743 21.4664 4.47051C19.6522 6.15461 18.266 8.21049 16.9711 11.1368C16.9654 11.1497 16.9524 11.1575 16.9392 11.1575Z" fill="#DEDFFB"/>
<path d="M16.9392 11.1575C16.9344 11.1575 16.9297 11.1565 16.9253 11.1544C16.9076 11.1468 16.8995 11.1263 16.9073 11.1086C18.2062 8.1733 19.5978 6.11029 21.4188 4.41956C21.4331 4.40648 21.4548 4.40699 21.4681 4.42143C21.4813 4.43552 21.4803 4.45743 21.4664 4.47051C19.6522 6.15461 18.266 8.21049 16.9711 11.1368C16.9654 11.1497 16.9524 11.1575 16.9392 11.1575Z" fill="#DEDFFB"/>
<path d="M16.3296 10.8095C16.3119 10.8019 16.3038 10.7813 16.3116 10.7637C17.2474 8.64886 18.211 7.0225 19.3442 5.6453C19.3561 5.63035 19.3785 5.62831 19.3931 5.64054C19.408 5.65277 19.4101 5.67468 19.3978 5.68945C18.2688 7.06174 17.3085 8.683 16.3754 10.7919C16.3676 10.8093 16.3468 10.8175 16.3296 10.8095Z" fill="#1D2943"/>
<path d="M15.7162 10.4189C17.0161 7.48292 18.4075 5.41991 20.2278 3.72986C20.2417 3.71678 20.2638 3.71729 20.277 3.73173C20.2903 3.74583 20.2892 3.76774 20.2753 3.78081C18.4621 5.46424 17.0756 7.52011 15.7801 10.4471C15.7612 10.4894 15.6978 10.4606 15.7162 10.4189Z" fill="#DEDFFB"/>
<path d="M15.7162 10.4189C17.0161 7.48292 18.4075 5.41991 20.2278 3.72986C20.2417 3.71678 20.2638 3.71729 20.277 3.73173C20.2903 3.74583 20.2892 3.76774 20.2753 3.78081C18.4621 5.46424 17.0756 7.52011 15.7801 10.4471C15.7612 10.4894 15.6978 10.4606 15.7162 10.4189Z" fill="#DEDFFB"/>
<path d="M15.1382 10.12C15.1205 10.1121 15.1123 10.0918 15.1202 10.0741C16.4197 7.1383 17.8114 5.07529 19.6317 3.38507C19.646 3.372 19.6681 3.37268 19.681 3.38694C19.6942 3.40104 19.6932 3.42295 19.6793 3.43603C17.8657 5.11962 16.4795 7.1755 15.184 10.1023C15.1762 10.1198 15.1554 10.1279 15.1382 10.12Z" fill="#DEDFFB"/>
<path d="M14.5425 9.77523C14.5248 9.76742 14.5166 9.74704 14.5245 9.72938C15.824 6.79358 17.2157 4.73057 19.036 3.04035C19.0499 3.02727 19.072 3.02795 19.0853 3.04222C19.0985 3.05631 19.0975 3.07822 19.0836 3.0913C17.27 4.77489 15.8838 6.83077 14.5883 9.75757C14.5805 9.77503 14.5597 9.78319 14.5425 9.77523Z" fill="#DEDFFB"/>
<path d="M14.5425 9.77523C14.5248 9.76742 14.5166 9.74704 14.5245 9.72938C15.824 6.79358 17.2157 4.73057 19.036 3.04035C19.0499 3.02727 19.072 3.02795 19.0853 3.04222C19.0985 3.05631 19.0975 3.07822 19.0836 3.0913C17.27 4.77489 15.8838 6.83077 14.5883 9.75757C14.5805 9.77503 14.5597 9.78319 14.5425 9.77523Z" fill="#DEDFFB"/>
<path d="M13.9468 9.43025C13.9291 9.42261 13.9209 9.40206 13.9288 9.3844C14.6614 7.729 15.4213 6.35807 16.2514 5.1935C16.2778 5.15634 16.3347 5.19647 16.3078 5.23392C15.4807 6.39459 14.7232 7.76144 13.9926 9.41259C13.9848 9.43006 13.964 9.43821 13.9468 9.43025Z" fill="#DEDFFB"/>
<path d="M13.3511 9.08535C13.3334 9.07754 13.3252 9.05716 13.333 9.03949C14.6326 6.10403 16.0239 4.04102 17.8446 2.35047C17.8781 2.31905 17.9259 2.36975 17.8922 2.40142C16.0786 4.08535 14.6921 6.14123 13.3969 9.06769C13.3891 9.08515 13.3683 9.0933 13.3511 9.08535Z" fill="#DEDFFB"/>
<path d="M13.3511 9.08535C13.3334 9.07754 13.3252 9.05716 13.333 9.03949C14.6326 6.10403 16.0239 4.04102 17.8446 2.35047C17.8781 2.31905 17.9259 2.36975 17.8922 2.40142C16.0786 4.08535 14.6921 6.14123 13.3969 9.06769C13.3891 9.08515 13.3683 9.0933 13.3511 9.08535Z" fill="#DEDFFB"/>
<path d="M12.7553 8.74071C12.7377 8.7329 12.7295 8.71235 12.7373 8.69485C13.1765 7.70335 13.6134 6.83565 14.0726 6.04217C14.096 6.00303 14.1559 6.03724 14.1331 6.07716C13.6748 6.86843 13.239 7.73392 12.8012 8.72305C12.7934 8.74051 12.7726 8.74866 12.7553 8.74071Z" fill="#1D2943"/>
<path d="M12.142 8.35004C13.4416 5.41475 14.8329 3.35174 16.6535 1.66101C16.687 1.6296 16.7348 1.68029 16.7011 1.71196C14.8876 3.39607 13.501 5.45194 12.2059 8.37823C12.1869 8.42051 12.1236 8.39173 12.142 8.35004Z" fill="#DEDFFB"/>
<path d="M11.5463 8.00524C12.8452 5.07029 14.2365 3.00711 16.0575 1.31604C16.0718 1.30297 16.0939 1.30348 16.1068 1.31791C16.12 1.33201 16.119 1.35392 16.1051 1.36699C14.2912 3.05144 12.905 5.10748 11.6102 8.03343C11.5913 8.07568 11.5278 8.04703 11.5463 8.00524Z" fill="#DEDFFB"/>
<path d="M29.1717 8.07031L29.2311 8.08037L29.1957 8.16901C26.8412 10.1595 25.3073 12.5507 23.8683 15.9809L23.8002 16.0373L23.7852 15.9675C25.2301 12.5202 26.7935 10.0813 29.1717 8.07031Z" fill="#D4DAEA"/>
<path d="M15.7324 12.708C15.9828 12.4251 16.4072 12.3893 16.8885 12.6674C17.6593 13.1129 18.2821 14.191 18.2788 15.0755C18.2772 15.6528 18.0105 16.0056 17.6121 16.056C18.1389 16.2317 19.0171 15.8058 19.4934 15.5081C19.4967 15.5064 19.4983 15.5048 19.5 15.5032L19.5016 15.4999C20.41 14.7366 19.5855 12.3742 18.1861 11.5666C17.656 11.2609 17.1812 11.2674 16.8706 11.5243C16.8706 11.5243 15.9763 12.1487 15.7373 12.695C15.7357 12.6999 15.734 12.7032 15.7324 12.708Z" fill="#BF7D5A"/>
<path d="M12.75 14.352C13.0078 14.2021 13.3651 14.224 13.7594 14.4515C15.0207 15.1796 15.6454 17.3007 14.7603 17.8131L17.8658 16.0084C18.7689 15.4822 18.1033 13.3626 16.8632 12.6468C16.4706 12.4193 16.1134 12.3991 15.8539 12.549L12.75 14.352Z" fill="#FFB961"/>
<path d="M13.7871 13.7499C14.0449 13.5999 14.4022 13.6218 14.7965 13.8493C16.0578 14.5774 16.6825 16.6986 15.7974 17.211L16.8299 16.6105C17.733 16.0842 17.0674 13.9647 15.8273 13.2488C15.4347 13.0213 15.0775 13.0011 14.818 13.1511L13.7871 13.7499Z" fill="#4C5C75"/>
<path d="M11.7227 14.5441L11.7275 14.5457C12.0072 14.4725 12.3503 14.5343 12.721 14.749C14.0855 15.5364 14.9052 17.7988 14.0967 18.6271C14.5422 18.3669 14.9341 17.91 15.1325 17.4254L15.1308 17.4238C15.5545 16.6023 14.8736 15.0119 13.8674 14.4303C13.6349 14.2969 13.4154 14.2351 13.2235 14.2416V14.24C12.6657 14.2173 12.1324 14.3392 11.7227 14.5441Z" fill="#BF7D5A"/>
<path d="M12.7221 14.7483C11.7847 14.2071 11.0226 14.6422 11.0195 15.7194C11.0165 16.7967 11.7736 18.1081 12.7111 18.6493C13.6493 19.191 14.4114 18.7567 14.4144 17.6795C14.4175 16.6022 13.6603 15.29 12.7221 14.7483Z" fill="#DBA660"/>
<path d="M12.7206 15.4572C12.1238 15.1127 11.6387 15.3897 11.6367 16.0754C11.6348 16.7612 12.1168 17.596 12.7135 17.9405C13.3108 18.2854 13.7959 18.0089 13.7979 17.3231C13.7998 16.6374 13.3178 15.802 12.7206 15.4572Z" fill="#BF7D5A"/>
<path d="M23.6174 21.1508C23.563 21.1037 23.4759 21.0932 23.3728 21.1299C23.0566 21.2421 22.7905 21.7198 22.9862 21.8894L16.5986 16.4326C16.5442 16.3855 16.5205 16.3033 16.5399 16.1974C16.6021 15.8601 17.0365 15.5287 17.2294 15.6958L23.6174 21.1508Z" fill="#DBA660"/>
<path d="M27.8894 24.5715C27.8158 24.509 27.7011 24.4943 27.5618 24.5434C27.2843 24.642 27.0177 24.9553 26.9646 25.2435C26.9397 25.386 26.9709 25.4962 27.0435 25.5573L22.1229 21.3427C22.0505 21.2803 22.0179 21.1699 22.0441 21.0276C22.1254 20.5754 22.707 20.1339 22.9677 20.3554L27.8894 24.5715Z" fill="#4C5C75"/>
<path d="M27.5622 24.5437C27.8389 24.4453 28.0211 24.5988 27.9688 24.887C27.9167 25.1745 27.65 25.4875 27.3733 25.5859C27.0967 25.6842 26.9138 25.531 26.9659 25.2435C27.0181 24.9552 27.2855 24.642 27.5622 24.5437Z" fill="#1D2943"/>
<path d="M33.1168 19.7039L33.1158 19.9727C33.1141 20.5666 32.7238 21.1597 31.9439 21.6129C30.3745 22.5249 27.8209 22.5249 26.2413 21.6129C25.4461 21.1539 25.0491 20.5513 25.0508 19.9497L25.0518 19.6809C25.0501 20.2825 25.4472 20.8851 26.2423 21.3442C27.822 22.2562 30.3755 22.2562 31.9449 21.3442C32.7248 20.8909 33.1151 20.2979 33.1168 19.7039Z" fill="#AA6256"/>
<path d="M31.9275 18.0409C33.5071 18.9529 33.5157 20.4319 31.9458 21.3442C30.3765 22.2562 27.8229 22.2562 26.2433 21.3442C24.6631 20.4319 24.655 18.953 26.2244 18.0409C27.7943 17.1286 30.3473 17.1286 31.9275 18.0409Z" fill="#BF7D5A"/>
<path d="M32.8134 19.1863L32.8124 19.5189C32.8109 20.0681 32.45 20.6165 31.7289 21.0355C30.2778 21.8788 27.9168 21.8788 26.4562 21.0356C25.721 20.6111 25.3539 20.0539 25.3555 19.4977L25.3564 19.165C25.3548 19.7213 25.722 20.2784 26.4572 20.7029C27.9177 21.5462 30.2788 21.5461 31.7298 20.7029C32.4509 20.2838 32.8118 19.7355 32.8134 19.1863Z" fill="#FFB961"/>
<path d="M31.7303 20.7031C31.135 21.0491 30.386 21.2507 29.6094 21.3128V21.6453C30.3857 21.5831 31.1343 21.3816 31.7293 21.0357C32.4505 20.6167 32.8113 20.0683 32.8129 19.5192L32.8139 19.1865C32.8123 19.7357 32.4514 20.284 31.7303 20.7031Z" fill="#F3A250"/>
<path d="M31.7119 17.6488C33.1725 18.492 33.1804 19.8594 31.7289 20.703C30.2778 21.5463 27.9168 21.5463 26.4562 20.703C24.9952 19.8595 24.9878 18.492 26.4388 17.6488C27.8904 16.8052 30.2509 16.8052 31.7119 17.6488Z" fill="#F9CF6B"/>
<path d="M32.3532 18.5111L32.3515 19.1098C32.3501 19.5913 32.0336 20.0722 31.4012 20.4397C30.1288 21.1792 28.0586 21.1792 26.7778 20.4397C26.1331 20.0675 25.8111 19.5789 25.8125 19.0912L25.8142 18.4924C25.8128 18.9802 26.1348 19.4687 26.7795 19.841C28.0603 20.5804 30.1305 20.5804 31.4029 19.841C32.0353 19.4735 32.3518 18.9926 32.3532 18.5111Z" fill="#BF7D5A"/>
<path d="M31.3884 17.1627C32.6691 17.9022 32.6761 19.1011 31.4032 19.8409C30.1307 20.5804 28.0605 20.5804 26.7798 19.8409C25.4985 19.1012 25.492 17.9022 26.7645 17.1627C28.0374 16.423 30.1071 16.423 31.3884 17.1627Z" fill="#DBA660"/>
<path d="M30.2702 17.8123C30.9296 18.193 30.9332 18.8103 30.2778 19.1912C29.6227 19.5719 28.5568 19.5719 27.8974 19.1912C27.2377 18.8103 27.2344 18.193 27.8895 17.8123C28.5449 17.4314 29.6105 17.4314 30.2702 17.8123Z" fill="#BF7D5A"/>
</svg>
