<svg width="34" height="28" viewBox="0 0 34 28" fill="none" xmlns="http://www.w3.org/2000/svg">
<path d="M33.6964 15.8591L33.6943 16.6092L15.3555 27.2665L15.3576 26.5165L33.6964 15.8591Z" fill="#DEDFFB"/>
<path d="M15.3572 26.5165L15.3551 27.2666L0.304688 18.5772L0.306814 17.8271L15.3572 26.5165Z" fill="#D3D5F2"/>
<path d="M33.6958 15.8591L15.357 26.5165L0.306641 17.8271L18.6454 7.1698L33.6958 15.8591Z" fill="#E9E7FC"/>
<path d="M33.5262 12.1128L33.5237 12.9879L19.0039 27.5315L19.0064 26.6564L33.5262 12.1128Z" fill="#DEDFFB"/>
<path d="M19.0064 26.6564L19.0039 27.5315L0.628906 21.3538L0.631387 20.4788L19.0064 26.6564Z" fill="#D3D5F2"/>
<path d="M33.5257 12.1128L19.0059 26.6564L0.630859 20.4788L15.1517 5.93457L33.5257 12.1128Z" fill="#F3F1FC"/>
<path d="M13.6582 22.2843L19.8183 16.1145L24.5072 17.6915L18.3485 23.8608L13.6582 22.2843Z" fill="#E9E7FC"/>
<path d="M30.4198 11.8043L17.157 7.34448L14.4863 10.0195L27.7498 14.4787L30.4198 11.8043Z" fill="#4C5C75"/>
<path d="M26.9652 15.2654L13.7025 10.8055L13.1055 11.4035L26.3689 15.8627L26.9652 15.2654Z" fill="#E9E7FC"/>
<path d="M25.773 16.46L12.5102 12.0001L12.2598 12.251L25.5232 16.7101L25.773 16.46Z" fill="#E9E7FC"/>
<path d="M24.2265 11.1424C24.1658 11.2113 24.0666 11.174 24.0043 11.1614C23.7727 11.0989 23.5116 11.0999 23.3416 11.2717L22.9339 11.6842C22.8727 11.7466 22.7693 11.7367 22.7033 11.6986C22.6581 11.6725 22.6583 11.6379 22.6923 11.6032C23.4214 10.8797 23.3923 10.865 23.4771 10.8505C23.5561 10.8362 23.7109 10.8908 23.6279 10.9701L23.5381 11.0611C23.7382 10.9762 23.9734 10.99 24.18 11.0549C24.2353 11.0694 24.2643 11.0971 24.2265 11.1424Z" fill="white"/>
<path d="M27.727 12.259C28.0327 12.3619 28.1003 12.3785 28.1355 12.3989C28.1481 12.4062 28.157 12.414 28.1624 12.4226C28.1709 12.4373 28.1663 12.453 28.1495 12.4704C28.1337 12.4873 28.1102 12.4976 28.083 12.5014C28.0154 12.5108 27.9848 12.4826 27.6207 12.3666L27.2046 12.7872C27.1076 12.8848 27.09 12.9734 27.2078 13.0414C27.2598 13.0714 27.3515 13.1032 27.4119 13.1106C27.4959 13.122 27.5551 13.1365 27.4969 13.1975C27.4668 13.2267 27.426 13.2444 27.3761 13.2394C27.1729 13.211 26.8199 13.1068 26.845 12.9046C26.8657 12.7596 27.0287 12.6616 27.3819 12.2873L27.1846 12.221C27.0502 12.1778 27.1444 12.0663 27.2909 12.1134L27.4883 12.1797C27.6729 12.0041 27.6859 11.9531 27.7666 11.9427C27.7994 11.9378 27.836 11.9416 27.8726 11.9541C28.0388 12.0109 27.8905 12.0845 27.727 12.259Z" fill="white"/>
<path d="M27.0248 12.1161C27.0745 12.1756 26.9681 12.2252 26.8808 12.2042C26.8114 12.185 26.8362 12.1382 26.7076 12.0639C26.1807 11.7597 25.6203 12.182 25.6934 12.4395C25.7235 12.5456 25.8482 12.6057 25.9535 12.6405C26.0735 12.6806 26.1981 12.6905 26.3243 12.6824C26.4721 12.6717 26.481 12.7975 26.3344 12.8063C26.0607 12.8322 25.6782 12.7483 25.5102 12.5699C25.2353 12.2857 25.6374 11.9053 26.0549 11.8324C26.1524 11.8161 26.2537 11.8118 26.3589 11.8216C26.5721 11.8405 26.9104 11.9346 27.0248 12.1161Z" fill="white"/>
<path d="M24.7719 12.3667C24.7261 12.3772 24.6707 12.3631 24.6357 12.343C24.5488 12.2928 24.653 12.2306 24.7108 12.1657C24.561 12.2329 24.3314 12.2504 24.1085 12.1754C23.6522 12.0232 23.7213 11.7015 24.0689 11.6315C24.3358 11.5809 24.7868 11.7433 25.0388 11.8261C25.0672 11.791 25.2028 11.688 25.1682 11.5956C25.1437 11.5315 25.0387 11.4902 24.9733 11.469C24.8156 11.4153 24.6513 11.3964 24.485 11.3918C24.3136 11.3866 24.3573 11.2573 24.5134 11.263C24.7567 11.2713 25.1707 11.3336 25.3544 11.495C25.4871 11.6086 25.4326 11.7363 25.3095 11.8613C24.8411 12.3231 24.8532 12.351 24.7719 12.3667ZM24.7197 12.0798C24.7908 12.0537 24.8497 12.0162 24.8982 11.9673L24.9491 11.9162C24.776 11.8584 24.4126 11.7278 24.2347 11.7532C24.0434 11.7804 23.9347 11.9775 24.2497 12.0847C24.4102 12.1377 24.578 12.1317 24.7197 12.0798Z" fill="white"/>
<path d="M21.7356 10.2897C21.7875 10.3392 21.8075 10.3941 21.7976 10.4544C21.7707 10.6042 21.6012 10.7113 21.2205 11.1136C21.1972 11.1359 21.1701 11.1505 21.1373 11.1554C21.0531 11.1707 20.8989 11.1172 20.9808 11.0337C21.3398 10.6489 21.5558 10.5169 21.5148 10.3897C21.4633 10.23 20.911 10.0898 20.6318 10.3685L20.2242 10.781C20.1611 10.8451 20.0613 10.8348 19.9928 10.7953C19.8952 10.7389 19.9935 10.7062 20.6888 9.99084C20.7731 9.90488 20.9199 9.96257 20.9422 10.0061C20.9615 10.0491 20.8987 10.0839 20.8384 10.1521C21.1686 10.0307 21.5907 10.1555 21.7356 10.2897Z" fill="white"/>
<path d="M22.9117 10.3047C22.927 10.3135 22.9373 10.3236 22.9424 10.3349C22.9509 10.3539 22.9444 10.374 22.9221 10.3968L22.7271 10.593C23.0293 10.6947 23.1023 10.7133 23.1371 10.7334C23.1696 10.7521 23.1769 10.7758 23.1505 10.8038C23.0688 10.8884 22.9386 10.7945 22.6217 10.7001C22.2751 11.0716 22.0953 11.1741 22.1296 11.2924C22.1384 11.3227 22.1645 11.3504 22.2078 11.3754C22.3284 11.445 22.4269 11.4403 22.4852 11.4598C22.5541 11.4769 22.5088 11.5392 22.4473 11.5647C22.4029 11.5834 22.3555 11.5716 22.2718 11.5554C21.9322 11.4812 21.7 11.3145 21.9519 11.0555L22.3829 10.6207C22.2346 10.5698 22.1409 10.5504 22.1234 10.5153C22.1017 10.4753 22.1707 10.4081 22.2919 10.4479L22.4883 10.5137C22.6814 10.3299 22.6873 10.2869 22.7666 10.2767C22.8003 10.2713 22.836 10.2756 22.8727 10.2881C22.888 10.293 22.9011 10.2985 22.9117 10.3047Z" fill="white"/>
<path d="M19.4809 10.4777C19.2754 10.5159 19.0604 10.4938 18.867 10.4288C17.8415 10.0907 19.0058 9.13229 19.908 9.65314C20.3836 9.92775 19.9618 10.3919 19.4809 10.4777ZM19.5099 10.3005C19.6697 10.2328 19.9009 10.0331 19.849 9.8701C19.7827 9.66186 19.2146 9.48455 18.8497 9.85217C18.6504 10.0514 18.7031 10.2277 18.9771 10.3179C19.1576 10.3778 19.3444 10.371 19.5099 10.3005Z" fill="white"/>
<path d="M19.0583 9.01043C19.1333 9.10751 18.9278 9.1831 18.8316 9.07782C18.6606 8.82248 18.0362 8.61795 17.5599 8.82133C17.3533 8.9095 17.0771 9.1359 17.0365 9.35118C16.9653 9.72422 17.6595 9.89524 18.0658 9.85983C18.2205 9.85358 18.2516 9.9383 18.1725 9.98428C18.1044 10.0202 17.7222 10.0483 17.3221 9.91364C16.7552 9.72489 16.5511 9.38238 16.9565 8.97132C17.6087 8.31298 18.8097 8.62103 19.0583 9.01043Z" fill="white"/>
<path d="M9.20495 21.9862C3.43856 18.6436 3.69306 18.8561 3.69306 18.76C3.69306 18.6635 3.15166 19.0448 12.7501 13.4445C12.7773 13.4288 12.8103 13.4288 12.8374 13.4445C18.6044 16.7957 18.3439 16.5796 18.3439 16.6753C18.3439 16.7717 18.879 16.3942 9.29225 21.9861C9.26616 22.0011 9.23341 22.0022 9.20495 21.9862ZM3.95359 18.7595L9.24809 21.8103L18.0833 16.6756L12.7939 13.6202L3.95359 18.7595Z" fill="#F45170"/>
<path d="M6.64236 19.5837L5.33836 18.8321C5.27988 18.7981 5.28113 18.7146 5.33802 18.6815L10.5585 15.6465C10.5999 15.6226 10.6532 15.6363 10.6774 15.6781C10.7015 15.7195 10.6875 15.7729 10.6461 15.797L5.55541 18.7564L6.72932 19.4329C6.77076 19.457 6.78503 19.5101 6.76125 19.5517C6.73671 19.5937 6.68351 19.6073 6.64236 19.5837Z" fill="#F45170"/>
<path d="M7.26609 19.9431C7.22465 19.919 7.21038 19.8658 7.23416 19.8242C7.25827 19.7822 7.31228 19.7685 7.35304 19.7923L9.24741 20.884L10.0738 20.4037C10.1739 20.3455 10.2603 20.4966 10.1615 20.5541L9.29156 21.0597C9.22191 21.0998 9.30439 21.1125 7.26609 19.9431Z" fill="#F45170"/>
<path d="M11.5631 19.5371L16.4833 16.6778L15.9521 16.3707C15.9106 16.3468 15.8964 16.2936 15.9201 16.252C15.9443 16.21 15.9979 16.1963 16.039 16.2202L16.7004 16.6024C16.7586 16.6359 16.7578 16.7196 16.7007 16.7528L11.6508 19.6876C11.5501 19.7453 11.4646 19.5945 11.5631 19.5371Z" fill="#F45170"/>
<path d="M15.1369 15.8862C15.122 15.8862 15.107 15.8824 15.0934 15.8744L12.7949 14.547L11.7772 15.1389C11.7351 15.1625 11.6821 15.1489 11.6583 15.1073C11.6342 15.0658 11.6481 15.0127 11.6896 14.9884L12.751 14.3712C12.7782 14.3556 12.8112 14.3556 12.8383 14.3712L15.1804 15.724C15.2218 15.7479 15.2361 15.8011 15.2123 15.8427C15.196 15.8705 15.1668 15.8862 15.1369 15.8862Z" fill="#F45170"/>
<path d="M15.1965 16.68L9.24575 20.1382L6.84375 18.7542L12.7981 15.2925L15.1965 16.68Z" fill="#F45170"/>
<path d="M3.11038 14.6067L0.62067 13.1598L0.611328 8.30127L3.10104 9.74813L3.11038 14.6067Z" fill="#9EA9C9"/>
<path d="M2.05689 9.02792L2.04938 13.6181L1.76604 13.8257L1.66406 13.7672L1.67157 8.80603L1.77501 8.8645V8.866L2.05689 9.02792Z" fill="#1D2943"/>
<path d="M2.05647 9.02793L2.04897 13.9891L1.76562 13.8257L1.77459 8.866V8.8645L2.05647 9.02793Z" fill="#4C5C75"/>
<path d="M8.56257 7.1949L6.44922 5.96676L6.78998 5.77002L8.90333 6.99817L8.56257 7.1949Z" fill="#CAD0DB"/>
<path d="M8.83551 7.03745L6.19382 5.50227L6.1875 3.27271L8.82919 4.80789L8.83551 7.03745Z" fill="#7E5AF2"/>
<path d="M3.10104 9.74805L0.611328 8.30119L0.953074 8.10388L3.44279 9.55074L3.10104 9.74805Z" fill="#CAD0DB"/>
<path d="M3.4433 9.55072L0.953586 8.10386L0.947266 6.474L3.43698 7.92086L3.4433 9.55072Z" fill="#7E8188"/>
<path d="M3.43698 7.92091L0.947266 6.47405L6.06655 3.51843L8.55626 4.9653L3.43698 7.92091Z" fill="#CAD0DB"/>
<path d="M8.90232 6.99947L8.70425 7.11182L8.69834 4.88257L3.43562 7.92192L3.44154 9.55099L3.10156 9.74908L3.11044 14.6076L8.9112 11.2578L8.90232 6.99947ZM8.39972 10.8823L4.04765 13.3954L4.04173 10.9089L8.39972 8.38994V10.8823Z" fill="#B0B8CF"/>
<path d="M3.14424 10.323L0.502542 8.78784L0.490234 4.44641L3.13193 5.9816L3.14424 10.323Z" fill="#7E5AF2"/>
<path d="M9.23848 2.07127C8.27808 1.51102 3.12924 4.60913 3.13196 5.98136L0.490235 4.44611C0.48759 3.08075 5.63097 -0.0273461 6.59679 0.53602L9.23848 2.07127Z" fill="#B28AFD"/>
<path d="M9.39405 2.36667L9.40636 6.70811L8.83587 7.03748L8.82955 5.16035L3.71027 8.11597L3.71659 9.9931L3.14512 10.323L3.13281 5.9816C3.12853 4.46922 9.38976 0.854257 9.39405 2.36667Z" fill="#986FF9"/>
<path d="M2.06019 6.8761L2.05386 8.86449L1.57495 8.58577L1.4707 8.52734L1.47703 6.54053L2.06019 6.8761Z" fill="#986FF9"/>
<path d="M2.06098 6.87602L2.05466 8.86441L1.71537 8.66695L1.72165 6.68171L1.58203 6.59888L2.06098 6.87602Z" fill="#B28AFD"/>
</svg>
