<svg width="64" height="65" viewBox="0 0 64 65" fill="none" xmlns="http://www.w3.org/2000/svg">
<rect y="0.912842" width="64" height="64" rx="32" fill="white"/>
<path d="M48.6957 34.7722L48.6935 35.5223L30.3547 46.1796L30.3569 45.4296L48.6957 34.7722Z" fill="#DEDFFB"/>
<path d="M30.357 45.4293L30.3548 46.1794L15.3044 37.4901L15.3066 36.74L30.357 45.4293Z" fill="#D3D5F2"/>
<path d="M48.6958 34.7721L30.357 45.4294L15.3066 36.7401L33.6454 26.0828L48.6958 34.7721Z" fill="#E9E7FC"/>
<path d="M48.5267 31.0256L48.5242 31.9007L34.0044 46.4444L34.0069 45.5693L48.5267 31.0256Z" fill="#DEDFFB"/>
<path d="M34.0069 45.5692L34.0044 46.4443L15.6294 40.2667L15.6319 39.3916L34.0069 45.5692Z" fill="#D3D5F2"/>
<path d="M48.5267 31.0256L34.0068 45.5693L15.6318 39.3916L30.1526 24.8474L48.5267 31.0256Z" fill="#F3F1FC"/>
<path d="M28.6592 41.1972L34.8193 35.0273L39.5082 36.6043L33.3494 42.7737L28.6592 41.1972Z" fill="#E9E7FC"/>
<path d="M45.4212 30.7172L32.1585 26.2573L29.4878 28.9324L42.7512 33.3916L45.4212 30.7172Z" fill="#4C5C75"/>
<path d="M41.9657 34.1784L28.7029 29.7185L28.106 30.3165L41.3694 34.7756L41.9657 34.1784Z" fill="#E9E7FC"/>
<path d="M40.7732 35.3727L27.5104 30.9128L27.26 31.1637L40.5234 35.6229L40.7732 35.3727Z" fill="#E9E7FC"/>
<path d="M39.2246 30.0551C39.1638 30.124 39.0646 30.0867 39.0023 30.0741C38.7707 30.0116 38.5097 30.0126 38.3396 30.1844L37.932 30.5969C37.8707 30.6593 37.7673 30.6494 37.7013 30.6113C37.6562 30.5852 37.6564 30.5506 37.6904 30.5159C38.4194 29.7924 38.3903 29.7777 38.4752 29.7633C38.5541 29.749 38.7089 29.8036 38.6259 29.8828L38.5361 29.9739C38.7363 29.8889 38.9714 29.9027 39.1781 29.9676C39.2333 29.9821 39.2623 30.0098 39.2246 30.0551Z" fill="white"/>
<path d="M42.7256 31.1719C43.0313 31.2748 43.0988 31.2914 43.1341 31.3117C43.1467 31.319 43.1556 31.3269 43.1609 31.3354C43.1694 31.3501 43.1648 31.3659 43.148 31.3833C43.1322 31.4001 43.1088 31.4104 43.0816 31.4142C43.014 31.4237 42.9833 31.3954 42.6192 31.2795L42.2032 31.7001C42.1061 31.7976 42.0886 31.8863 42.2063 31.9542C42.2583 31.9843 42.3501 32.016 42.4105 32.0234C42.4944 32.0349 42.5536 32.0493 42.4954 32.1104C42.4653 32.1396 42.4245 32.1572 42.3746 32.1522C42.1714 32.1238 41.8184 32.0196 41.8436 31.8175C41.8642 31.6725 42.0272 31.5744 42.3805 31.2001L42.1831 31.1338C42.0487 31.0906 42.1429 30.9792 42.2894 31.0262L42.4868 31.0925C42.6714 30.9169 42.6844 30.866 42.7651 30.8556C42.7979 30.8507 42.8345 30.8545 42.8712 30.867C43.0373 30.9238 42.889 30.9973 42.7256 31.1719Z" fill="white"/>
<path d="M42.0238 31.029C42.0735 31.0884 41.9671 31.138 41.8798 31.117C41.8104 31.0979 41.8352 31.051 41.7066 30.9768C41.1797 30.6726 40.6193 31.0949 40.6924 31.3523C40.7226 31.4584 40.8472 31.5185 40.9525 31.5534C41.0725 31.5934 41.1971 31.6034 41.3233 31.5952C41.4711 31.5845 41.48 31.7103 41.3334 31.7191C41.0597 31.745 40.6772 31.6612 40.5093 31.4827C40.2343 31.1986 40.6364 30.8181 41.0539 30.7453C41.1514 30.729 41.2527 30.7246 41.3579 30.7344C41.5711 30.7533 41.9094 30.8474 42.0238 31.029Z" fill="white"/>
<path d="M39.7707 31.2794C39.7248 31.2899 39.6694 31.2759 39.6345 31.2557C39.5476 31.2055 39.6517 31.1433 39.7096 31.0784C39.5597 31.1456 39.3302 31.1631 39.1073 31.0882C38.651 30.9359 38.72 30.6142 39.0676 30.5442C39.3346 30.4937 39.7856 30.6561 40.0376 30.7388C40.066 30.7037 40.2016 30.6007 40.167 30.5083C40.1425 30.4442 40.0375 30.403 39.9721 30.3817C39.8144 30.328 39.65 30.3091 39.4838 30.3045C39.3123 30.2993 39.3561 30.1701 39.5121 30.1757C39.7555 30.184 40.1694 30.2464 40.3531 30.4078C40.4859 30.5213 40.4314 30.649 40.3083 30.774C39.8398 31.2358 39.8519 31.2637 39.7707 31.2794ZM39.7184 30.9925C39.7896 30.9664 39.8485 30.9289 39.897 30.88L39.9479 30.8289C39.7747 30.7711 39.4114 30.6405 39.2334 30.6659C39.0422 30.6932 38.9335 30.8903 39.2484 30.9974C39.409 31.0504 39.5768 31.0444 39.7184 30.9925Z" fill="white"/>
<path d="M36.7344 29.2024C36.7863 29.2519 36.8063 29.3068 36.7963 29.3671C36.7695 29.5169 36.6 29.624 36.2193 30.0263C36.196 30.0486 36.1688 30.0632 36.136 30.0681C36.0519 30.0835 35.8977 30.03 35.9796 29.9464C36.3386 29.5616 36.5546 29.4296 36.5136 29.3024C36.4621 29.1427 35.9098 29.0025 35.6306 29.2812L35.2229 29.6937C35.1599 29.7578 35.0601 29.7475 34.9916 29.708C34.894 29.6516 34.9923 29.6189 35.6876 28.9036C35.7719 28.8176 35.9187 28.8753 35.941 28.9188C35.9603 28.9618 35.8975 28.9966 35.8371 29.0648C36.1674 28.9434 36.5895 29.0682 36.7344 29.2024Z" fill="white"/>
<path d="M37.9095 29.2173C37.9248 29.2261 37.9351 29.2362 37.9402 29.2475C37.9487 29.2665 37.9423 29.2866 37.9199 29.3094L37.7249 29.5056C38.0271 29.6073 38.1001 29.6259 38.1349 29.646C38.1674 29.6647 38.1747 29.6884 38.1483 29.7164C38.0666 29.801 37.9364 29.7071 37.6195 29.6127C37.2729 29.9842 37.0931 30.0867 37.1274 30.205C37.1362 30.2353 37.1623 30.263 37.2056 30.288C37.3262 30.3576 37.4248 30.3529 37.483 30.3724C37.5519 30.3895 37.5066 30.4518 37.4451 30.4773C37.4007 30.496 37.3533 30.4842 37.2696 30.468C36.9301 30.3938 36.6978 30.2271 36.9497 29.9681L37.3807 29.5333C37.2324 29.4824 37.1387 29.463 37.1212 29.4279C37.0995 29.3879 37.1685 29.3207 37.2897 29.3605L37.4861 29.4263C37.6792 29.2425 37.6851 29.1995 37.7644 29.1893C37.7981 29.1839 37.8338 29.1882 37.8705 29.2007C37.8858 29.2056 37.8989 29.2111 37.9095 29.2173Z" fill="white"/>
<path d="M34.4799 29.3905C34.2745 29.4287 34.0595 29.4067 33.8661 29.3416C32.8406 29.0035 34.0049 28.0451 34.907 28.566C35.3826 28.8406 34.9608 29.3047 34.4799 29.3905ZM34.5089 29.2133C34.6687 29.1456 34.9 28.946 34.848 28.7829C34.7817 28.5747 34.2136 28.3974 33.8487 28.765C33.6494 28.9642 33.7021 29.1405 33.9761 29.2307C34.1566 29.2907 34.3434 29.2838 34.5089 29.2133Z" fill="white"/>
<path d="M34.0571 27.9233C34.1321 28.0203 33.9266 28.0959 33.8304 27.9907C33.6594 27.7353 33.035 27.5308 32.5586 27.7342C32.3521 27.8223 32.0758 28.0487 32.0353 28.264C31.9641 28.6371 32.6583 28.8081 33.0645 28.7727C33.2193 28.7664 33.2504 28.8511 33.1713 28.8971C33.1032 28.9331 32.7209 28.9611 32.3209 28.8265C31.754 28.6377 31.5499 28.2952 31.9553 27.8842C32.6075 27.2258 33.8084 27.5339 34.0571 27.9233Z" fill="white"/>
<path d="M24.2047 40.899C18.4383 37.5563 18.6928 37.7688 18.6928 37.6727C18.6928 37.5762 18.1514 37.9575 27.7499 32.3572C27.7771 32.3416 27.81 32.3416 27.8372 32.3572C33.6041 35.7085 33.3436 35.4923 33.3436 35.588C33.3436 35.6844 33.8787 35.307 24.292 40.8988C24.2659 40.9138 24.2332 40.915 24.2047 40.899ZM18.9533 37.6722L24.2478 40.723L33.0831 35.5883L27.7937 32.533L18.9533 37.6722Z" fill="#F45170"/>
<path d="M21.6411 38.4965L20.3371 37.745C20.2787 37.7109 20.2799 37.6275 20.3368 37.5943L25.5572 34.5593C25.5987 34.5354 25.652 34.5492 25.6761 34.5909C25.7002 34.6324 25.6863 34.6857 25.6449 34.7098L20.5542 37.6692L21.7281 38.3457C21.7695 38.3698 21.7838 38.423 21.76 38.4646C21.7355 38.5065 21.6823 38.5202 21.6411 38.4965Z" fill="#F45170"/>
<path d="M22.2651 38.8558C22.2237 38.8317 22.2094 38.7785 22.2332 38.7369C22.2573 38.695 22.3113 38.6812 22.3521 38.705L24.2464 39.7967L25.0729 39.3164C25.1729 39.2582 25.2593 39.4093 25.1605 39.4669L24.2906 39.9725C24.2209 40.0125 24.3034 40.0253 22.2651 38.8558Z" fill="#F45170"/>
<path d="M26.5636 38.45L31.4838 35.5906L30.9526 35.2835C30.9111 35.2596 30.8969 35.2064 30.9206 35.1648C30.9447 35.1229 30.9984 35.1091 31.0395 35.1331L31.7009 35.5152C31.7591 35.5487 31.7583 35.6324 31.7012 35.6657L26.6513 38.6005C26.5506 38.6581 26.4651 38.5073 26.5636 38.45Z" fill="#F45170"/>
<path d="M30.1367 34.7989C30.1217 34.7989 30.1068 34.7951 30.0932 34.7872L27.7946 33.4597L26.777 34.0516C26.7348 34.0752 26.6818 34.0616 26.6581 34.02C26.6339 33.9786 26.6479 33.9254 26.6893 33.9011L27.7508 33.2839C27.778 33.2683 27.8109 33.2683 27.8381 33.2839L30.1801 34.6367C30.2216 34.6606 30.2359 34.7138 30.2121 34.7554C30.1958 34.7833 30.1666 34.7989 30.1367 34.7989Z" fill="#F45170"/>
<path d="M30.1955 35.5926L24.2448 39.0508L21.8428 37.6668L27.7971 34.2051L30.1955 35.5926Z" fill="#F45170"/>
<path d="M18.1101 33.5195L15.6204 32.0727L15.6111 27.2141L18.1008 28.661L18.1101 33.5195Z" fill="#9EA9C9"/>
<path d="M17.0569 27.9406L17.0494 32.5308L16.766 32.7384L16.6641 32.6799L16.6716 27.7188L16.775 27.7772V27.7787L17.0569 27.9406Z" fill="#1D2943"/>
<path d="M17.057 27.9408L17.0495 32.9019L16.7661 32.7385L16.7751 27.7788V27.7773L17.057 27.9408Z" fill="#4C5C75"/>
<path d="M23.5618 26.1077L21.4485 24.8796L21.7892 24.6829L23.9026 25.911L23.5618 26.1077Z" fill="#CAD0DB"/>
<path d="M23.8353 25.9503L21.1936 24.4151L21.1873 22.1855L23.829 23.7207L23.8353 25.9503Z" fill="#7E5AF2"/>
<path d="M18.1008 28.661L15.6111 27.2142L15.9528 27.0168L18.4425 28.4637L18.1008 28.661Z" fill="#CAD0DB"/>
<path d="M18.4426 28.4637L15.9529 27.0168L15.9465 25.387L18.4362 26.8338L18.4426 28.4637Z" fill="#7E8188"/>
<path d="M18.4362 26.8339L15.9465 25.387L21.0658 22.4314L23.5555 23.8783L18.4362 26.8339Z" fill="#CAD0DB"/>
<path d="M23.9028 25.9123L23.7047 26.0247L23.6988 23.7954L18.4361 26.8348L18.442 28.4638L18.1021 28.6619L18.1109 33.5205L23.9117 30.1707L23.9028 25.9123ZM23.4002 29.7952L19.0481 32.3083L19.0422 29.8218L23.4002 27.3028V29.7952Z" fill="#B0B8CF"/>
<path d="M18.1445 29.236L15.5028 27.7008L15.4905 23.3594L18.1322 24.8946L18.1445 29.236Z" fill="#7E5AF2"/>
<path d="M24.2385 20.9841C23.2781 20.4239 18.1292 23.522 18.132 24.8942L15.4902 23.359C15.4876 21.9936 20.631 18.8855 21.5968 19.4489L24.2385 20.9841Z" fill="#B28AFD"/>
<path d="M24.3936 21.2796L24.4059 25.6211L23.8354 25.9504L23.8291 24.0733L18.7098 27.0289L18.7161 28.9061L18.1446 29.236L18.1323 24.8946C18.128 23.3822 24.3893 19.7672 24.3936 21.2796Z" fill="#986FF9"/>
<path d="M17.0609 25.7889L17.0546 27.7773L16.5757 27.4986L16.4714 27.4402L16.4778 25.4534L17.0609 25.7889Z" fill="#986FF9"/>
<path d="M17.061 25.7889L17.0547 27.7773L16.7154 27.5798L16.7216 25.5946L16.582 25.5117L17.061 25.7889Z" fill="#B28AFD"/>
</svg>
