<svg width="64" height="65" viewBox="0 0 64 65" fill="none" xmlns="http://www.w3.org/2000/svg">
<rect y="0.912842" width="64" height="64" rx="32" fill="white"/>
<path d="M47.3925 23.459L47.3579 37.148L26.8596 49.0603L26.8942 35.3713L47.3925 23.459Z" fill="#BF7D5A"/>
<path d="M47.3925 23.459L47.382 27.1338L26.8838 39.0461L26.8943 35.3713L47.3925 23.459Z" fill="#AA6256"/>
<path d="M16.6094 43.1424L16.644 29.4534L26.8941 35.3712L26.8595 49.0603L16.6094 43.1424Z" fill="#AA6256"/>
<path d="M16.6335 33.1282L16.644 29.4534L26.8941 35.3712L26.8836 39.046L16.6335 33.1282Z" fill="#8A4852"/>
<path d="M47.3923 23.4589L26.8941 35.3711L16.644 29.4533L37.1423 17.541L47.3923 23.4589Z" fill="#CDCCD8"/>
<path d="M48.6958 23.5393L48.6897 25.6899L27.0374 38.2729L27.0435 36.1223L48.6958 23.5393Z" fill="#BF7D5A"/>
<path d="M27.0434 36.1224L27.0373 38.273L15.3044 31.499L15.3105 29.3484L27.0434 36.1224Z" fill="#AA6256"/>
<path d="M48.6958 23.5393L27.0434 36.1223L15.3105 29.3484L36.9629 16.7654L48.6958 23.5393Z" fill="#DBA660"/>
<path d="M31.2085 22.8782L31.5728 23.0886L29.9795 23.3165L30.7348 22.8775C30.8646 22.8021 31.0779 22.8028 31.2085 22.8782Z" fill="#DEDFFB"/>
<path d="M33.8721 22.9596C34.3583 24.0843 35.4532 26.6172 35.912 27.6784C35.956 27.7819 35.8481 27.8876 35.6695 27.9128L31.146 28.5606C31.0019 28.5811 30.7915 28.5415 30.7392 28.4186C30.2524 27.2925 29.1581 24.7611 28.6993 23.6999C28.6554 23.5964 28.762 23.4913 28.9432 23.4647L29.9795 23.3165L31.5728 23.0886L33.4679 22.8176C33.6115 22.7962 33.8191 22.8377 33.8721 22.9596Z" fill="#F3F1FC"/>
<path d="M37.1619 26.3156C37.2925 26.391 37.2932 26.5137 37.1634 26.5892L35.7869 27.3891L34.7112 24.9006L37.1619 26.3156Z" fill="#DEDFFB"/>
<path d="M33.4029 28.5L33.0386 28.2896L34.6293 28.0618L33.8766 28.4992C33.7442 28.5761 33.5336 28.5754 33.4029 28.5Z" fill="#DEDFFB"/>
<path d="M27.4479 24.7877L28.8239 23.988L29.9002 26.4777L27.4495 25.0628C27.3189 24.9873 27.3156 24.8646 27.4479 24.7877Z" fill="#DEDFFB"/>
<path d="M18.9413 41.2993L25.2075 44.9171V45.6623L18.2959 41.672L18.9413 41.2993Z" fill="#BF7D5A"/>
<path d="M18.2959 35.2317L18.9413 35.6043V41.2994L18.2959 41.672V35.2317Z" fill="#8A4852"/>
<path d="M18.9414 35.6042L25.2075 39.222V44.9171L18.9414 41.2993V35.6042Z" fill="#DBA660"/>
<path d="M26.2788 26.6987L25.1252 26.0015C24.9756 25.9121 24.7339 26.1818 24.7308 26.402C24.7295 26.4734 24.754 26.5241 24.7944 26.5485L26.2661 27.438L26.2788 26.6987Z" fill="#F45170"/>
<path d="M31.3287 29.6485C31.2755 29.6167 31.2009 29.6197 31.1182 29.6656C30.8647 29.8059 30.7084 30.2472 30.8976 30.3613L25.2199 26.9201C25.1673 26.8883 25.1354 26.8223 25.137 26.7293C25.1413 26.435 25.463 26.0949 25.6511 26.2073L31.3287 29.6485Z" fill="#4C5C75"/>
<path d="M31.3286 29.6485C31.2754 29.6167 31.2008 29.6197 31.1181 29.6656C30.8646 29.8059 30.7083 30.2472 30.8975 30.3613L26.9697 27.9777C26.917 27.9459 26.8852 27.8799 26.8868 27.7869C26.891 27.4926 27.2127 27.1526 27.4008 27.2649L31.3286 29.6485Z" fill="#1D2943"/>
<path d="M31.328 29.6491C31.2758 29.6153 31.2021 29.6184 31.1192 29.6645C30.8702 29.8028 30.7066 30.2483 30.8983 30.3611L27.24 28.1422C27.1878 28.1085 27.1541 28.044 27.1572 27.9489C27.162 27.6555 27.4835 27.3176 27.6697 27.4271L31.328 29.6491Z" fill="#57B3FE"/>
<path d="M31.1179 29.6657C31.2829 29.5743 31.4145 29.6523 31.4118 29.8396C31.4091 30.0269 31.2731 30.2528 31.1081 30.3443C30.9434 30.4355 30.8118 30.3579 30.8145 30.1706C30.8172 29.9833 30.9532 29.757 31.1179 29.6657Z" fill="#4C5C75"/>
<path d="M31.9059 30.3453L31.788 30.5505L30.9263 30.3735L31.3583 29.6719L31.9059 30.3453Z" fill="#4C5C75"/>
<path d="M31.8454 30.35C31.8924 30.324 31.9298 30.3462 31.9291 30.3995C31.9272 30.5285 31.7572 30.6205 31.759 30.4937C31.7598 30.4404 31.7985 30.376 31.8454 30.35Z" fill="#1D2943"/>
<path d="M25.2589 26.7328L25.197 26.6954L25.2053 26.1746L25.2672 26.212L25.2589 26.7328Z" fill="#B0B8CF"/>
<path d="M25.3836 26.2681L25.3235 26.2317L25.5747 26.0925L25.6348 26.1289L25.3836 26.2681Z" fill="#BFC0D8"/>
<path d="M25.5257 26.0686L25.5207 26.3982L25.2622 26.5414L25.2672 26.2118L25.5257 26.0686Z" fill="white"/>
<path d="M26.4401 26.6841L25.6511 26.2072C25.4561 26.0907 25.1412 26.4422 25.137 26.7292C25.1354 26.8222 25.1673 26.8882 25.2199 26.92L26.4235 27.6474L26.4401 26.6841Z" fill="#4C5C75"/>
<path d="M27.1273 27.049C27.119 27.1112 27.1473 27.1508 27.0843 27.1881C27.029 27.2186 26.9398 27.217 26.8846 27.1836L25.2053 26.1751L25.2077 26.093L26.886 27.1015C26.9412 27.1339 27.0305 27.1355 27.0857 27.105C27.1134 27.0903 27.1269 27.0703 27.1273 27.049Z" fill="#B0B8CF"/>
<path d="M27.0857 26.99C27.1409 27.0231 27.1409 27.0743 27.0857 27.1051C27.0305 27.1359 26.9414 27.1343 26.8863 27.1012L25.2073 26.0929L25.4067 25.9817L27.0857 26.99Z" fill="white"/>
<path d="M32.0456 30.6304L31.8132 30.5252L31.9029 30.3853L32.1019 30.5376C32.153 30.5748 32.1124 30.6604 32.0456 30.6304Z" fill="#DBE6FA"/>
<path d="M31.8558 30.3848C31.9345 30.3411 31.9337 30.4765 31.8538 30.5208C31.7748 30.5646 31.7765 30.4287 31.8558 30.3848Z" fill="#DBE6FA"/>
<path d="M32.7902 42.1077L27.6492 45.0758V45.8448L33.4562 42.4922L32.7902 42.1077Z" fill="#AA6256"/>
<path d="M33.4563 36.2427L32.7903 36.6272V42.1077L33.4563 42.4922V36.2427Z" fill="#8A4852"/>
<path d="M32.7902 36.6272L27.6492 39.5953V45.0758L32.7902 42.1077V36.6272Z" fill="#DBA660"/>
<path d="M39.3637 38.3125L34.2227 41.2806V42.0497L40.0297 38.697L39.3637 38.3125Z" fill="#AA6256"/>
<path d="M40.0298 32.4475L39.3638 32.832V38.3125L40.0298 38.697V32.4475Z" fill="#8A4852"/>
<path d="M39.3637 32.832L34.2227 35.8002V41.2806L39.3637 38.3125V32.832Z" fill="#DBA660"/>
<path d="M45.9369 34.5173L40.7959 37.4855V38.2545L46.6029 34.9019L45.9369 34.5173Z" fill="#AA6256"/>
<path d="M46.603 28.6523L45.937 29.0369V34.5173L46.603 34.9018V28.6523Z" fill="#8A4852"/>
<path d="M45.9369 29.0369L40.7959 32.005V37.4855L45.9369 34.5173V29.0369Z" fill="#DBA660"/>
<path d="M35.4209 27.3388L30.8974 27.9866L30.7078 27.548L35.2312 26.9001L35.4209 27.3388Z" fill="#4F575F"/>
<path d="M30.8973 28.0214C30.854 28.0214 30.8683 27.9873 30.6759 27.5616C30.6423 27.4867 30.5963 27.5338 35.2262 26.8656C35.2754 26.8584 35.262 26.9062 35.4527 27.3249C35.4618 27.3452 35.4484 27.3698 35.4259 27.3731C32.7671 27.7539 33.4676 27.6539 30.8973 28.0214ZM30.7577 27.5759L30.9187 27.9483L35.3709 27.3106L35.2098 26.9383L30.7577 27.5759Z" fill="#4F575F"/>
<path d="M30.5179 27.144C30.5009 27.144 30.486 27.1315 30.4836 27.1141C30.4739 27.0461 30.2899 27.1231 35.0363 26.427C35.0839 26.4224 35.0901 26.4897 35.0464 26.4959L30.523 27.1437C30.5213 27.1439 30.5196 27.144 30.5179 27.144Z" fill="#4F575F"/>
<path d="M30.2942 26.6757C30.2844 26.6077 30.1005 26.6847 34.8468 25.9884C34.8933 25.9828 34.9014 26.051 34.857 26.0573C30.1498 26.7135 30.3046 26.752 30.2942 26.6757Z" fill="#4F575F"/>
<path d="M30.1388 26.2669C30.1218 26.2669 30.1069 26.2543 30.1045 26.237C30.0948 26.1692 30.0414 26.227 32.8389 25.8102C32.8586 25.8087 32.8755 25.8206 32.8783 25.8397C32.881 25.8588 32.8681 25.8764 32.849 25.8791L30.1439 26.2665C30.1422 26.2667 30.1405 26.2669 30.1388 26.2669Z" fill="#4F575F"/>
<path d="M29.915 25.7984C29.9053 25.7304 29.7213 25.8074 34.4677 25.1113C34.484 25.1082 34.5043 25.1218 34.5071 25.1408C34.5098 25.1598 34.4969 25.1775 34.4778 25.1802C29.7707 25.8362 29.9255 25.8747 29.915 25.7984Z" fill="#4F575F"/>
<path d="M29.7594 25.3897C29.7424 25.3897 29.7274 25.3771 29.7251 25.3598C29.7153 25.2918 29.5317 25.3688 34.278 24.6725C34.2971 24.671 34.3144 24.6829 34.3174 24.702C34.3202 24.7211 34.3073 24.7387 34.2882 24.7414L29.7645 25.3894C29.7628 25.3895 29.7611 25.3897 29.7594 25.3897Z" fill="#4F575F"/>
<path d="M29.5699 24.9509C29.553 24.9509 29.538 24.9384 29.5356 24.9211C29.5259 24.8533 29.4725 24.911 32.27 24.4942C32.287 24.4915 32.3067 24.5048 32.3094 24.5238C32.3121 24.5428 32.2992 24.5605 32.2802 24.5632L29.575 24.9506C29.5733 24.9508 29.5716 24.9509 29.5699 24.9509Z" fill="#4F575F"/>
<path d="M29.3802 24.5125C29.3632 24.5125 29.3483 24.5 29.3459 24.4826C29.3362 24.4146 29.1522 24.4916 33.8986 23.7953C33.9437 23.7891 33.9541 23.8577 33.9087 23.8643L29.3853 24.5122C29.3836 24.5124 29.3819 24.5125 29.3802 24.5125Z" fill="#4F575F"/>
<path d="M29.1908 24.0738C29.1738 24.0738 29.1589 24.0612 29.1565 24.0439C29.1468 23.9761 29.0934 24.0339 31.8909 23.6171C31.9095 23.6154 31.9275 23.6275 31.9303 23.6467C31.933 23.6657 31.9201 23.6833 31.901 23.6861L29.1959 24.0735C29.1942 24.0736 29.1925 24.0738 29.1908 24.0738Z" fill="#4F575F"/>
</svg>
