<svg width="34" height="34" viewBox="0 0 34 34" fill="none" xmlns="http://www.w3.org/2000/svg">
<path d="M32.3923 7.54602L32.3576 21.2351L11.8594 33.1474L11.894 19.4583L32.3923 7.54602Z" fill="#BF7D5A"/>
<path d="M32.3916 7.54602L32.3811 11.2208L11.8828 23.1331L11.8933 19.4583L32.3916 7.54602Z" fill="#AA6256"/>
<path d="M1.60938 27.2295L1.644 13.5404L11.8941 19.4583L11.8595 33.1473L1.60938 27.2295Z" fill="#AA6256"/>
<path d="M1.63281 17.2152L1.64331 13.5404L11.8934 19.4583L11.8829 23.1331L1.63281 17.2152Z" fill="#8A4852"/>
<path d="M32.3928 7.54602L11.8945 19.4583L1.64453 13.5405L22.1428 1.62817L32.3928 7.54602Z" fill="#CDCCD8"/>
<path d="M33.6956 7.62659L33.6895 9.77722L12.0371 22.3602L12.0432 20.2096L33.6956 7.62659Z" fill="#BF7D5A"/>
<path d="M12.0436 20.2096L12.0375 22.3603L0.304688 15.5863L0.310785 13.4357L12.0436 20.2096Z" fill="#AA6256"/>
<path d="M33.6958 7.62663L12.0434 20.2096L0.310547 13.4356L21.9629 0.852661L33.6958 7.62663Z" fill="#DBA660"/>
<path d="M16.2075 6.96551L16.5719 7.17586L14.9785 7.40373L15.7339 6.96477C15.8637 6.88934 16.0769 6.89009 16.2075 6.96551Z" fill="#DEDFFB"/>
<path d="M18.8721 7.04691C19.3583 8.1716 20.4532 10.7044 20.912 11.7656C20.956 11.8692 20.8481 11.9749 20.6695 12.0001L16.146 12.6479C16.0019 12.6683 15.7915 12.6288 15.7392 12.5059C15.2524 11.3798 14.1581 8.84836 13.6993 7.78716C13.6554 7.68364 13.762 7.57863 13.9432 7.55201L14.9795 7.40379L16.5728 7.17592L18.4679 6.90492C18.6115 6.88352 18.8191 6.92494 18.8721 7.04691Z" fill="#F3F1FC"/>
<path d="M22.1616 10.4027C22.2923 10.4781 22.293 10.6009 22.1632 10.6763L20.7867 11.4763L19.7109 8.98779L22.1616 10.4027Z" fill="#DEDFFB"/>
<path d="M18.4015 12.5872L18.0371 12.3769L19.6279 12.149L18.8751 12.5865C18.7428 12.6634 18.5321 12.6627 18.4015 12.5872Z" fill="#DEDFFB"/>
<path d="M12.4474 8.87496L13.8234 8.07532L14.8997 10.5649L12.449 9.15005C12.3184 9.07462 12.3151 8.95186 12.4474 8.87496Z" fill="#DEDFFB"/>
<path d="M3.94231 25.3866L10.2084 29.0043V29.7496L3.29688 25.7592L3.94231 25.3866Z" fill="#BF7D5A"/>
<path d="M3.29688 19.3188L3.94231 19.6915V25.3866L3.29688 25.7592V19.3188Z" fill="#8A4852"/>
<path d="M3.94141 19.6915L10.2075 23.3093V29.0043L3.94141 25.3866V19.6915Z" fill="#DBA660"/>
<path d="M11.2786 10.7859L10.125 10.0886C9.97536 9.99923 9.73368 10.2689 9.73051 10.4892C9.72928 10.5606 9.75373 10.6112 9.79415 10.6356L11.2658 11.5251L11.2786 10.7859Z" fill="#F45170"/>
<path d="M16.3284 13.7356C16.2752 13.7039 16.2007 13.7068 16.1179 13.7527C15.8644 13.893 15.7081 14.3343 15.8973 14.4484L10.2197 11.0072C10.167 10.9755 10.1352 10.9095 10.1368 10.8164C10.141 10.5221 10.4627 10.1821 10.6508 10.2945L16.3284 13.7356Z" fill="#4C5C75"/>
<path d="M16.3286 13.7356C16.2754 13.7039 16.2008 13.7068 16.1181 13.7527C15.8646 13.893 15.7083 14.3343 15.8975 14.4484L11.9697 12.0649C11.917 12.0331 11.8852 11.9671 11.8868 11.874C11.891 11.5797 12.2127 11.2397 12.4008 11.3521L16.3286 13.7356Z" fill="#1D2943"/>
<path d="M16.3273 13.7364C16.275 13.7026 16.2014 13.7057 16.1185 13.7517C15.8695 13.8901 15.7059 14.3356 15.8975 14.4484L12.2393 12.2295C12.1871 12.1957 12.1534 12.1313 12.1564 12.0361C12.1613 11.7428 12.4827 11.4049 12.6689 11.5144L16.3273 13.7364Z" fill="#57B3FE"/>
<path d="M16.1179 13.7528C16.2829 13.6613 16.4145 13.7393 16.4118 13.9266C16.4091 14.1139 16.2731 14.3398 16.1081 14.4313C15.9434 14.5225 15.8118 14.4449 15.8145 14.2576C15.8172 14.0703 15.9532 13.844 16.1179 13.7528Z" fill="#4C5C75"/>
<path d="M16.9054 14.4327L16.7875 14.6379L15.9258 14.4609L16.3579 13.7593L16.9054 14.4327Z" fill="#4C5C75"/>
<path d="M16.8461 14.4372C16.8931 14.4111 16.9306 14.4333 16.9298 14.4867C16.9279 14.6156 16.758 14.7077 16.7598 14.5809C16.7605 14.5276 16.7993 14.4631 16.8461 14.4372Z" fill="#1D2943"/>
<path d="M10.2591 10.8198L10.1973 10.7824L10.2056 10.2616L10.2675 10.299L10.2591 10.8198Z" fill="#B0B8CF"/>
<path d="M10.3844 10.3554L10.3242 10.319L10.5754 10.1798L10.6356 10.2162L10.3844 10.3554Z" fill="#BFC0D8"/>
<path d="M10.5252 10.1558L10.5202 10.4854L10.2617 10.6286L10.2667 10.299L10.5252 10.1558Z" fill="white"/>
<path d="M11.4399 10.7714L10.6508 10.2945C10.4558 10.178 10.1409 10.5295 10.1368 10.8165C10.1352 10.9095 10.167 10.9755 10.2197 11.0073L11.4233 11.7347L11.4399 10.7714Z" fill="#4C5C75"/>
<path d="M12.127 11.1363C12.1188 11.1985 12.1471 11.2381 12.0841 11.2754C12.0288 11.3059 11.9396 11.3043 11.8844 11.2709L10.2051 10.2624L10.2075 10.1803L11.8858 11.1888C11.941 11.2212 12.0302 11.2228 12.0855 11.1923C12.1131 11.1776 12.1267 11.1575 12.127 11.1363Z" fill="#B0B8CF"/>
<path d="M12.0855 11.0773C12.1406 11.1104 12.1407 11.1616 12.0855 11.1924C12.0302 11.2232 11.9412 11.2216 11.8861 11.1885L10.207 10.1802L10.4064 10.069L12.0855 11.0773Z" fill="white"/>
<path d="M17.0449 14.7177L16.8125 14.6125L16.9022 14.4725L17.1011 14.6249C17.1523 14.662 17.1117 14.7477 17.0449 14.7177Z" fill="#DBE6FA"/>
<path d="M16.8553 14.472C16.934 14.4284 16.9332 14.5638 16.8533 14.6081C16.7743 14.6518 16.776 14.516 16.8553 14.472Z" fill="#DBE6FA"/>
<path d="M17.7894 26.1947L12.6484 29.1629V29.9319L18.4554 26.5792L17.7894 26.1947Z" fill="#AA6256"/>
<path d="M18.4551 20.3297L17.7891 20.7142V26.1947L18.4551 26.5792V20.3297Z" fill="#8A4852"/>
<path d="M17.7894 20.7142L12.6484 23.6824V29.1628L17.7894 26.1947V20.7142Z" fill="#DBA660"/>
<path d="M24.3637 22.3997L19.2227 25.3678V26.1368L25.0297 22.7842L24.3637 22.3997Z" fill="#AA6256"/>
<path d="M25.0293 16.5347L24.3633 16.9192V22.3997L25.0293 22.7842V16.5347Z" fill="#8A4852"/>
<path d="M24.3637 16.9192L19.2227 19.8873V25.3678L24.3637 22.3997V16.9192Z" fill="#DBA660"/>
<path d="M30.9359 18.6045L25.7949 21.5726V22.3417L31.6019 18.989L30.9359 18.6045Z" fill="#AA6256"/>
<path d="M31.6016 12.7395L30.9355 13.124V18.6045L31.6016 18.989V12.7395Z" fill="#8A4852"/>
<path d="M30.9359 13.124L25.7949 16.0922V21.5726L30.9359 18.6045V13.124Z" fill="#DBA660"/>
<path d="M20.4201 11.4261L15.8966 12.0739L15.707 11.6352L20.2305 10.9874L20.4201 11.4261Z" fill="#4F575F"/>
<path d="M15.8973 12.1088C15.854 12.1088 15.8683 12.0747 15.6759 11.649C15.6423 11.5741 15.5963 11.6212 20.2262 10.953C20.2754 10.9458 20.262 10.9936 20.4527 11.4123C20.4618 11.4326 20.4484 11.4572 20.4259 11.4605C17.7671 11.8413 18.4676 11.7413 15.8973 12.1088ZM15.7577 11.6633L15.9187 12.0357L20.3709 11.398L20.2098 11.0257L15.7577 11.6633Z" fill="#4F575F"/>
<path d="M15.5179 11.2314C15.5009 11.2314 15.486 11.2189 15.4836 11.2015C15.4739 11.1335 15.2899 11.2105 20.0363 10.5144C20.0839 10.5098 20.0901 10.5771 20.0464 10.5833L15.523 11.2311C15.5213 11.2313 15.5196 11.2314 15.5179 11.2314Z" fill="#4F575F"/>
<path d="M15.2942 10.763C15.2844 10.6949 15.1005 10.772 19.8468 10.0756C19.8933 10.07 19.9014 10.1382 19.857 10.1446C15.1498 10.8007 15.3046 10.8393 15.2942 10.763Z" fill="#4F575F"/>
<path d="M15.1376 10.3542C15.1206 10.3542 15.1056 10.3416 15.1033 10.3243C15.0936 10.2565 15.0402 10.3142 17.8376 9.89747C17.8573 9.89594 17.8743 9.90783 17.877 9.92702C17.8798 9.94604 17.8668 9.96371 17.8478 9.96642L15.1427 10.3538C15.141 10.354 15.1393 10.3542 15.1376 10.3542Z" fill="#4F575F"/>
<path d="M14.9152 9.88559C14.9055 9.81755 14.7216 9.89458 19.4679 9.19843C19.4842 9.19537 19.5046 9.20896 19.5073 9.22798C19.51 9.247 19.4971 9.26466 19.4781 9.26738C14.7709 9.92336 14.9257 9.96187 14.9152 9.88559Z" fill="#4F575F"/>
<path d="M14.7581 9.477C14.7412 9.477 14.7262 9.46443 14.7238 9.44711C14.7141 9.37906 14.5305 9.45605 19.2768 8.75978C19.2958 8.75825 19.3132 8.77014 19.3162 8.78933C19.3189 8.80835 19.306 8.82601 19.287 8.82873L14.7632 9.47666C14.7615 9.47683 14.7598 9.477 14.7581 9.477Z" fill="#4F575F"/>
<path d="M14.5692 9.03822C14.5522 9.03822 14.5373 9.02565 14.5349 9.00833C14.5252 8.94055 14.4718 8.99831 17.2693 8.58153C17.2863 8.57881 17.306 8.59206 17.3087 8.61108C17.3114 8.6301 17.2985 8.64777 17.2795 8.65048L14.5743 9.03788C14.5726 9.03805 14.5709 9.03822 14.5692 9.03822Z" fill="#4F575F"/>
<path d="M14.3792 8.59982C14.3623 8.59982 14.3473 8.58725 14.3449 8.56993C14.3352 8.50188 14.1513 8.57892 18.8976 7.8826C18.9427 7.8764 18.9531 7.94496 18.9078 7.95155L14.3843 8.59948C14.3826 8.59965 14.3809 8.59982 14.3792 8.59982Z" fill="#4F575F"/>
<path d="M14.1903 8.16107C14.1733 8.16107 14.1584 8.14851 14.156 8.13118C14.1463 8.0634 14.0929 8.12116 16.8904 7.70438C16.909 7.70268 16.9271 7.71474 16.9298 7.73393C16.9325 7.75296 16.9196 7.77062 16.9006 7.77334L14.1954 8.16073C14.1937 8.1609 14.192 8.16107 14.1903 8.16107Z" fill="#4F575F"/>
</svg>
