<svg width="12" height="20" viewBox="0 0 12 20" fill="none" xmlns="http://www.w3.org/2000/svg">
<path d="M3.69641 11.6448C3.62441 11.6448 2.04041 11.6448 1.32041 11.6448C0.936406 11.6448 0.816406 11.5008 0.816406 11.1408C0.816406 10.1808 0.816406 9.1968 0.816406 8.2368C0.816406 7.8528 0.960406 7.7328 1.32041 7.7328H3.69641C3.69641 7.6608 3.69641 6.2688 3.69641 5.6208C3.69641 4.6608 3.86441 3.7488 4.34441 2.9088C4.84841 2.0448 5.56841 1.4688 6.48041 1.1328C7.08041 0.916801 7.68041 0.820801 8.32841 0.820801H10.6804C11.0164 0.820801 11.1604 0.964801 11.1604 1.3008V4.0368C11.1604 4.3728 11.0164 4.5168 10.6804 4.5168C10.0324 4.5168 9.38441 4.5168 8.73641 4.5408C8.08841 4.5408 7.75241 4.8528 7.75241 5.5248C7.72841 6.2448 7.75241 6.9408 7.75241 7.6848H10.5364C10.9204 7.6848 11.0644 7.8288 11.0644 8.2128V11.1168C11.0644 11.5008 10.9444 11.6208 10.5364 11.6208C9.67241 11.6208 7.82441 11.6208 7.75241 11.6208V19.4448C7.75241 19.8528 7.63241 19.9968 7.20041 19.9968C6.19241 19.9968 5.20841 19.9968 4.20041 19.9968C3.84041 19.9968 3.69641 19.8528 3.69641 19.4928C3.69641 16.9728 3.69641 11.7168 3.69641 11.6448Z" fill="#008CFF"/>
</svg>
