<svg width="32" height="32" viewBox="0 0 32 32" fill="none" xmlns="http://www.w3.org/2000/svg">
<path d="M16.4996 7.62498H14.4027C14.199 7.62498 14.0038 7.70667 13.8528 7.85496C13.4415 8.25901 12.6841 8.74068 11.4117 8.74068C9.90809 8.74068 8.7444 7.95278 8.135 6.5222C8.01439 6.23912 7.73606 6.05624 7.42588 6.05624H5.56578C5.19073 6.05624 4.88672 5.75223 4.88672 5.37718C4.88672 5.00213 5.19079 4.69812 5.56578 4.69812H7.42588C8.28139 4.69812 9.0502 5.20521 9.38449 5.98995C9.77815 6.91407 10.4602 7.38256 11.4117 7.38256C12.225 7.38256 12.6705 7.11262 12.901 6.88617C13.3075 6.48687 13.8408 6.26692 14.4027 6.26692H16.4996V7.62498Z" fill="#5B5555"/>
<path d="M6.59981 8.17636C6.37479 8.17636 6.19238 7.99395 6.19238 7.76893V4.32063C6.19238 4.09562 6.37479 3.91321 6.59981 3.91321C6.82483 3.91321 7.00723 4.09562 7.00723 4.32063V7.76888C7.00729 7.9939 6.82483 8.17636 6.59981 8.17636Z" fill="#FFD597"/>
<path d="M16.5 7.62474H18.5969C18.8006 7.62474 18.9959 7.70643 19.1468 7.85471C19.5581 8.25877 20.3155 8.74044 21.5879 8.74044C23.0915 8.74044 24.2552 7.95254 24.8646 6.52196C24.9852 6.23888 25.2636 6.056 25.5737 6.056H27.4338C27.8089 6.056 28.1129 5.75198 28.1129 5.37694C28.1129 5.00189 27.8088 4.69788 27.4338 4.69788H25.5737C24.7182 4.69788 23.9494 5.20497 23.6151 5.98971C23.2215 6.91383 22.5395 7.38232 21.5879 7.38232C20.7746 7.38232 20.3291 7.11237 20.0986 6.88593C19.6922 6.48663 19.1588 6.26667 18.5969 6.26667H16.5V7.62474Z" fill="#5B5555"/>
<path d="M26.3996 8.17631C26.1745 8.17631 25.9922 7.9939 25.9922 7.76888L25.9922 4.32063C25.9922 4.09562 26.1747 3.91321 26.3997 3.91321C26.6247 3.91321 26.8071 4.09562 26.8071 4.32063L26.807 7.76888C26.8071 7.99385 26.6246 8.17631 26.3996 8.17631Z" fill="#FFD597"/>
<path d="M17.8485 28.3448H15.1514L15.8102 4.67871H17.1897L17.8485 28.3448Z" fill="#FCB44D"/>
<path d="M17.2431 6.56895C17.0117 6.65481 16.7612 6.70153 16.5005 6.70153C16.2397 6.70153 15.9893 6.65481 15.7578 6.56895L15.8105 4.67896H17.1904L17.2431 6.56895Z" fill="#FB9927"/>
<path d="M15.3768 20.2554L15.3154 22.4605H17.6849L17.6235 20.2554H15.3768Z" fill="#FB9927"/>
<path d="M9.37242 20.801C9.19123 20.801 9.02591 20.6793 8.97834 20.4958L6.6006 11.3271L4.22286 20.4958C4.16638 20.7136 3.94395 20.8443 3.72615 20.7879C3.50836 20.7314 3.37753 20.509 3.43406 20.2912L6.2062 9.60168C6.25282 9.42202 6.41497 9.29651 6.6006 9.29651C6.78622 9.29651 6.94838 9.42196 6.995 9.60168L9.76714 20.2912C9.82362 20.509 9.69284 20.7314 9.47504 20.7879C9.44071 20.7968 9.40628 20.801 9.37242 20.801Z" fill="#FFD597"/>
<path d="M7.91062 23.3263H5.29062C4.02553 23.3263 3 22.3007 3 21.0356V20.7719C3 20.413 3.29094 20.1221 3.64979 20.1221H9.5514C9.91026 20.1221 10.2012 20.413 10.2012 20.7719V21.0356C10.2012 22.3007 9.17567 23.3263 7.91062 23.3263Z" fill="#FCB44D"/>
<path d="M10.199 21.1462C10.1854 21.4353 10.118 21.7101 10.0072 21.9611H3.19472C3.08388 21.7102 3.01654 21.4353 3.00293 21.1462H10.199Z" fill="#FB9927"/>
<path d="M10.2017 20.7717V21.0349C10.2017 22.3 9.17632 23.326 7.91117 23.326H6.08008C7.34523 23.326 8.3706 22.3 8.3706 21.0349V20.7717C8.3706 20.4124 8.0795 20.1219 7.7208 20.1219H9.5519C9.9106 20.1219 10.2017 20.4124 10.2017 20.7717Z" fill="#FB9927"/>
<path d="M6.60078 9.70375C7.16503 9.70375 7.62245 9.24633 7.62245 8.68208C7.62245 8.11782 7.16503 7.6604 6.60078 7.6604C6.03652 7.6604 5.5791 8.11782 5.5791 8.68208C5.5791 9.24633 6.03652 9.70375 6.60078 9.70375Z" fill="#FCB44D"/>
<path d="M7.62214 8.68211C7.62214 9.24648 7.16472 9.70389 6.60036 9.70389C6.37713 9.70389 6.17105 9.63223 6.00293 9.51099C6.35567 9.35005 6.60036 8.99404 6.60036 8.58123C6.60036 8.24009 6.43335 7.93808 6.17653 7.75288C6.30552 7.69334 6.44933 7.66028 6.60036 7.66028C7.16472 7.66033 7.62214 8.11775 7.62214 8.68211Z" fill="#FB9927"/>
<path d="M29.1713 20.801C28.9901 20.801 28.8247 20.6793 28.7771 20.4958L26.3993 11.327L24.0216 20.4958C23.9652 20.7136 23.743 20.8444 23.525 20.7879C23.3071 20.7314 23.1764 20.5091 23.2329 20.2912L26.005 9.60168C26.0515 9.42202 26.2138 9.29651 26.3994 9.29651C26.585 9.29651 26.7472 9.42196 26.7938 9.60168L29.5659 20.2912C29.6224 20.5091 29.4917 20.7314 29.2738 20.7879C29.2395 20.7968 29.2051 20.801 29.1713 20.801Z" fill="#FFD597"/>
<path d="M27.7095 23.3263H25.0895C23.8244 23.3263 22.7988 22.3007 22.7988 21.0356V20.7719C22.7988 20.413 23.0898 20.1221 23.4486 20.1221H29.3502C29.7091 20.1221 30 20.413 30 20.7719V21.0356C30 22.3007 28.9745 23.3263 27.7095 23.3263Z" fill="#FCB44D"/>
<path d="M29.9968 21.1462C29.9832 21.4353 29.9159 21.7101 29.805 21.9611H22.9926C22.8817 21.7102 22.8144 21.4353 22.8008 21.1462H29.9968Z" fill="#FB9927"/>
<path d="M30.0005 20.7717V21.0349C30.0005 22.3 28.9752 23.326 27.71 23.326H25.8789C27.1441 23.326 28.1694 22.3 28.1694 21.0349V20.7717C28.1694 20.4124 27.8783 20.1219 27.5196 20.1219H29.3507C29.7094 20.1219 30.0005 20.4124 30.0005 20.7717Z" fill="#FB9927"/>
<path d="M10.1984 21.1464C10.1848 21.4354 10.1175 21.7103 10.0066 21.9613H8.1748C8.28618 21.7103 8.35352 21.4354 8.36713 21.1464H10.1984Z" fill="#F98824"/>
<path d="M29.9973 21.1464C29.9837 21.4354 29.9164 21.7103 29.8055 21.9613H27.9736C28.085 21.7103 28.1523 21.4354 28.166 21.1464H29.9973Z" fill="#F98824"/>
<path d="M26.3996 9.70375C26.9639 9.70375 27.4213 9.24633 27.4213 8.68208C27.4213 8.11782 26.9639 7.6604 26.3996 7.6604C25.8353 7.6604 25.3779 8.11782 25.3779 8.68208C25.3779 9.24633 25.8353 9.70375 26.3996 9.70375Z" fill="#FCB44D"/>
<path d="M27.4219 8.68211C27.4219 9.24648 26.9645 9.70389 26.4002 9.70389C26.1769 9.70389 25.9709 9.63223 25.8027 9.51099C26.1555 9.35005 26.4002 8.99404 26.4002 8.58123C26.4002 8.24009 26.2332 7.93808 25.9763 7.75288C26.1053 7.69334 26.2491 7.66028 26.4002 7.66028C26.9645 7.66033 27.4219 8.11775 27.4219 8.68211Z" fill="#FB9927"/>
<path d="M16.4999 20.1854C17.4809 20.1854 18.2761 19.3902 18.2761 18.4092C18.2761 17.4282 17.4809 16.6329 16.4999 16.6329C15.5189 16.6329 14.7236 17.4282 14.7236 18.4092C14.7236 19.3902 15.5189 20.1854 16.4999 20.1854Z" fill="#FB9927"/>
<path d="M18.2768 18.4091C18.2768 19.3902 17.4815 20.1856 16.5004 20.1856C16.2619 20.1856 16.0343 20.1383 15.8262 20.053C16.4726 19.7873 16.9279 19.1512 16.9279 18.4091C16.9279 17.667 16.4726 17.0314 15.8262 16.7658C16.0343 16.6805 16.2619 16.6332 16.5004 16.6332C17.4815 16.6332 18.2768 17.4285 18.2768 18.4091Z" fill="#F98824"/>
<path d="M16.4997 5.64176C17.2292 5.64176 17.8206 5.05036 17.8206 4.32082C17.8206 3.59128 17.2292 2.99988 16.4997 2.99988C15.7701 2.99988 15.1787 3.59128 15.1787 4.32082C15.1787 5.05036 15.7701 5.64176 16.4997 5.64176Z" fill="#FFD597"/>
<path d="M17.8203 4.32103C17.8203 5.05045 17.2286 5.64155 16.4991 5.64155C16.2917 5.64155 16.0958 5.59409 15.9209 5.50872C16.3602 5.29382 16.6632 4.84305 16.6632 4.32109C16.6632 3.79912 16.3602 3.34766 15.9209 3.13277C16.0958 3.04734 16.2917 2.99988 16.4991 2.99988C17.2286 2.99983 17.8203 3.59092 17.8203 4.32103Z" fill="#FCC16D"/>
<path d="M21.9059 27.2229H11.0947V25.8053C11.0947 25.3552 11.4595 24.9904 11.9096 24.9904H21.091C21.541 24.9904 21.9059 25.3552 21.9059 25.8053V27.2229Z" fill="#756F6F"/>
<path d="M21.9055 25.8053V27.2226H20.5571V25.8053C20.5571 25.3549 20.192 24.9904 19.7422 24.9904H21.0906C21.541 24.9904 21.9055 25.3549 21.9055 25.8053Z" fill="#5B5555"/>
<path d="M23.6835 28.7324H9.31573C9.01567 28.7324 8.77246 28.4892 8.77246 28.1892V27.3084C8.77246 27.0083 9.01567 26.7651 9.31573 26.7651H23.6835C23.9835 26.7651 24.2267 27.0083 24.2267 27.3084V28.1892C24.2267 28.4892 23.9835 28.7324 23.6835 28.7324Z" fill="#FFD597"/>
<path d="M24.2271 27.3085V28.1891C24.2271 28.489 23.9838 28.7324 23.6839 28.7324H22.335C22.6354 28.7324 22.8782 28.489 22.8782 28.1891V27.3085C22.8782 27.0081 22.6354 26.7653 22.335 26.7653H23.6839C23.9838 26.7653 24.2271 27.0081 24.2271 27.3085Z" fill="#FCC16D"/>
<path d="M18.3782 21.264H14.6214C14.3213 21.264 14.0781 21.0208 14.0781 20.7207V20.0241C14.0781 19.724 14.3213 19.4808 14.6214 19.4808H18.3782C18.6783 19.4808 18.9215 19.724 18.9215 20.0241V20.7207C18.9215 21.0208 18.6783 21.264 18.3782 21.264Z" fill="#FFD597"/>
<path d="M18.9215 20.0241V20.7206C18.9215 21.0205 18.6781 21.2638 18.3782 21.2638H17.0293C17.3297 21.2638 17.5726 21.0205 17.5726 20.7206V20.0241C17.5726 19.7242 17.3297 19.4808 17.0293 19.4808H18.3782C18.6781 19.4808 18.9215 19.7242 18.9215 20.0241Z" fill="#FCC16D"/>
</svg>
