<svg width="33" height="32" viewBox="0 0 33 32" fill="none" xmlns="http://www.w3.org/2000/svg">
<path d="M13.4143 18.4656L12.035 17.0863L2.64531 25.7543C2.02482 26.3271 2.00535 27.301 2.60249 27.8981C3.19962 28.4952 4.17355 28.4758 4.74634 27.8553L13.4143 18.4656Z" fill="#873F30"/>
<path d="M4.7051 27.8986C4.12777 28.476 3.18556 28.4809 2.60287 27.8982C2.43049 27.7258 2.30974 27.5222 2.24023 27.3057C2.75523 27.4732 3.34279 27.3507 3.74906 26.9445C3.76333 26.9302 3.77755 26.915 3.79139 26.9004L12.4596 17.5105L13.4147 18.4656L4.74656 27.8554C4.73272 27.8701 4.71894 27.8848 4.7051 27.8986Z" fill="#6C3328"/>
<path d="M14.7729 13.8182L11.5967 17.607L12.8942 18.9044L16.6829 15.7282L14.7729 13.8182Z" fill="#873F30"/>
<path d="M14.7726 13.8182L13.7462 15.0425L14.0542 15.3505C14.2809 15.5771 14.2809 15.9446 14.0542 16.1713L12.1074 18.118L12.8938 18.9044L16.6826 15.7282L14.7726 13.8182Z" fill="#6C3328"/>
<path d="M12.1224 19.6377L10.8629 18.3782C10.4988 18.0141 10.4988 17.4237 10.8629 17.0596C11.227 16.6955 11.8174 16.6955 12.1815 17.0596L13.4411 18.3191C13.8052 18.6832 13.8052 19.2735 13.4411 19.6377C13.0769 20.0018 12.4865 20.0018 12.1224 19.6377Z" fill="#BA5D4F"/>
<path d="M13.4403 19.6379C13.2581 19.8201 13.0193 19.911 12.7814 19.911C12.5427 19.911 12.3039 19.8201 12.1217 19.6379L11.167 18.6832C11.3492 18.8655 11.588 18.9564 11.8263 18.9559C12.0646 18.9563 12.3034 18.8654 12.4856 18.6832C12.85 18.3189 12.8496 17.7286 12.4856 17.3646L13.4403 18.3193C13.8047 18.6837 13.8047 19.2735 13.4403 19.6379Z" fill="#A34F41"/>
<path d="M16.4189 5.15857L19.2155 7.95517L14.825 12.3457L12.0284 9.54913L16.4189 5.15857Z" fill="#BA5D4F"/>
<path d="M20.9512 18.4752L18.1546 15.6786L22.5451 11.2881L25.3417 14.0847L20.9512 18.4752Z" fill="#A34F41"/>
<path d="M11.2406 10.5131L11.1435 10.416C10.7751 10.0476 10.7751 9.45035 11.1435 9.08192L15.9492 4.27616C16.3176 3.90778 16.9148 3.90778 17.2833 4.27616L17.3804 4.37328C17.7488 4.74166 17.7488 5.3389 17.3804 5.70733L12.5746 10.5131C12.2063 10.8815 11.609 10.8815 11.2406 10.5131Z" fill="#873F30"/>
<path d="M19.9873 19.2596L20.0844 19.3567C20.4528 19.7251 21.05 19.7251 21.4184 19.3567L26.2242 14.551C26.5926 14.1826 26.5926 13.5853 26.2242 13.2169L26.1271 13.1198C25.7587 12.7514 25.1615 12.7514 24.793 13.1198L19.9873 17.9255C19.6188 18.294 19.6188 18.8912 19.9873 19.2596Z" fill="#6C3328"/>
<path d="M20.4277 6.9281L23.5683 10.0687L16.9372 16.6997L13.7967 13.5592L20.4277 6.9281Z" fill="#FCC16D"/>
<path d="M15.3457 15.1135L21.9768 8.48246L23.5663 10.072L16.9353 16.7031L15.3457 15.1135Z" fill="#FCA62F"/>
<path d="M20.4435 6.79616L19.674 6.4816C19.4103 6.37375 19.1075 6.43468 18.906 6.6362L13.5031 12.0391C13.3016 12.2406 13.2407 12.5433 13.3485 12.8071L13.6631 13.5765C13.7906 13.8885 14.1948 13.9699 14.4332 13.7316L20.5984 7.56621C20.8368 7.32788 20.7555 6.92369 20.4435 6.79616Z" fill="#873F30"/>
<path d="M23.7045 10.057L24.0191 10.8264C24.1269 11.0902 24.066 11.3929 23.8645 11.5944L18.4616 16.9973C18.2601 17.1988 17.9574 17.2597 17.6936 17.1519L16.9242 16.8373C16.6122 16.7098 16.5308 16.3056 16.7691 16.0673L22.9345 9.90194C23.1728 9.66361 23.577 9.74498 23.7045 10.057Z" fill="#6C3328"/>
<path d="M26.5526 25.1778H15.0967V23.5702C15.0967 23.2383 15.3657 22.9692 15.6976 22.9692H25.9517C26.2836 22.9692 26.5526 23.2383 26.5526 23.5702V25.1778Z" fill="#BA5D4F"/>
<path d="M26.5524 23.5704V25.178H25.2953V23.5704C25.2953 23.2387 25.0261 22.9695 24.6943 22.9695H25.9515C26.2832 22.9695 26.5524 23.2387 26.5524 23.5704Z" fill="#A34F41"/>
<path d="M29.0779 28.3332H12.5724C12.1345 28.3332 11.8437 27.88 12.026 27.482L12.6095 26.208C13.1149 25.1044 14.2173 24.3967 15.4312 24.3967H26.2191C27.4329 24.3967 28.5354 25.1044 29.0408 26.208L29.6243 27.482C29.8066 27.88 29.5157 28.3332 29.0779 28.3332Z" fill="#873F30"/>
<path d="M29.078 28.3333H27.471C27.9085 28.3333 28.1994 27.8801 28.0173 27.4823L27.4338 26.2077C26.9284 25.1044 25.8257 24.3965 24.6123 24.3965H26.2186C27.4325 24.3965 28.5353 25.1044 29.0407 26.2077L29.6242 27.4823C29.8063 27.8802 29.5155 28.3333 29.078 28.3333Z" fill="#6C3328"/>
<path d="M28.2033 21.9742C28.0964 21.9742 27.9895 21.9333 27.9081 21.8515C27.7461 21.6884 27.7469 21.4248 27.9099 21.2628L28.3603 20.815C28.5234 20.6529 28.787 20.6538 28.9491 20.8167C29.1111 20.9798 29.1103 21.2433 28.9473 21.4054L28.4968 21.8532C28.4156 21.9339 28.3094 21.9742 28.2033 21.9742Z" fill="#FCC16D"/>
<path d="M26.8893 21.0433C26.8558 21.0433 26.8217 21.0392 26.7877 21.0307C26.5648 20.9748 26.4294 20.7487 26.4852 20.5257L26.6415 19.9028C26.6974 19.6798 26.9237 19.5445 27.1465 19.6004C27.3694 19.6563 27.5048 19.8824 27.4489 20.1053L27.2927 20.7282C27.2453 20.9172 27.0757 21.0433 26.8893 21.0433Z" fill="#FCC16D"/>
<path d="M29.1269 23.2934C28.9396 23.2934 28.7694 23.166 28.723 22.9759C28.6683 22.7525 28.805 22.5272 29.0284 22.4727L29.6524 22.32C29.8758 22.2653 30.101 22.4021 30.1556 22.6255C30.2102 22.8488 30.0735 23.0741 29.8502 23.1287L29.2262 23.2813C29.1929 23.2894 29.1597 23.2934 29.1269 23.2934Z" fill="#FCC16D"/>
</svg>
