<svg width="33" height="32" viewBox="0 0 33 32" fill="none" xmlns="http://www.w3.org/2000/svg">
<g clip-path="url(#clip0_309_11402)">
<path d="M9.87803 8.1347C10.0552 8.0166 11.7309 7.87634 11.9375 7.87634C12.1442 7.87634 12.3066 8.03874 12.3066 8.24543V11.6632C12.3066 11.8773 12.1442 12.0397 11.9375 12.0397H10.7417C9.87803 12.0397 9.17676 11.3384 9.17676 10.4747V9.44128C9.17676 9.17554 9.24319 8.92456 9.3613 8.7031C9.48679 8.47427 9.66396 8.27496 9.87803 8.1347Z" fill="#FEB784"/>
<path d="M9.59765 4.68739C9.62718 4.48809 9.81172 4.34045 10.0184 4.36998C13.4214 4.82765 11.0223 6.07517 12.2699 8.45948C12.3584 8.63664 12.292 8.86548 12.1075 8.96144C11.7088 9.16813 11.2364 9.29362 10.8083 9.25671C10.4023 9.21981 10.0332 9.04264 9.78958 8.67355C9.50169 8.23803 9.42049 7.46294 9.43525 6.67309C9.45001 5.92015 9.53121 5.15983 9.59765 4.68739Z" fill="#753C22"/>
<path d="M22.1609 7.87634C22.5743 7.89849 22.9434 8.09041 23.2091 8.37092C23.4675 8.65143 23.6299 9.0279 23.6299 9.44128V10.4747C23.6299 11.3384 22.9286 12.0397 22.0649 12.0397H20.8765C20.6698 12.0397 20.5 11.8773 20.5 11.6632V8.34139C20.5 8.1347 20.6698 7.96492 20.8765 7.96492C22.2938 7.96492 22.1092 7.87634 22.1609 7.87634Z" fill="#FEB784"/>
<path d="M17.0971 21.0011L18.3225 31.5718V31.6235C18.3225 31.8302 18.1601 31.9926 17.9534 31.9926H14.7128C14.7128 31.9926 14.6907 31.9926 14.6833 31.9926C14.484 31.9778 14.329 31.8007 14.3437 31.594L15.5691 21.0233C15.5765 20.8166 15.7389 20.6542 15.9456 20.6542H16.7207C16.92 20.6542 17.0824 20.8092 17.0971 21.0011Z" fill="#95573A"/>
<path d="M14.5508 15.0588C14.5508 14.8522 14.6467 14.6824 14.7575 14.6824C14.8756 14.6824 14.9715 14.8522 14.9715 15.0588C15.0085 16.203 17.7397 16.2178 17.6954 15.1696C17.6954 14.9629 17.7914 14.8005 17.9095 14.8005C18.0202 14.8005 18.1162 14.9629 18.1162 15.1696V18.1518C18.1162 18.3585 18.0202 18.5209 17.9095 18.5209C17.7766 19.2074 17.4075 19.5617 16.3298 19.7167C15.3849 19.4805 15.2816 18.7719 14.7575 18.5209C14.6467 18.5209 14.5508 18.3585 14.5508 18.1518V15.0588Z" fill="#FEB784"/>
<path d="M20.4999 8.34134C20.4999 8.13465 20.6697 7.96487 20.8763 7.96487C21.083 7.96487 21.2454 8.13465 21.2454 8.34134V11.6484C21.2454 12.9845 20.7066 14.1951 19.8281 15.0735C18.9497 15.9519 17.7391 16.4908 16.403 16.4908C15.0743 16.4908 13.8637 15.9519 12.9852 15.0735C12.1068 14.1951 11.5605 12.9845 11.5605 11.6484V5.69128C11.5605 5.48459 11.7303 5.31481 11.937 5.31481C12.1437 5.31481 12.3061 5.48459 12.3061 5.69128C13.657 4.52496 21.9098 4.17063 20.4999 8.34134Z" fill="#FEC9A3"/>
<path d="M20.0279 0.140222C20.3674 0.162368 22.9732 0.442875 23.6006 3.91969C23.608 3.94922 23.608 3.97136 23.608 4.00089C23.6006 4.17805 23.5194 8.51854 21.6371 8.98359C21.6297 8.98359 20.552 9.33053 20.0869 7.48509C20.0352 7.33007 19.5997 6.1047 18.4703 6.12684H18.4629H12.1958C12.1589 6.12684 12.122 6.12684 12.0924 6.11208C11.7455 6.04564 8.29821 5.26318 8.0177 1.90447C7.96603 1.62396 7.67814 -0.354357 9.56788 0.0516411H9.58264C12.3508 0.760292 13.9157 0.597892 15.8941 0.383821C17.0235 0.265713 18.2931 0.132841 19.9836 0.132841C19.9983 0.132841 20.0131 0.132841 20.0279 0.140222Z" fill="#7A432A"/>
<path d="M18.3005 20.2186L17.518 22.8318C17.4737 22.9942 17.3187 23.1049 17.1637 23.1049H15.5028C15.3256 23.1049 15.178 22.9794 15.1411 22.817L14.3586 20.1965C14.2996 19.9972 14.4103 19.7905 14.6096 19.7314C14.6465 19.7167 14.6761 19.7167 14.713 19.7167H17.9536C18.1602 19.7167 18.3226 19.8791 18.3226 20.0858C18.3226 20.1374 18.3153 20.1743 18.3005 20.2186Z" fill="#743B20"/>
<path fill-rule="evenodd" clip-rule="evenodd" d="M14.1822 21.2374L16.3303 19.7168L14.1822 17.5465L12.1006 18.1444L14.1822 21.2374Z" fill="#E0E0DE"/>
<path fill-rule="evenodd" clip-rule="evenodd" d="M18.4856 21.2374L16.3301 19.7168L18.4856 17.5465L20.5672 18.1444L18.4856 21.2374Z" fill="#E0E0DE"/>
<path fill-rule="evenodd" clip-rule="evenodd" d="M9.52344 18.9268L9.97373 19.5764L12.5869 23.3264C12.609 23.3633 12.6238 23.3928 12.6385 23.4297L14.5504 29.7854L15.2296 23.9095L15.3329 23.0606C15.2369 23.0089 15.1631 22.9204 15.141 22.817L14.58 20.9494L14.1813 21.2373L14.0632 21.0602L12.5573 18.8235L12.1144 18.1665L9.52344 18.9268Z" fill="#4C5D72"/>
<path fill-rule="evenodd" clip-rule="evenodd" d="M18.6036 21.0602L18.4855 21.2373L18.0869 20.9494L17.5185 22.8318C17.489 22.9351 17.4226 23.0163 17.334 23.0606L17.4373 23.9095L18.1165 29.7854L20.0283 23.4297C20.0431 23.3928 20.0579 23.3633 20.08 23.3264L22.6858 19.5764L23.1361 18.9268L20.5524 18.1665L20.1095 18.8235L18.6036 21.0602Z" fill="#4C5D72"/>
<path fill-rule="evenodd" clip-rule="evenodd" d="M9.5239 18.9269L6.88122 19.702C6.85169 19.7093 6.82955 19.7167 6.8074 19.7315C4.44523 20.8019 4.60763 26.6851 4.7036 30.1324C4.71836 30.686 4.73312 31.1732 4.73312 31.6235C4.73312 31.8302 4.9029 31.9926 5.10959 31.9926H16.3373L12.639 23.4298C12.6242 23.3929 12.6095 23.3633 12.5873 23.3264L9.97418 19.5765L9.5239 18.9269Z" fill="#374559"/>
<path fill-rule="evenodd" clip-rule="evenodd" d="M23.1429 18.9269L25.7856 19.702C25.8151 19.7093 25.8373 19.7167 25.8594 19.7315C28.2216 20.8019 28.0592 26.6851 27.9632 30.1324C27.9484 30.686 27.9337 31.1732 27.9337 31.6235C27.9337 31.8302 27.7639 31.9926 27.5572 31.9926H16.3369L20.0278 23.4298C20.0426 23.3929 20.0573 23.3633 20.0795 23.3264L22.6852 19.5765L23.1429 18.9269Z" fill="#374559"/>
</g>
<defs>
<clipPath id="clip0_309_11402">
<path d="M0.333984 0H32.334V16C32.334 24.8366 25.1705 32 16.334 32C7.49743 32 0.333984 24.8366 0.333984 16V0Z" fill="white"/>
</clipPath>
</defs>
</svg>
