<svg width="24" height="25" viewBox="0 0 24 25" fill="none" xmlns="http://www.w3.org/2000/svg">
<g clip-path="url(#clip0_1902_8125)">
<path d="M23.9279 7.44922C23.8694 6.17188 23.6666 5.29956 23.3699 4.53638C23.0687 3.73566 22.5963 3.01038 21.9858 2.41089C21.3865 1.80042 20.6611 1.32782 19.8604 1.02643C19.097 0.72998 18.2249 0.527283 16.9475 0.469238C15.6678 0.410645 15.2589 0.396729 12 0.396729C8.74109 0.396729 8.33221 0.410645 7.05249 0.468872C5.77515 0.527283 4.90302 0.730164 4.13965 1.02679C3.33893 1.328 2.61365 1.80042 2.01416 2.41089C1.40369 3.01019 0.931091 3.73547 0.6297 4.53619C0.333252 5.29956 0.130554 6.17188 0.0725098 7.44904C0.013916 8.72894 0 9.13764 0 12.3965C0 15.6556 0.013916 16.0645 0.0725098 17.3442C0.130737 18.6214 0.333618 19.4937 0.630249 20.2571C0.931458 21.0576 1.40387 21.7831 2.01434 22.3824C2.61365 22.9929 3.33911 23.4653 4.13983 23.7665C4.90302 24.0633 5.77533 24.266 7.05267 24.3244C8.33258 24.3828 8.74127 24.3965 12.0002 24.3965C15.2591 24.3965 15.668 24.3828 16.9477 24.3244C18.225 24.266 19.0972 24.0633 19.8605 23.7665C21.4724 23.1432 22.7466 21.869 23.3699 20.2571C23.6667 19.4937 23.8694 18.6214 23.9279 17.3442C23.9861 16.0643 24 15.6556 24 12.3967C24 9.13764 23.9861 8.72894 23.9279 7.44922ZM21.7678 17.2459C21.7145 18.416 21.5189 19.0513 21.3547 19.4741C20.9509 20.5208 20.1238 21.3478 19.0772 21.7516C18.6544 21.9158 18.019 22.1114 16.849 22.1647C15.5839 22.2225 15.2043 22.2346 12 22.2346C8.79547 22.2346 8.41608 22.2225 7.15082 22.1647C5.98096 22.1114 5.34558 21.9158 4.92261 21.7516C4.40149 21.5591 3.92999 21.2524 3.54291 20.8538C3.14429 20.4667 2.83759 19.9954 2.64514 19.4741C2.4809 19.0513 2.28534 18.416 2.23206 17.2459C2.17438 15.9807 2.16211 15.6011 2.16211 12.3969C2.16211 9.19257 2.17438 8.81317 2.23206 7.54773C2.28552 6.37769 2.4809 5.74231 2.64514 5.31952C2.83759 4.79822 3.14447 4.32672 3.54291 3.93964C3.92999 3.54102 4.40149 3.23431 4.92279 3.04205C5.34558 2.87762 5.98096 2.68225 7.151 2.62878C8.41626 2.57111 8.79584 2.55884 12 2.55884H11.9998C15.204 2.55884 15.5836 2.57111 16.849 2.62897C18.019 2.68225 18.6542 2.87781 19.0772 3.04205C19.5983 3.2345 20.0698 3.5412 20.4569 3.93964C20.8555 4.32672 21.1622 4.79822 21.3545 5.31952C21.5189 5.74231 21.7145 6.37769 21.7678 7.54773C21.8254 8.81299 21.8377 9.19257 21.8377 12.3967C21.8377 15.6011 21.8256 15.9805 21.7678 17.2459Z" fill="url(#paint0_linear_1902_8125)"/>
<path d="M11.9999 6.23438C8.59674 6.23438 5.83789 8.99341 5.83789 12.3966C5.83789 15.7998 8.59674 18.5587 11.9999 18.5587C15.4033 18.5587 18.1622 15.7998 18.1622 12.3966C18.1622 8.99341 15.4033 6.23438 11.9999 6.23438ZM11.9999 16.3965C9.79095 16.3964 8 14.6056 8.00018 12.3964C8.00018 10.1874 9.79095 8.39648 12.0001 8.39648C14.2093 8.39667 16.0001 10.1874 16.0001 12.3964C16.0001 14.6056 14.2091 16.3965 11.9999 16.3965Z" fill="url(#paint1_linear_1902_8125)"/>
<path d="M19.8459 5.99115C19.8459 6.78638 19.2012 7.43109 18.4059 7.43109C17.6105 7.43109 16.9658 6.78638 16.9658 5.99115C16.9658 5.19574 17.6105 4.55103 18.4059 4.55103C19.2012 4.55103 19.8459 5.19574 19.8459 5.99115Z" fill="url(#paint2_linear_1902_8125)"/>
</g>
<defs>
<linearGradient id="paint0_linear_1902_8125" x1="2.01404" y1="22.3825" x2="21.986" y2="2.41058" gradientUnits="userSpaceOnUse">
<stop stop-color="#FFD600"/>
<stop offset="0.5" stop-color="#FF0100"/>
<stop offset="1" stop-color="#D800B9"/>
</linearGradient>
<linearGradient id="paint1_linear_1902_8125" x1="7.64276" y1="16.7538" x2="16.3573" y2="8.03924" gradientUnits="userSpaceOnUse">
<stop stop-color="#FF6400"/>
<stop offset="0.5" stop-color="#FF0100"/>
<stop offset="1" stop-color="#FD0056"/>
</linearGradient>
<linearGradient id="paint2_linear_1902_8125" x1="17.3877" y1="7.00928" x2="19.4241" y2="4.97285" gradientUnits="userSpaceOnUse">
<stop stop-color="#F30072"/>
<stop offset="1" stop-color="#E50097"/>
</linearGradient>
<clipPath id="clip0_1902_8125">
<rect width="24" height="24" fill="white" transform="translate(0 0.396729)"/>
</clipPath>
</defs>
</svg>
