<svg width="18" height="19" viewBox="0 0 18 19" fill="none" xmlns="http://www.w3.org/2000/svg">
<path d="M15.8078 13.8133C16.5365 12.6261 16.9214 11.2598 16.9195 9.86671C16.9214 8.47358 16.5365 7.10709 15.8078 5.91978L15.8037 5.91315C15.1276 4.81115 14.1802 3.90094 13.052 3.26951C11.9238 2.63808 10.6525 2.30652 9.3596 2.30652C8.06672 2.30652 6.79544 2.63808 5.66725 3.26951C4.53905 3.90094 3.59163 4.81115 2.91553 5.91315L2.91145 5.91978C2.1845 7.10789 1.7998 8.47369 1.7998 9.86655C1.7998 11.2594 2.1845 12.6252 2.91145 13.8133L2.9157 13.8201C3.59183 14.9221 4.53925 15.8322 5.66744 16.4636C6.79563 17.095 8.06688 17.4265 9.35973 17.4265C10.6526 17.4265 11.9238 17.0949 13.052 16.4635C14.1802 15.8321 15.1276 14.9219 15.8037 13.8199L15.8078 13.8133ZM10.3259 16.1307C10.1818 16.2697 10.016 16.3843 9.83494 16.4698C9.68639 16.5404 9.52398 16.577 9.35952 16.577C9.19505 16.577 9.03264 16.5404 8.88409 16.4698C8.53966 16.2939 8.24482 16.0344 8.02651 15.7152C7.58071 15.0709 7.25034 14.354 7.05019 13.5965C7.8192 13.5492 8.589 13.5251 9.3596 13.5242C10.1299 13.5242 10.8997 13.5483 11.6692 13.5965C11.5584 13.986 11.42 14.367 11.255 14.7368C11.0378 15.2568 10.7223 15.7301 10.3259 16.1307ZM2.66393 10.2913H5.71319C5.73306 11.1421 5.8253 11.9897 5.98891 12.8249C5.15535 12.8983 4.32393 12.9991 3.49466 13.1273C3.00901 12.256 2.72511 11.2869 2.66393 10.2913ZM3.49466 6.60595C4.32359 6.73438 5.15529 6.83518 5.98976 6.90834C5.82586 7.74345 5.73345 8.59102 5.71353 9.44183H2.66393C2.72514 8.44628 3.00903 7.47717 3.49466 6.60595ZM8.39329 3.60238C8.53737 3.46334 8.70322 3.3488 8.88426 3.26329C9.03281 3.19271 9.19522 3.15609 9.35968 3.15609C9.52415 3.15609 9.68656 3.19271 9.83511 3.26329C10.1795 3.43921 10.4744 3.69866 10.6927 4.01792C11.1385 4.66219 11.4689 5.37908 11.669 6.13655C10.9 6.18389 10.1302 6.20802 9.3596 6.20892C8.58934 6.20892 7.81948 6.1848 7.05002 6.13655C7.16083 5.74711 7.29924 5.36606 7.46419 4.99629C7.68141 4.47624 7.99687 4.00297 8.39329 3.60238ZM16.0553 9.44183H13.006C12.9861 8.59099 12.8939 7.74337 12.7303 6.90817C13.5639 6.83478 14.3953 6.73398 15.2245 6.60578C15.7102 7.47705 15.9941 8.44622 16.0553 9.44183ZM6.84327 12.7588C6.67717 11.9462 6.58337 11.1204 6.56296 10.2913H12.1564C12.1362 11.1205 12.0426 11.9463 11.8766 12.759C11.0385 12.704 10.1995 12.6759 9.3596 12.6747C8.52037 12.6747 7.68159 12.7028 6.84327 12.7588ZM11.8759 6.97426C12.042 7.78689 12.1358 8.61265 12.1562 9.44183H6.56296C6.58317 8.6126 6.67681 7.78679 6.84276 6.97409C7.68085 7.02913 8.51986 7.05722 9.35977 7.05835C10.199 7.05835 11.0378 7.03026 11.8761 6.97409L11.8759 6.97426ZM13.0057 10.2913H16.0553C15.9941 11.2868 15.7102 12.2559 15.2245 13.1271C14.3955 12.9987 13.5638 12.8979 12.7294 12.8248C12.8933 11.9896 12.9858 11.1421 13.0057 10.2913ZM14.7152 5.82413C13.9904 5.92867 13.2634 6.01146 12.5344 6.07251C12.4034 5.5846 12.2344 5.1077 12.029 4.64615C11.8414 4.22145 11.6054 3.81984 11.3257 3.44931C12.6776 3.86394 13.8639 4.69511 14.7152 5.82413ZM4.61472 5.12149C5.39023 4.34524 6.34432 3.77107 7.39335 3.44931C7.37738 3.47004 7.36107 3.48975 7.34545 3.51064C6.80623 4.28683 6.41345 5.15506 6.18649 6.07251C5.45734 6.01078 4.7299 5.92799 4.00415 5.82413C4.1913 5.57618 4.3953 5.34141 4.61472 5.12149ZM4.00415 13.909C4.72888 13.8044 5.45582 13.7216 6.18496 13.6606C6.31598 14.1485 6.48496 14.6254 6.69037 15.0869C6.87794 15.5116 7.11395 15.9132 7.39369 16.2838C6.04181 15.8691 4.8555 15.038 4.00415 13.909ZM14.1048 14.6116C13.3293 15.3879 12.3752 15.962 11.3262 16.2838C11.3422 16.2631 11.3585 16.2433 11.3741 16.2224C11.9133 15.4463 12.3061 14.578 12.533 13.6606C13.2622 13.7223 13.9896 13.8051 14.7154 13.909C14.5282 14.1569 14.3242 14.3917 14.1048 14.6116Z" fill="#B3B3B3"/>
</svg>
