<svg width="20" height="19" viewBox="0 0 20 19" fill="none" xmlns="http://www.w3.org/2000/svg">
<path d="M9.93999 4.02222H8.47373C8.33129 4.02222 8.19474 4.07934 8.0892 4.18303C7.80158 4.46557 7.27198 4.80238 6.38223 4.80238C5.33081 4.80238 4.51709 4.25143 4.09097 3.25109C4.00663 3.05315 3.81201 2.92526 3.59511 2.92526H2.29442C2.03216 2.92526 1.81958 2.71268 1.81958 2.45042C1.81958 2.18817 2.0322 1.97559 2.29442 1.97559H3.59511C4.19333 1.97559 4.73093 2.33018 4.96468 2.87891C5.23995 3.52511 5.71685 3.8527 6.38223 3.8527C6.95095 3.8527 7.26247 3.66394 7.42365 3.5056C7.70784 3.22638 8.0808 3.07258 8.47373 3.07258H9.93999V4.02222Z" fill="#5B5555"/>
<path d="M3.01781 4.40756C2.86046 4.40756 2.73291 4.28001 2.73291 4.12266V1.71141C2.73291 1.55406 2.86046 1.42651 3.01781 1.42651C3.17515 1.42651 3.3027 1.55406 3.3027 1.71141V4.12262C3.30274 4.27997 3.17515 4.40756 3.01781 4.40756Z" fill="#FFD597"/>
<path d="M9.93994 4.02197H11.4062C11.5486 4.02197 11.6852 4.07909 11.7907 4.18279C12.0784 4.46532 12.608 4.80214 13.4977 4.80214C14.5491 4.80214 15.3628 4.25119 15.789 3.25085C15.8733 3.0529 16.0679 2.92502 16.2848 2.92502H17.5855C17.8478 2.92502 18.0604 2.71243 18.0604 2.45018C18.0604 2.18793 17.8477 1.97534 17.5855 1.97534H16.2848C15.6866 1.97534 15.149 2.32993 14.9153 2.87867C14.64 3.52486 14.1631 3.85246 13.4977 3.85246C12.929 3.85246 12.6175 3.6637 12.4563 3.50536C12.1721 3.22614 11.7991 3.07233 11.4062 3.07233H9.93994V4.02197Z" fill="#5B5555"/>
<path d="M16.862 4.40752C16.7047 4.40752 16.5771 4.27997 16.5771 4.12262L16.5772 1.71141C16.5772 1.55406 16.7048 1.42651 16.8621 1.42651C17.0195 1.42651 17.147 1.55406 17.147 1.71141L17.1469 4.12262C17.147 4.27993 17.0194 4.40752 16.862 4.40752Z" fill="#FFD597"/>
<path d="M10.8828 18.5106H8.99683L9.4575 1.96191H10.4222L10.8828 18.5106Z" fill="#FCB44D"/>
<path d="M10.459 3.28351C10.2972 3.34354 10.1221 3.37621 9.93972 3.37621C9.75737 3.37621 9.58225 3.34354 9.42041 3.28351L9.45725 1.96191H10.4222L10.459 3.28351Z" fill="#FB9927"/>
<path d="M9.15425 12.854L9.11133 14.396H10.7682L10.7253 12.854H9.15425Z" fill="#FB9927"/>
<path d="M4.95584 13.2356C4.82914 13.2356 4.71353 13.1504 4.68027 13.0221L3.01762 6.61082L1.35497 13.0221C1.31547 13.1744 1.15994 13.2658 1.00764 13.2264C0.855348 13.1869 0.763862 13.0314 0.803392 12.879L2.74183 5.40431C2.77443 5.27868 2.88782 5.19092 3.01762 5.19092C3.14742 5.19092 3.26081 5.27864 3.29341 5.40431L5.23185 12.879C5.27134 13.0314 5.17989 13.1869 5.0276 13.2264C5.00359 13.2326 4.97951 13.2356 4.95584 13.2356Z" fill="#FFD597"/>
<path d="M3.93379 15.0011H2.10174C1.21711 15.0011 0.5 14.2839 0.5 13.3993V13.2149C0.5 12.9639 0.703439 12.7605 0.954373 12.7605H5.08112C5.33205 12.7605 5.53549 12.9639 5.53549 13.2149V13.3993C5.53549 14.2839 4.81839 15.0011 3.93379 15.0011Z" fill="#FCB44D"/>
<path d="M5.53383 13.4771C5.52432 13.6792 5.47723 13.8714 5.39972 14.0469H0.636067C0.558556 13.8714 0.511467 13.6792 0.501953 13.4771H5.53383Z" fill="#FB9927"/>
<path d="M5.53564 13.2149V13.3989C5.53564 14.2835 4.81864 15.001 3.93397 15.001H2.65356C3.53823 15.001 4.25523 14.2835 4.25523 13.3989V13.2149C4.25523 12.9636 4.05168 12.7605 3.80085 12.7605H5.08126C5.33209 12.7605 5.53564 12.9636 5.53564 13.2149Z" fill="#FB9927"/>
<path d="M3.01788 5.47595C3.41244 5.47595 3.7323 5.15609 3.7323 4.76153C3.7323 4.36697 3.41244 4.04712 3.01788 4.04712C2.62332 4.04712 2.30347 4.36697 2.30347 4.76153C2.30347 5.15609 2.62332 5.47595 3.01788 5.47595Z" fill="#FCB44D"/>
<path d="M3.7321 4.7614C3.7321 5.15604 3.41225 5.47589 3.01761 5.47589C2.86152 5.47589 2.71741 5.42578 2.59985 5.341C2.84651 5.22846 3.01761 4.97952 3.01761 4.69086C3.01761 4.45232 2.90083 4.24113 2.72125 4.11163C2.81144 4.07 2.912 4.04688 3.01761 4.04688C3.41225 4.04691 3.7321 4.36677 3.7321 4.7614Z" fill="#FB9927"/>
<path d="M18.8003 13.2356C18.6736 13.2356 18.558 13.1504 18.5247 13.0221L16.862 6.61079L15.1994 13.0221C15.1599 13.1744 15.0046 13.2659 14.8521 13.2264C14.6998 13.1869 14.6083 13.0314 14.6479 12.879L16.5863 5.40431C16.6188 5.27868 16.7323 5.19092 16.8621 5.19092C16.9919 5.19092 17.1053 5.27864 17.1379 5.40431L19.0763 12.879C19.1158 13.0314 19.0244 13.1869 18.872 13.2264C18.848 13.2326 18.824 13.2356 18.8003 13.2356Z" fill="#FFD597"/>
<path d="M17.7783 15.0011H15.9462C15.0616 15.0011 14.3445 14.2839 14.3445 13.3993V13.2149C14.3445 12.9639 14.5479 12.7605 14.7989 12.7605H18.9256C19.1765 12.7605 19.38 12.9639 19.38 13.2149V13.3993C19.38 14.2839 18.6629 15.0011 17.7783 15.0011Z" fill="#FCB44D"/>
<path d="M19.3781 13.4771C19.3686 13.6792 19.3215 13.8714 19.244 14.0469H14.4803C14.4028 13.8714 14.3557 13.6792 14.3462 13.4771H19.3781Z" fill="#FB9927"/>
<path d="M19.3801 13.2149V13.3989C19.3801 14.2835 18.6631 15.001 17.7785 15.001H16.498C17.3827 15.001 18.0997 14.2835 18.0997 13.3989V13.2149C18.0997 12.9636 17.8962 12.7605 17.6453 12.7605H18.9257C19.1766 12.7605 19.3801 12.9636 19.3801 13.2149Z" fill="#FB9927"/>
<path d="M5.53393 13.4771C5.52442 13.6792 5.47733 13.8714 5.39982 14.0469H4.1189C4.19678 13.8714 4.24387 13.6792 4.25338 13.4771H5.53393Z" fill="#F98824"/>
<path d="M19.3782 13.4771C19.3687 13.6792 19.3216 13.8714 19.2441 14.0469H17.9631C18.041 13.8714 18.0881 13.6792 18.0976 13.4771H19.3782Z" fill="#F98824"/>
<path d="M16.8621 5.47595C17.2567 5.47595 17.5765 5.15609 17.5765 4.76153C17.5765 4.36697 17.2567 4.04712 16.8621 4.04712C16.4676 4.04712 16.1477 4.36697 16.1477 4.76153C16.1477 5.15609 16.4676 5.47595 16.8621 5.47595Z" fill="#FCB44D"/>
<path d="M17.5768 4.7614C17.5768 5.15604 17.257 5.47589 16.8623 5.47589C16.7062 5.47589 16.5621 5.42578 16.4446 5.341C16.6912 5.22846 16.8623 4.97952 16.8623 4.69086C16.8623 4.45232 16.7456 4.24113 16.566 4.11163C16.6562 4.07 16.7567 4.04688 16.8623 4.04688C17.257 4.04691 17.5768 4.36677 17.5768 4.7614Z" fill="#FB9927"/>
<path d="M9.94006 12.8049C10.626 12.8049 11.1821 12.2488 11.1821 11.5629C11.1821 10.8769 10.626 10.3208 9.94006 10.3208C9.25409 10.3208 8.698 10.8769 8.698 11.5629C8.698 12.2488 9.25409 12.8049 9.94006 12.8049Z" fill="#FB9927"/>
<path d="M11.1824 11.5626C11.1824 12.2487 10.6263 12.8048 9.9402 12.8048C9.77341 12.8048 9.61426 12.7718 9.46875 12.7121C9.9208 12.5264 10.2391 12.0815 10.2391 11.5626C10.2391 11.0437 9.9208 10.5993 9.46875 10.4135C9.61426 10.3539 9.77341 10.3208 9.9402 10.3208C10.6263 10.3208 11.1824 10.8769 11.1824 11.5626Z" fill="#F98824"/>
<path d="M9.94004 2.6352C10.4502 2.6352 10.8637 2.22166 10.8637 1.71152C10.8637 1.20139 10.4502 0.787842 9.94004 0.787842C9.4299 0.787842 9.01636 1.20139 9.01636 1.71152C9.01636 2.22166 9.4299 2.6352 9.94004 2.6352Z" fill="#FFD597"/>
<path d="M10.8638 1.71167C10.8638 2.22172 10.45 2.63505 9.93998 2.63505C9.79491 2.63505 9.65792 2.60187 9.53564 2.54217C9.84281 2.3919 10.0547 2.07669 10.0547 1.71171C10.0547 1.34672 9.84281 1.03103 9.53564 0.880767C9.65796 0.821029 9.79495 0.787842 9.93998 0.787842C10.45 0.787805 10.8638 1.20114 10.8638 1.71167Z" fill="#FCC16D"/>
<path d="M13.7197 17.7261H6.15991V16.7349C6.15991 16.4202 6.41501 16.165 6.72974 16.165H13.1499C13.4646 16.165 13.7197 16.4201 13.7197 16.7349V17.7261Z" fill="#756F6F"/>
<path d="M13.7197 16.7349V17.726H12.7769V16.7349C12.7769 16.42 12.5216 16.165 12.207 16.165H13.1499C13.4648 16.165 13.7197 16.42 13.7197 16.7349Z" fill="#5B5555"/>
<path d="M14.9633 18.7814H4.91651C4.70669 18.7814 4.53662 18.6114 4.53662 18.4015V17.7856C4.53662 17.5758 4.70669 17.4058 4.91651 17.4058H14.9633C15.1731 17.4058 15.3432 17.5758 15.3432 17.7856V18.4015C15.3432 18.6114 15.1731 18.7814 14.9633 18.7814Z" fill="#FFD597"/>
<path d="M15.3436 17.7856V18.4014C15.3436 18.6111 15.1734 18.7813 14.9637 18.7813H14.0205C14.2306 18.7813 14.4004 18.6111 14.4004 18.4014V17.7856C14.4004 17.5756 14.2306 17.4058 14.0205 17.4058H14.9637C15.1734 17.4058 15.3436 17.5756 15.3436 17.7856Z" fill="#FCC16D"/>
<path d="M11.2535 13.5591H8.62647C8.41665 13.5591 8.24658 13.3891 8.24658 13.1793V12.6921C8.24658 12.4823 8.41665 12.3123 8.62647 12.3123H11.2535C11.4633 12.3123 11.6334 12.4823 11.6334 12.6921V13.1793C11.6333 13.3891 11.4633 13.5591 11.2535 13.5591Z" fill="#FFD597"/>
<path d="M11.6334 12.6921V13.1791C11.6334 13.3889 11.4632 13.559 11.2535 13.559H10.3103C10.5204 13.559 10.6902 13.3889 10.6902 13.1791V12.6921C10.6902 12.4824 10.5204 12.3123 10.3103 12.3123H11.2535C11.4632 12.3123 11.6334 12.4824 11.6334 12.6921Z" fill="#FCC16D"/>
</svg>
