<svg width="18" height="18" viewBox="0 0 18 18" fill="none" xmlns="http://www.w3.org/2000/svg">
<path d="M16.9461 8.97422C16.5552 8.69766 16.3992 8.20809 16.5702 7.77476C16.6477 7.57839 16.7008 7.35962 16.7008 7.12902C16.7008 6.27846 15.9739 5.58893 15.0778 5.58893H11.0995C11.4521 4.65376 11.743 3.69866 11.9701 2.72916C12.1625 1.9075 11.5983 1.09777 10.7274 0.939633C9.93461 0.7957 9.15745 1.24453 8.92382 1.97787C8.48133 3.3667 7.7124 4.64813 6.66839 5.72126C6.65269 5.73739 6.6371 5.75359 6.62161 5.76986C6.61968 5.77189 6.61771 5.77393 6.61581 5.77596C6.24083 6.17196 5.71266 6.40619 5.15169 6.40619L2.99016 6.40609C2.56124 6.40606 2.2135 6.73613 2.2135 7.14326V15.0559C2.2135 15.463 2.56124 15.7931 2.99016 15.7931L4.40698 15.793C4.99858 15.7915 5.57043 16.0139 5.97685 16.4217C6.89184 17.3399 8.18733 17.9128 9.62403 17.9128H13.2197V17.9125H14.3218C15.2321 17.9125 15.9942 17.2053 15.9765 16.3414C15.9722 16.1339 15.9196 15.9362 15.843 15.7562C15.6538 15.3119 15.7764 14.7952 16.1769 14.5032C16.5719 14.2152 16.827 13.7646 16.8167 13.2606C16.8124 13.0492 16.7546 12.8483 16.6707 12.6661C16.4641 12.2173 16.5999 11.7022 16.9995 11.3924C17.3719 11.1037 17.6097 10.6665 17.5997 10.1795C17.5896 9.68599 17.3349 9.24939 16.9461 8.97422Z" fill="url(#paint0_linear_74_307)"/>
<path d="M3.58288 6.40628L2.99016 6.40625C2.56124 6.40622 2.2135 6.73628 2.2135 7.14342V15.0561C2.2135 15.4632 2.56124 15.7933 2.99016 15.7932L4.40698 15.7932C4.99858 15.7917 5.57043 16.014 5.97685 16.4219C6.89184 17.3401 8.18733 17.913 9.62403 17.913H13.2197V17.9126H14.3218C14.7067 17.9126 15.0648 17.7858 15.349 17.5746L3.58288 6.40628Z" fill="url(#paint1_linear_74_307)"/>
<path d="M16.8167 13.2606C16.8125 13.0542 16.7571 12.8578 16.6764 12.679H2.2135V15.0559C2.2135 15.463 2.56124 15.7931 2.99016 15.793L4.40698 15.793C4.99858 15.7915 5.57043 16.0138 5.97688 16.4217C6.89184 17.3398 8.18733 17.9128 9.62403 17.9128H13.2197V17.9124H14.3218C15.2321 17.9124 15.9942 17.2053 15.9765 16.3413C15.9722 16.1339 15.9196 15.9362 15.843 15.7562C15.6538 15.3119 15.7764 14.7951 16.1769 14.5032C16.5719 14.2152 16.827 13.7646 16.8167 13.2606Z" fill="url(#paint2_linear_74_307)"/>
<path d="M11.0995 5.58893C11.4521 4.65376 11.7429 3.69866 11.97 2.72916C12.1625 1.9075 11.5983 1.09777 10.7273 0.939633C9.93456 0.7957 9.1574 1.24453 8.92376 1.97787C8.49923 3.31026 7.77352 4.54333 6.79346 5.58893H11.0995Z" fill="url(#paint3_linear_74_307)"/>
<path d="M2.68495 16.578H1.39792C0.902027 16.578 0.5 16.2099 0.5 15.7557V6.57035C0.5 6.11622 0.902027 5.74805 1.39792 5.74805H2.68495C3.18085 5.74805 3.58287 6.11622 3.58287 6.57035V15.7557C3.58287 16.2099 3.18085 16.578 2.68495 16.578Z" fill="url(#paint4_linear_74_307)"/>
<defs>
<linearGradient id="paint0_linear_74_307" x1="5.74978" y1="3.42186" x2="12.8611" y2="19.5636" gradientUnits="userSpaceOnUse">
<stop stop-color="#FFEEE6"/>
<stop offset="1" stop-color="#FFB09E"/>
</linearGradient>
<linearGradient id="paint1_linear_74_307" x1="11.7215" y1="12.1596" x2="-2.77538" y2="12.1596" gradientUnits="userSpaceOnUse">
<stop stop-color="#FFB09E" stop-opacity="0"/>
<stop offset="1" stop-color="#EC806B"/>
</linearGradient>
<linearGradient id="paint2_linear_74_307" x1="9.51384" y1="13.4387" x2="9.51381" y2="17.8465" gradientUnits="userSpaceOnUse">
<stop stop-color="#FFB09E" stop-opacity="0"/>
<stop offset="1" stop-color="#EC806B"/>
</linearGradient>
<linearGradient id="paint3_linear_74_307" x1="9.69944" y1="3.60596" x2="12.2784" y2="4.69279" gradientUnits="userSpaceOnUse">
<stop stop-color="#FFB09E" stop-opacity="0"/>
<stop offset="1" stop-color="#EC806B"/>
</linearGradient>
<linearGradient id="paint4_linear_74_307" x1="0.172633" y1="9.71967" x2="5.55015" y2="14.672" gradientUnits="userSpaceOnUse">
<stop stop-color="#8AC9FE"/>
<stop offset="1" stop-color="#814AA0"/>
</linearGradient>
</defs>
</svg>
