<svg width="20" height="21" viewBox="0 0 20 21" fill="none" xmlns="http://www.w3.org/2000/svg">
<g clip-path="url(#clip0_74_253)">
<path d="M5.96539 5.99693C6.07612 5.92311 7.12341 5.83545 7.25259 5.83545C7.38177 5.83545 7.48327 5.93695 7.48327 6.06613V8.20223C7.48327 8.33603 7.38177 8.43753 7.25259 8.43753H6.50519C5.96539 8.43753 5.5271 7.99923 5.5271 7.45944V6.81353C5.5271 6.64744 5.56862 6.49058 5.64244 6.35217C5.72087 6.20915 5.8316 6.08458 5.96539 5.99693Z" fill="#FEB784"/>
<path d="M5.79003 3.84234C5.80849 3.71777 5.92383 3.6255 6.05301 3.64396C8.17988 3.93 6.68046 4.7097 7.46016 6.1999C7.51552 6.31062 7.474 6.45364 7.35866 6.51362C7.10953 6.6428 6.81426 6.72123 6.54667 6.69817C6.29292 6.6751 6.06224 6.56437 5.90999 6.33369C5.73006 6.06149 5.67931 5.57706 5.68854 5.0834C5.69776 4.61281 5.74851 4.13761 5.79003 3.84234Z" fill="#753C22"/>
<path d="M13.6423 5.83545C13.9007 5.84929 14.1314 5.96924 14.2974 6.14456C14.4589 6.31988 14.5604 6.55517 14.5604 6.81353V7.45944C14.5604 7.99923 14.1221 8.43753 13.5823 8.43753H12.8395C12.7104 8.43753 12.6042 8.33603 12.6042 8.20223V6.12611C12.6042 5.99693 12.7104 5.89081 12.8395 5.89081C13.7254 5.89081 13.61 5.83545 13.6423 5.83545Z" fill="#FEB784"/>
<path d="M10.4773 14.0386L11.2432 20.6453V20.6776C11.2432 20.8068 11.1417 20.9083 11.0125 20.9083H8.98715C8.98715 20.9083 8.97331 20.9083 8.96869 20.9083C8.84413 20.8991 8.74724 20.7883 8.75647 20.6591L9.52233 14.0525C9.52694 13.9233 9.62844 13.8218 9.75762 13.8218H10.2421C10.3666 13.8218 10.4681 13.9187 10.4773 14.0386Z" fill="#95573A"/>
<path d="M8.88574 10.3246C8.88574 10.1955 8.94572 10.0894 9.01492 10.0894C9.08874 10.0894 9.14872 10.1955 9.14872 10.3246C9.17179 11.0398 10.8788 11.049 10.8511 10.3939C10.8511 10.2647 10.9111 10.1632 10.9849 10.1632C11.0541 10.1632 11.1141 10.2647 11.1141 10.3939V12.2578C11.1141 12.3869 11.0541 12.4884 10.9849 12.4884C10.9019 12.9175 10.6712 13.139 9.99762 13.2358C9.40708 13.0882 9.34249 12.6453 9.01492 12.4884C8.94572 12.4884 8.88574 12.3869 8.88574 12.2578V10.3246Z" fill="#FEB784"/>
<path d="M12.6044 6.12622C12.6044 5.99704 12.7105 5.89093 12.8397 5.89093C12.9689 5.89093 13.0704 5.99704 13.0704 6.12622V8.19312C13.0704 9.02818 12.7336 9.78482 12.1846 10.3338C11.6356 10.8829 10.8789 11.2196 10.0439 11.2196C9.21341 11.2196 8.45678 10.8829 7.90776 10.3338C7.35874 9.78482 7.01733 9.02818 7.01733 8.19312V4.46994C7.01733 4.34076 7.12345 4.23464 7.25263 4.23464C7.38181 4.23464 7.48331 4.34076 7.48331 4.46994C8.3276 3.74099 13.4856 3.51953 12.6044 6.12622Z" fill="#FEC9A3"/>
<path d="M12.309 1.00044C12.5213 1.01428 14.1499 1.18959 14.542 3.3626C14.5466 3.38106 14.5466 3.3949 14.5466 3.41335C14.542 3.52408 14.4913 6.23688 13.3148 6.52754C13.3102 6.52754 12.6366 6.74438 12.3459 5.59098C12.3136 5.49409 12.0414 4.72823 11.3356 4.74207H11.3309H7.41399C7.39093 4.74207 7.36786 4.74207 7.3494 4.73285C7.13256 4.69132 4.97801 4.20228 4.80269 2.10309C4.77039 1.92777 4.59046 0.691323 5.77155 0.945072H5.78078C7.51088 1.38798 8.48896 1.28648 9.72541 1.15268C10.4313 1.07887 11.2248 0.995821 12.2814 0.995821C12.2906 0.995821 12.2998 0.995821 12.309 1.00044Z" fill="#7A432A"/>
<path d="M11.2294 13.5496L10.7404 15.1828C10.7127 15.2843 10.6158 15.3535 10.5189 15.3535H9.48088C9.37016 15.3535 9.27788 15.2751 9.25482 15.1736L8.76577 13.5357C8.72886 13.4112 8.79807 13.282 8.92264 13.2451C8.9457 13.2358 8.96416 13.2358 8.98723 13.2358H11.0126C11.1418 13.2358 11.2433 13.3373 11.2433 13.4665C11.2433 13.4988 11.2387 13.5219 11.2294 13.5496Z" fill="#743B20"/>
<path fill-rule="evenodd" clip-rule="evenodd" d="M8.65504 14.1862L9.9976 13.2358L8.65504 11.8794L7.354 12.2531L8.65504 14.1862Z" fill="#E0E0DE"/>
<path fill-rule="evenodd" clip-rule="evenodd" d="M11.345 14.1862L9.9978 13.2358L11.345 11.8794L12.646 12.2531L11.345 14.1862Z" fill="#E0E0DE"/>
<path fill-rule="evenodd" clip-rule="evenodd" d="M5.7439 12.742L6.02533 13.148L7.65854 15.4918C7.67239 15.5148 7.68161 15.5333 7.69084 15.5563L8.88576 19.5287L9.31022 15.8562L9.37481 15.3257C9.31483 15.2934 9.26869 15.238 9.25485 15.1734L8.90422 14.0062L8.65508 14.1861L8.58127 14.0754L7.64009 12.6775L7.36327 12.2668L5.7439 12.742Z" fill="#4C5D72"/>
<path fill-rule="evenodd" clip-rule="evenodd" d="M11.4188 14.0754L11.345 14.1861L11.0958 14.0062L10.7406 15.1826C10.7221 15.2472 10.6806 15.298 10.6252 15.3257L10.6898 15.8562L11.1143 19.5287L12.3092 15.5563C12.3184 15.5333 12.3277 15.5148 12.3415 15.4918L13.9701 13.148L14.2515 12.742L12.6368 12.2668L12.36 12.6775L11.4188 14.0754Z" fill="#4C5D72"/>
<path fill-rule="evenodd" clip-rule="evenodd" d="M5.74394 12.7422L4.09227 13.2266C4.07381 13.2312 4.05997 13.2358 4.04613 13.2451C2.56978 13.914 2.67127 17.5911 2.73125 19.7456C2.74048 20.0917 2.74971 20.3962 2.74971 20.6776C2.74971 20.8068 2.85582 20.9083 2.985 20.9083H10.0023L7.69088 15.5565C7.68166 15.5334 7.67243 15.515 7.65859 15.4919L6.02537 13.1482L5.74394 12.7422Z" fill="#758AA5"/>
<path fill-rule="evenodd" clip-rule="evenodd" d="M14.2559 12.7422L15.9076 13.2266C15.9261 13.2312 15.9399 13.2358 15.9538 13.2451C17.4301 13.914 17.3286 17.5911 17.2686 19.7456C17.2594 20.0917 17.2502 20.3962 17.2502 20.6776C17.2502 20.8068 17.1441 20.9083 17.0149 20.9083H10.0022L12.309 15.5565C12.3182 15.5334 12.3275 15.515 12.3413 15.4919L13.9699 13.1482L14.2559 12.7422Z" fill="#758AA5"/>
</g>
<defs>
<clipPath id="clip0_74_253">
<path d="M0 0.912842H20V10.9128C20 16.4357 15.5228 20.9128 10 20.9128C4.47715 20.9128 0 16.4357 0 10.9128V0.912842Z" fill="white"/>
</clipPath>
</defs>
</svg>
