<svg width="64" height="65" viewBox="0 0 64 65" fill="none" xmlns="http://www.w3.org/2000/svg">
<rect y="0.912842" width="64" height="64" rx="32" fill="white"/>
<path d="M27.5396 23.7793L26.8199 24.5808C26.3028 25.1568 26.1623 26.0718 26.5209 27.1917C27.2423 29.4445 29.7104 31.6731 32.0321 32.1701C33.2027 32.4206 34.1131 32.1848 34.6368 31.6015L35.3565 30.8C34.8328 31.3833 33.9223 31.6191 32.7518 31.3685C30.43 30.8716 27.9619 28.643 27.2405 26.3901C26.8819 25.2703 27.0224 24.3553 27.5396 23.7793Z" fill="#DBE6FA"/>
<path d="M27.2405 26.3901C27.7232 27.8974 28.9889 29.391 30.4683 30.3652L29.7461 31.165C28.2678 30.1907 27.0033 28.698 26.5209 27.1917C26.1623 26.0718 26.3027 25.1568 26.8199 24.5808L27.5396 23.7793C27.0224 24.3553 26.8819 25.2703 27.2405 26.3901Z" fill="#CBDBF4"/>
<path d="M30.1393 23.2105C27.8175 22.7136 26.519 24.1372 27.2405 26.3901C27.9619 28.6429 30.43 30.8715 32.7517 31.3685C35.0776 31.8663 36.3765 30.444 35.6551 28.1911C34.9337 25.9383 32.4651 23.7083 30.1393 23.2105Z" fill="#EBF2FF"/>
<path d="M33.4735 17.7844L27.9694 23.884C27.4903 24.4177 27.3601 25.2653 27.6924 26.3028C28.3607 28.3899 30.6473 30.4546 32.7982 30.915C33.8827 31.1472 34.7262 30.9287 35.2113 30.3883L40.7154 24.2887C40.2302 24.8291 39.3867 25.0475 38.3022 24.8154C36.1513 24.355 33.8648 22.2903 33.1964 20.2032C32.8642 19.1657 32.9943 18.3181 33.4735 17.7844Z" fill="#804F59"/>
<path d="M29.1962 22.5254L28.7749 22.992C28.2955 23.5268 28.1655 24.3735 28.4967 25.4124C29.165 27.4989 31.4518 29.5638 33.6032 30.0234C34.6874 30.2556 35.5311 30.0357 36.0176 29.4969L36.4302 29.0399C35.9433 29.5714 35.103 29.7874 34.0245 29.5569C31.8748 29.0953 29.588 27.0304 28.9197 24.9439C28.5868 23.907 28.7168 23.0602 29.1962 22.5254Z" fill="#FFCA6C"/>
<path d="M28.9197 24.9439C29.1334 25.6111 29.5138 26.2754 30.0012 26.8865L29.5782 27.3549C29.0908 26.7439 28.7104 26.0796 28.4967 25.4124C28.1655 24.3735 28.2955 23.5268 28.7749 22.992L29.1962 22.5254C28.7168 23.0602 28.5868 23.907 28.9197 24.9439Z" fill="#FFCA6C"/>
<path d="M31.8425 19.5945L31.4212 20.061C30.9418 20.5958 30.8118 21.4426 31.143 22.4815C31.8113 24.568 34.0981 26.6329 36.2496 27.0925C37.3337 27.3247 38.1774 27.1048 38.664 26.566L39.0766 26.109C38.5896 26.6405 37.7494 26.8565 36.6709 26.626C34.5212 26.1644 32.2344 24.0995 31.5661 22.013C31.2331 20.9761 31.3631 20.1293 31.8425 19.5945Z" fill="#FFCA6C"/>
<path d="M31.5661 22.013C31.7798 22.6802 32.1602 23.3445 32.6475 23.9556L32.2245 24.424C31.7372 23.813 31.3568 23.1487 31.1431 22.4815C30.8118 21.4426 30.9418 20.5958 31.4212 20.061L31.8425 19.5945C31.3631 20.1293 31.2331 20.9761 31.5661 22.013Z" fill="#FFCA6C"/>
<path d="M33.5929 17.0754L32.8733 17.877C32.3561 18.453 32.2156 19.368 32.5742 20.4878C33.2956 22.7406 35.7637 24.9693 38.0855 25.4662C39.256 25.7168 40.1665 25.4809 40.6902 24.8977L41.4098 24.0961C40.8861 24.6794 39.9757 24.9152 38.8051 24.6647C36.4834 24.1677 34.0153 21.9391 33.2939 19.6863C32.9353 18.5664 33.0757 17.6515 33.5929 17.0754Z" fill="#DBE6FA"/>
<path d="M33.2939 19.6863C33.7765 21.1935 35.0422 22.6871 36.5217 23.6613L35.7995 24.4611C34.3211 23.4869 33.0566 21.9941 32.5742 20.4878C32.2156 19.3679 32.3561 18.453 32.8733 17.8769L33.5929 17.0754C33.0757 17.6514 32.9352 18.5664 33.2939 19.6863Z" fill="#CBDBF4"/>
<path d="M36.1927 16.5067C33.871 16.0097 32.5725 17.4334 33.2939 19.6862C34.0154 21.939 36.4834 24.1677 38.8052 24.6646C41.131 25.1624 42.43 23.7401 41.7085 21.4873C40.9871 19.2344 38.5186 17.0045 36.1927 16.5067Z" fill="#EBF2FF"/>
<path d="M36.7976 18.3933C35.5496 18.1261 34.8515 18.8914 35.2394 20.1024C35.6272 21.3135 36.9539 22.5115 38.2019 22.7786C39.4522 23.0462 40.1505 22.2816 39.7627 21.0706C39.3748 19.8596 38.0479 18.6609 36.7976 18.3933Z" fill="#CBDBF4"/>
<path d="M39.6907 29.9982C39.6037 29.9063 39.3716 29.9499 39.0331 30.1433C38.4626 30.4721 37.8099 31.1103 37.573 31.56C37.4763 31.7485 37.4617 31.8743 37.5198 31.9371L35.3878 29.5523C35.3346 29.4895 35.3443 29.3638 35.441 29.18C35.8463 28.4025 37.3008 27.3253 37.5588 27.6135L39.6907 29.9982Z" fill="#FFDE9B"/>
<path d="M39.6905 30.0004C39.6014 29.9067 39.3717 29.9488 39.0342 30.1411L36.9058 27.7642C37.2433 27.5673 37.4777 27.5204 37.5574 27.6141L39.6905 30.0004Z" fill="#FFCA6C"/>
<path d="M39.0342 30.1435C38.4638 30.4728 37.8086 31.1084 37.5713 31.5623C37.3335 32.0171 37.6031 32.1189 38.1735 31.7896C38.7427 31.461 39.3978 30.8253 39.6356 30.3705C39.8729 29.9166 39.6033 29.8149 39.0342 30.1435Z" fill="#FFB63C"/>
<path d="M49.4376 41.4207C49.3716 41.351 49.1956 41.384 48.9388 41.5307C48.506 41.7801 48.0109 42.2643 47.8311 42.6054C47.7577 42.7485 47.7467 42.8438 47.7907 42.8915L37.9637 31.8715C37.9233 31.8238 37.9307 31.7284 38.004 31.589C38.1838 31.2443 38.6826 30.7637 39.1154 30.5143C39.3722 30.364 39.5482 30.3309 39.6106 30.4006L49.4376 41.4207Z" fill="#70444D"/>
<path d="M49.4377 41.4206C49.3717 41.3509 49.1956 41.3839 48.9389 41.5306C48.506 41.78 48.0109 42.2642 47.8312 42.6053C47.7578 42.7484 47.7468 42.8437 47.7908 42.8914L44.1459 38.8041C44.1056 38.7564 44.1129 38.6611 44.1863 38.5216C44.366 38.1769 44.8649 37.6964 45.2977 37.447C45.5544 37.2966 45.7305 37.2636 45.7928 37.3332L49.4377 41.4206Z" fill="#FFDE9B"/>
<path d="M49.4371 41.4208C49.3714 41.3504 49.1933 41.3833 48.9401 41.5286L45.2975 37.4453C45.5554 37.2953 45.7288 37.2625 45.7945 37.3327L49.4371 41.4208Z" fill="#FFCA6C"/>
<path d="M48.9396 41.5308C48.5069 41.7806 48.0099 42.2628 47.8299 42.6071C47.6495 42.9521 47.854 43.0293 48.2867 42.7795C48.7185 42.5302 49.2155 42.048 49.3959 41.703C49.5759 41.3587 49.3714 41.2815 48.9396 41.5308Z" fill="#FFB63C"/>
<path d="M17.8085 47.5325C13.4442 44.9965 13.4489 40.8356 17.822 38.3109C22.1654 35.8028 29.2105 35.8024 33.5269 38.3109C37.9036 40.8545 37.8884 45.0005 33.4704 47.551C29.1479 50.047 22.1215 50.0393 17.8085 47.5325ZM25.6845 36.6806C22.8866 36.6806 20.0862 37.2975 17.9491 38.5311C13.7493 40.956 13.7406 44.8746 17.9363 47.3124C22.1789 49.7779 29.0901 49.7864 33.3433 47.3308C37.5889 44.8796 37.6071 40.9764 33.399 38.5311C31.2765 37.2975 28.4818 36.6806 25.6845 36.6806Z" fill="#CBDBF4"/>
<path d="M14.9019 39.0821L14.9057 41.3657C14.9104 42.9924 15.9798 44.6186 18.109 45.8559C22.4041 48.352 29.3524 48.352 33.6434 45.8746C35.8203 44.6178 36.9081 42.9726 36.9035 41.3302L36.8996 39.0466C36.9043 40.689 35.8164 42.3342 33.6396 43.591C29.3485 46.0684 22.4002 46.0684 18.1051 43.5723C15.9759 42.335 14.9065 40.7088 14.9019 39.0821Z" fill="#DBE6FA"/>
<path d="M36.8996 39.0466C36.9042 40.689 35.8164 42.3341 33.6396 43.5909C30.6372 45.3243 26.3361 45.8403 22.551 45.1417V47.4245C26.3371 48.1242 30.64 47.6085 33.6434 45.8745C35.8202 44.6177 36.9081 42.9726 36.9035 41.3302L36.8996 39.0466Z" fill="#CBDBF4"/>
<path d="M36.8996 39.0466C36.9042 40.689 35.8164 42.3341 33.6395 43.591C33.1555 43.8705 32.6347 44.1148 32.0907 44.331V46.6161C32.6361 46.3996 33.1582 46.1547 33.6434 45.8746C35.8202 44.6177 36.9081 42.9726 36.9034 41.3302L36.8996 39.0466Z" fill="#BBCFEF"/>
<path d="M18.1183 34.571C13.8272 37.0485 13.8366 41.0918 18.1051 43.5724C22.4003 46.0684 29.3485 46.0685 33.6396 43.591C37.9628 41.095 37.9909 37.0672 33.6957 34.5711C29.4272 32.0905 22.4415 32.075 18.1183 34.571Z" fill="#EBF2FF"/>
<path d="M17.3136 38.2366L17.3173 39.6391C17.3209 40.9089 18.1552 42.178 19.8154 43.1428C23.1702 45.0924 28.5966 45.0924 31.9475 43.1578C33.6467 42.1767 34.4954 40.8935 34.4917 39.6122L34.488 38.2097C34.4916 39.491 33.643 40.7743 31.9438 41.7553C28.5928 43.69 23.1665 43.69 19.8117 41.7404C18.1515 40.7755 17.3172 39.5065 17.3136 38.2366Z" fill="#70444D"/>
<path d="M34.488 38.2097C34.4917 39.491 33.643 40.7743 31.9438 41.7553C30.7163 42.464 29.2094 42.9104 27.6288 43.0991V44.5021C29.2108 44.3136 30.719 43.867 31.9475 43.1578C33.6467 42.1767 34.4953 40.8935 34.4917 39.6121L34.488 38.2097Z" fill="#512E35"/>
<path d="M19.8175 41.7354C23.1722 43.6943 28.5914 43.6943 31.9462 41.7589C35.3244 39.8117 35.3362 36.6681 31.9814 34.7092C28.6501 32.7737 23.2074 32.762 19.8292 34.7092C16.4744 36.6446 16.4862 39.7999 19.8175 41.7354Z" fill="#804F59"/>
<path d="M32.228 36.9287L32.2282 38.5202C32.2281 39.1851 31.9158 39.8502 31.2905 40.4247C28.7927 42.7197 23.1451 42.7461 20.5981 40.4553C19.9526 39.8739 19.6296 39.1974 19.6297 38.5208L19.6295 36.9293C19.6294 37.6059 19.9525 38.2824 20.5979 38.8638C23.1493 41.1585 28.7958 41.1252 31.2903 38.8332C31.9156 38.2587 32.2279 37.5936 32.228 36.9287Z" fill="#FFCA6C"/>
<path d="M31.2903 38.8332C29.1393 40.8097 24.6681 41.099 21.8395 39.6915L21.8444 41.2853C24.6733 42.6901 29.1406 42.4001 31.2905 40.4247C31.9158 39.8502 32.2282 39.1851 32.2283 38.5202L32.2281 36.9287C32.2279 37.5936 31.9157 38.2587 31.2903 38.8332Z" fill="#FFB63C"/>
<path d="M31.2598 34.9955C32.5393 36.1464 32.5519 37.6742 31.2903 38.8332C28.7926 41.1283 23.1449 41.1546 20.5979 38.8639C19.3184 37.7114 19.3058 36.1852 20.5661 35.0254C23.0743 32.7207 28.7225 32.7119 31.2598 34.9955Z" fill="#FFDE9B"/>
<path d="M29.9032 38.5793C27.9659 40.1224 24.0244 40.1789 21.9815 38.602C20.7463 37.6394 20.7262 36.2578 21.954 35.2809C23.929 33.7077 27.9019 33.709 29.8756 35.2583C31.0986 36.2104 31.142 37.5894 29.9032 38.5793Z" fill="#FFB63C"/>
<path d="M30.7954 37.166C30.451 39.6658 24.8046 40.781 21.9814 38.6018C21.4431 38.1822 21.1368 37.6853 21.0629 37.1772C21.1321 36.675 21.4294 36.1826 21.9552 35.7641C23.9302 34.1909 27.9031 34.1921 29.8768 35.7414C30.4152 36.161 30.7214 36.6579 30.7954 37.166Z" fill="#FFCA6C"/>
<path d="M26.631 36.196L26.6305 36.3881L26.1609 36.8405L26.1614 36.6485L26.631 36.196Z" fill="#FFB63C"/>
<path d="M24.92 37.2157L24.9195 37.4077L23.4728 36.1273L23.4733 35.9353L24.92 37.2157Z" fill="#FFA20D"/>
<path d="M25.2537 37.5083L25.2532 37.7003L24.9128 38.024L24.9134 37.832L25.2537 37.5083Z" fill="#FFB63C"/>
<path d="M24.9134 37.8321L24.9129 38.0241L24.5175 37.7958L24.518 37.6038L24.9134 37.8321Z" fill="#FFA20D"/>
<path d="M26.403 38.5135L26.4025 38.7056L25.2533 37.7003L25.2538 37.5083L26.403 38.5135Z" fill="#FFA20D"/>
<path d="M29.1532 36.9153L29.1526 37.1073L26.4025 38.7055L26.403 38.5135L29.1532 36.9153Z" fill="#FFB63C"/>
<path d="M28.5552 36.3818L29.1531 36.9154L26.4029 38.5136L25.2537 37.5084L24.9134 37.832L24.5179 37.6037L24.92 37.2156L23.4733 35.9352L24.6016 35.2795L25.8277 36.3559L26.2341 35.967L26.631 36.1962L26.1614 36.6486L26.9232 37.3302L28.5552 36.3818Z" fill="#FFDE9B"/>
<path d="M27.8663 22.1447L25.5205 21.6213C25.3735 21.5884 25.2808 21.4426 25.3134 21.2956C25.3461 21.1484 25.4945 21.0568 25.6391 21.0889L27.985 21.6124C28.132 21.645 28.2247 21.7908 28.192 21.9378C28.1588 22.0863 28.012 22.1772 27.8663 22.1447Z" fill="#FF444D"/>
<path d="M28.7336 20.2497L27.0344 18.5503C26.9278 18.4437 26.9278 18.2712 27.0344 18.1646C27.1409 18.0581 27.3135 18.0581 27.42 18.1646L29.1192 19.864C29.2258 19.9705 29.2258 20.1431 29.1192 20.2497C29.0127 20.3562 28.8401 20.3562 28.7336 20.2497Z" fill="#FF444D"/>
<path d="M30.4818 19.1155L29.9583 16.7695C29.9257 16.6224 30.0183 16.4767 30.1654 16.444C30.3106 16.4108 30.458 16.5035 30.491 16.6509L31.0144 18.9966C31.0471 19.1436 30.9544 19.2893 30.8074 19.3222C30.6613 19.3548 30.5148 19.263 30.4818 19.1155Z" fill="#FF444D"/>
</svg>
