<svg width="36" height="34" viewBox="0 0 36 34" fill="none" xmlns="http://www.w3.org/2000/svg">
<path d="M13.5403 7.86633L12.8207 8.66786C12.3035 9.24389 12.163 10.1588 12.5216 11.2787C13.243 13.5315 15.7111 15.7602 18.0328 16.2571C19.2034 16.5077 20.1139 16.2718 20.6376 15.6886L21.3572 14.887C20.8335 15.4703 19.9231 15.7061 18.7525 15.4556C16.4308 14.9586 13.9627 12.73 13.2413 10.4772C12.8826 9.35732 13.0231 8.44236 13.5403 7.86633Z" fill="#DBE6FA"/>
<path d="M13.2413 10.4772C13.7239 11.9844 14.9896 13.478 16.4691 14.4522L15.7468 15.252C14.2685 14.2778 13.004 12.785 12.5216 11.2787C12.163 10.1588 12.3035 9.24386 12.8207 8.66784L13.5403 7.86633C13.0231 8.44233 12.8826 9.35729 13.2413 10.4772Z" fill="#CBDBF4"/>
<path d="M16.1392 7.29767C13.8174 6.80072 12.5189 8.22437 13.2404 10.4772C13.9618 12.73 16.4299 14.9587 18.7516 15.4556C21.0774 15.9534 22.3764 14.5311 21.655 12.2783C20.9335 10.0254 18.465 7.7955 16.1392 7.29767Z" fill="#EBF2FF"/>
<path d="M19.4736 1.8717L13.9696 7.97131C13.4904 8.50496 13.3603 9.35262 13.6925 10.3901C14.3608 12.4772 16.6474 14.5419 18.7983 15.0023C19.8828 15.2344 20.7263 15.016 21.2115 14.4756L26.7155 8.37598C26.2303 8.91635 25.3868 9.13483 24.3024 8.90271C22.1514 8.44231 19.8649 6.37761 19.1965 4.29049C18.8643 3.25302 18.9944 2.40536 19.4736 1.8717Z" fill="#804F59"/>
<path d="M15.1959 6.61267L14.7746 7.07923C14.2952 7.61403 14.1652 8.46082 14.4964 9.49967C15.1647 11.5862 17.4515 13.6511 19.603 14.1107C20.6871 14.3428 21.5308 14.123 22.0174 13.5841L22.43 13.1272C21.943 13.6587 21.1028 13.8747 20.0243 13.6441C17.8746 13.1826 15.5878 11.1177 14.9195 9.03117C14.5865 7.99425 14.7165 7.14747 15.1959 6.61267Z" fill="#FFCA6C"/>
<path d="M14.9195 9.03117C15.1332 9.69839 15.5136 10.3627 16.0009 10.9738L15.5779 11.4422C15.0906 10.8312 14.7102 10.1669 14.4964 9.49965C14.1652 8.46082 14.2952 7.61404 14.7746 7.07924L15.1959 6.61267C14.7165 7.14747 14.5865 7.99425 14.9195 9.03117Z" fill="#FFCA6C"/>
<path d="M17.8424 3.68188L17.4211 4.14845C16.9417 4.68324 16.8117 5.53003 17.1429 6.56888C17.8112 8.6554 20.098 10.7203 22.2495 11.1799C23.3336 11.4121 24.1773 11.1922 24.6639 10.6534L25.0765 10.1964C24.5895 10.7279 23.7493 10.9439 22.6708 10.7134C20.521 10.2518 18.2343 8.18691 17.566 6.10038C17.233 5.06347 17.363 4.21668 17.8424 3.68188Z" fill="#FFCA6C"/>
<path d="M17.566 6.10038C17.7797 6.7676 18.1601 7.43192 18.6474 8.04298L18.2244 8.51141C17.7371 7.9004 17.3566 7.23608 17.1429 6.56886C16.8117 5.53004 16.9417 4.68325 17.4211 4.14845L17.8424 3.68188C17.363 4.21668 17.233 5.06347 17.566 6.10038Z" fill="#FFCA6C"/>
<path d="M19.5931 1.1626L18.8734 1.96413C18.3562 2.54015 18.2157 3.45511 18.5743 4.57496C19.2958 6.82779 21.7638 9.05642 24.0856 9.55337C25.2561 9.80392 26.1666 9.5681 26.6903 8.98482L27.4099 8.18329C26.8863 8.76657 25.9758 9.00239 24.8052 8.75184C22.4835 8.25489 20.0154 6.02626 19.294 3.77343C18.9354 2.65358 19.0759 1.73862 19.5931 1.1626Z" fill="#DBE6FA"/>
<path d="M19.294 3.77343C19.7766 5.28065 21.0423 6.77425 22.5218 7.74849L21.7996 8.54829C20.3213 7.57404 19.0567 6.08129 18.5743 4.57495C18.2157 3.45509 18.3562 2.54012 18.8734 1.96411L19.5931 1.1626C19.0759 1.7386 18.9354 2.65355 19.294 3.77343Z" fill="#CBDBF4"/>
<path d="M22.1938 0.593938C19.8721 0.0969879 18.5736 1.52064 19.295 3.77348C20.0165 6.0263 22.4845 8.25494 24.8063 8.75189C27.1321 9.24971 28.4311 7.82738 27.7096 5.57456C26.9882 3.32171 24.5197 1.09176 22.1938 0.593938Z" fill="#EBF2FF"/>
<path d="M22.7982 2.48056C21.5502 2.21342 20.8522 2.9787 21.24 4.18973C21.6278 5.40074 22.9545 6.59875 24.2026 6.86589C25.4528 7.1335 26.1511 6.36892 25.7633 5.1579C25.3755 3.94688 24.0485 2.74816 22.7982 2.48056Z" fill="#CBDBF4"/>
<path d="M25.6924 14.0856C25.6054 13.9937 25.3733 14.0373 25.0349 14.2307C24.4643 14.5595 23.8116 15.1977 23.5747 15.6474C23.478 15.8359 23.4635 15.9617 23.5215 16.0245L21.3895 13.6397C21.3364 13.5769 21.346 13.4512 21.4427 13.2674C21.848 12.4899 23.3025 11.4127 23.5605 11.7009L25.6924 14.0856Z" fill="#FFDE9B"/>
<path d="M25.6929 14.0878C25.6038 13.9941 25.3741 14.0362 25.0366 14.2285L22.9082 11.8516C23.2458 11.6547 23.4802 11.6078 23.5599 11.7015L25.6929 14.0878Z" fill="#FFCA6C"/>
<path d="M25.0356 14.2309C24.4652 14.5602 23.8101 15.1958 23.5728 15.6497C23.335 16.1045 23.6046 16.2063 24.175 15.877C24.7441 15.5484 25.3993 14.9127 25.6371 14.4579C25.8744 14.004 25.6048 13.9023 25.0356 14.2309Z" fill="#FFB63C"/>
<path d="M35.4378 25.5079C35.3718 25.4382 35.1957 25.4713 34.9389 25.618C34.5061 25.8674 34.011 26.3515 33.8313 26.6927C33.7579 26.8357 33.7469 26.9311 33.7909 26.9788L23.9638 15.9587C23.9235 15.9111 23.9308 15.8157 24.0042 15.6763C24.1839 15.3315 24.6828 14.851 25.1155 14.6016C25.3723 14.4513 25.5483 14.4182 25.6107 14.4879L35.4378 25.5079Z" fill="#70444D"/>
<path d="M35.4372 25.508C35.3712 25.4383 35.1951 25.4713 34.9384 25.618C34.5055 25.8674 34.0104 26.3516 33.8307 26.6927C33.7573 26.8358 33.7463 26.9311 33.7903 26.9788L30.1455 22.8915C30.1051 22.8438 30.1125 22.7485 30.1858 22.609C30.3655 22.2643 30.8644 21.7838 31.2972 21.5344C31.5539 21.384 31.73 21.351 31.7923 21.4206L35.4372 25.508Z" fill="#FFDE9B"/>
<path d="M35.4365 25.5079C35.3708 25.4376 35.1927 25.4705 34.9395 25.6158L31.2969 21.5325C31.5547 21.3825 31.7281 21.3496 31.7938 21.4199L35.4365 25.5079Z" fill="#FFCA6C"/>
<path d="M34.939 25.6182C34.5063 25.868 34.0093 26.3502 33.8293 26.6945C33.6489 27.0395 33.8534 27.1167 34.2861 26.8669C34.7179 26.6176 35.2149 26.1354 35.3953 25.7904C35.5753 25.4461 35.3707 25.3689 34.939 25.6182Z" fill="#FFB63C"/>
<path d="M3.80885 31.6198C-0.55548 29.0838 -0.550738 24.9229 3.82234 22.3982C8.16573 19.8901 15.2108 19.8897 19.5272 22.3982C23.904 24.9418 23.8888 29.0877 19.4708 31.6383C15.1482 34.1342 8.12191 34.1266 3.80885 31.6198ZM11.6849 20.7679C8.88697 20.7679 6.08654 21.3847 3.94947 22.6184C-0.250376 25.0433 -0.259034 28.9619 3.93669 31.3996C8.17923 33.8652 15.0905 33.8737 19.3436 31.4181C23.5892 28.9669 23.6075 25.0637 19.3994 22.6184C17.2769 21.3847 14.4821 20.7679 11.6849 20.7679Z" fill="#CBDBF4"/>
<path d="M0.902344 23.1694L0.906233 25.453C0.910843 27.0797 1.98029 28.7058 4.10945 29.9432C8.40461 32.4393 15.3529 32.4393 19.6439 29.9618C21.8208 28.7051 22.9086 27.0599 22.904 25.4175L22.9001 23.1339C22.9047 24.7763 21.8169 26.4215 19.64 27.6782C15.349 30.1557 8.40072 30.1556 4.10556 27.6596C1.9764 26.4222 0.906955 24.7961 0.902344 23.1694Z" fill="#DBE6FA"/>
<path d="M22.8994 23.1339C22.904 24.7763 21.8161 26.4214 19.6393 27.6782C16.637 29.4116 12.3359 29.9276 8.55078 29.229V31.5118C12.3368 32.2115 16.6398 31.6958 19.6432 29.9618C21.82 28.705 22.9079 27.0599 22.9032 25.4175L22.8994 23.1339Z" fill="#CBDBF4"/>
<path d="M22.9007 23.1339C22.9053 24.7763 21.8175 26.4214 19.6406 27.6783C19.1566 27.9577 18.6358 28.2021 18.0918 28.4183V30.7034C18.6372 30.4869 19.1593 30.242 19.6445 29.9619C21.8213 28.705 22.9092 27.0599 22.9045 25.4175L22.9007 23.1339Z" fill="#BBCFEF"/>
<path d="M4.11877 18.6582C-0.172276 21.1356 -0.162922 25.1789 4.10558 27.6595C8.40074 30.1556 15.349 30.1556 19.6401 27.6782C23.9633 25.1821 23.9914 21.1543 19.6962 18.6583C15.4277 16.1777 8.44203 16.1622 4.11877 18.6582Z" fill="#EBF2FF"/>
<path d="M3.31445 22.3238L3.31819 23.7262C3.32179 24.9961 4.15605 26.2651 5.8163 27.23C9.17109 29.1796 14.5974 29.1796 17.9484 27.2449C19.6476 26.2639 20.4962 24.9806 20.4926 23.6993L20.4889 22.2969C20.4925 23.5782 19.6438 24.8614 17.9447 25.8425C14.5937 27.7771 9.16736 27.7771 5.81257 25.8275C4.15231 24.8627 3.31805 23.5936 3.31445 22.3238Z" fill="#70444D"/>
<path d="M20.4881 22.2969C20.4918 23.5782 19.6431 24.8614 17.9439 25.8425C16.7165 26.5512 15.2096 26.9975 13.6289 27.1863V28.5893C15.2109 28.4008 16.7192 27.9542 17.9477 27.2449C19.6469 26.2639 20.4955 24.9806 20.4918 23.6993L20.4881 22.2969Z" fill="#512E35"/>
<path d="M5.81785 25.8224C9.17259 27.7813 14.5918 27.7813 17.9466 25.8459C21.3248 23.8987 21.3365 20.7551 17.9818 18.7962C14.6504 16.8608 9.20774 16.849 5.82952 18.7962C2.47478 20.7317 2.48652 23.887 5.81785 25.8224Z" fill="#804F59"/>
<path d="M18.2294 21.0159L18.2295 22.6074C18.2294 23.2723 17.9172 23.9373 17.2918 24.5118C14.7941 26.8069 9.14643 26.8333 6.59945 24.5425C5.95399 23.9611 5.63092 23.2846 5.63103 22.608L5.63086 21.0165C5.63075 21.6931 5.95382 22.3696 6.59928 22.951C9.15064 25.2457 14.7971 25.2124 17.2916 22.9203C17.917 22.3458 18.2293 21.6808 18.2294 21.0159Z" fill="#FFCA6C"/>
<path d="M17.2907 22.9203C15.1396 24.8969 10.6685 25.1861 7.83984 23.7786L7.84481 25.3724C10.6737 26.7772 15.141 26.4873 17.2909 24.5118C17.9162 23.9373 18.2285 23.2723 18.2286 22.6074L18.2284 21.0159C18.2283 21.6808 17.9161 22.3458 17.2907 22.9203Z" fill="#FFB63C"/>
<path d="M17.2611 19.0826C18.5406 20.2336 18.5533 21.7613 17.2916 22.9204C14.7939 25.2154 9.14626 25.2418 6.59927 22.951C5.31979 21.7985 5.30713 20.2723 6.56743 19.1125C9.07565 16.8078 14.7238 16.7991 17.2611 19.0826Z" fill="#FFDE9B"/>
<path d="M15.904 22.6663C13.9668 24.2095 10.0252 24.2659 7.98238 22.689C6.7472 21.7264 6.72707 20.3448 7.95486 19.368C9.92985 17.7947 13.9027 17.796 15.8765 19.3453C17.0995 20.2974 17.1429 21.6764 15.904 22.6663Z" fill="#FFB63C"/>
<path d="M16.797 21.2532C16.4526 23.7531 10.8062 24.8683 7.98302 22.6891C7.44467 22.2695 7.13843 21.7725 7.06445 21.2645C7.13366 20.7623 7.43103 20.2698 7.95679 19.8514C9.93178 18.2781 13.9047 18.2794 15.8784 19.8287C16.4168 20.2483 16.723 20.7452 16.797 21.2532Z" fill="#FFCA6C"/>
<path d="M12.6322 20.2833L12.6317 20.4753L12.1621 20.9278L12.1626 20.7358L12.6322 20.2833Z" fill="#FFB63C"/>
<path d="M10.9219 21.3027L10.9213 21.4948L9.47461 20.2144L9.47513 20.0223L10.9219 21.3027Z" fill="#FFA20D"/>
<path d="M11.255 21.5955L11.2544 21.7875L10.9141 22.1111L10.9146 21.9191L11.255 21.5955Z" fill="#FFB63C"/>
<path d="M10.9155 21.9191L10.915 22.1111L10.5195 21.8828L10.5201 21.6908L10.9155 21.9191Z" fill="#FFA20D"/>
<path d="M12.4056 22.6007L12.405 22.7927L11.2559 21.7875L11.2564 21.5955L12.4056 22.6007Z" fill="#FFA20D"/>
<path d="M15.155 21.0026L15.1545 21.1946L12.4043 22.7928L12.4048 22.6008L15.155 21.0026Z" fill="#FFB63C"/>
<path d="M14.5566 20.469L15.1544 21.0025L12.4042 22.6008L11.2551 21.5955L10.9147 21.9192L10.5192 21.6909L10.9213 21.3028L9.47461 20.0224L10.6029 19.3667L11.829 20.443L12.2354 20.0542L12.6323 20.2833L12.1627 20.7357L12.9246 21.4174L14.5566 20.469Z" fill="#FFDE9B"/>
<path d="M13.8661 6.23197L11.5202 5.70853C11.3732 5.67568 11.2805 5.52991 11.3132 5.38289C11.3459 5.2357 11.4943 5.14408 11.6388 5.17622L13.9847 5.69965C14.1317 5.73232 14.2244 5.8781 14.1917 6.02512C14.1586 6.17361 14.0117 6.26447 13.8661 6.23197Z" fill="#FF444D"/>
<path d="M14.7342 4.33707L13.035 2.63767C12.9284 2.53114 12.9284 2.35855 13.035 2.25202C13.1415 2.14549 13.3141 2.14549 13.4206 2.25202L15.1199 3.95142C15.2264 4.05795 15.2264 4.23054 15.1199 4.33707C15.0133 4.44364 14.8407 4.44361 14.7342 4.33707Z" fill="#FF444D"/>
<path d="M16.4812 3.2028L15.9577 0.856739C15.9251 0.709722 16.0177 0.563948 16.1648 0.531277C16.31 0.498074 16.4574 0.590759 16.4904 0.738131L17.0138 3.08383C17.0465 3.23085 16.9538 3.37663 16.8068 3.40947C16.6607 3.44209 16.5142 3.35028 16.4812 3.2028Z" fill="#FF444D"/>
</svg>
