<svg width="21" height="21" viewBox="0 0 21 21" fill="none" xmlns="http://www.w3.org/2000/svg">
<path d="M2.6143 18.0287L6.12363 11.3953L10.8032 13.8707L7.30237 20.4881C7.21194 20.6594 6.96713 20.6602 6.87522 20.49L5.71046 18.3294C5.66535 18.2458 5.57556 18.1962 5.48047 18.2028L2.84514 18.3837C2.6556 18.3966 2.52557 18.1967 2.6143 18.0287Z" fill="#FC4E51"/>
<path d="M9.02741 12.9311L7.97997 12.3771L4.94565 18.239L5.48038 18.2024C5.57526 18.1956 5.66505 18.2452 5.71016 18.3288L5.9789 18.8271L9.02741 12.9311Z" fill="#EA3942"/>
<path d="M17.3852 18.0285L13.8759 11.3951L9.19674 13.8705L12.6972 20.4879C12.7878 20.659 13.0324 20.66 13.1243 20.4898L14.2895 18.3292C14.3346 18.2456 14.4244 18.196 14.5191 18.2026L17.1546 18.3837C17.3439 18.3964 17.474 18.1964 17.3852 18.0285Z" fill="#FC4E51"/>
<path d="M15.0721 18.2399L12.0336 12.3695L10.9855 12.9237L14.0314 18.8075L14.2896 18.3286C14.3347 18.245 14.4245 18.1954 14.5194 18.2018L15.0721 18.2399Z" fill="#EA3942"/>
<path d="M11.2288 2.05985C11.6151 2.40631 12.1299 2.5734 12.6463 2.52046C13.5806 2.42431 14.4374 3.04693 14.6348 3.96519C14.7439 4.47281 15.062 4.91034 15.5107 5.17104C16.3231 5.64245 16.6507 6.64986 16.2704 7.50882C16.0603 7.9832 16.0603 8.5245 16.2704 8.99887C16.6505 9.85804 16.3231 10.8652 15.5109 11.3369C15.062 11.5974 14.7439 12.0353 14.6348 12.5425C14.4374 13.4608 13.5806 14.0834 12.6463 13.9872C12.1299 13.9343 11.6151 14.1014 11.2288 14.4478C10.5293 15.0749 9.47026 15.0747 8.77077 14.4481C8.38428 14.1014 7.86945 13.9343 7.35336 13.9874C6.41879 14.0834 5.56195 13.4608 5.36457 12.5425C5.25572 12.0351 4.93742 11.5974 4.48867 11.3367C3.6763 10.8652 3.3489 9.85804 3.72925 8.99908C3.93912 8.5245 3.93912 7.9832 3.72925 7.50861C3.34911 6.64986 3.6763 5.64245 4.48867 5.17104C4.93764 4.91055 5.25572 4.4726 5.36457 3.96519C5.56195 3.04693 6.419 2.42452 7.35314 2.52046C7.86966 2.57361 8.38428 2.40631 8.77077 2.06006C9.47026 1.43299 10.5293 1.43278 11.2288 2.05985Z" fill="#FCB038"/>
<path d="M14.6349 12.5419C14.744 12.0347 15.0621 11.5967 15.511 11.3362C16.3232 10.8646 16.6506 9.85741 16.2705 8.99824C16.0604 8.52386 16.0604 7.98257 16.2705 7.50819C16.6506 6.64902 16.3232 5.64182 15.5108 5.17041C15.0621 4.90971 14.744 4.47218 14.6349 3.96456C14.4375 3.0463 13.5807 2.42368 12.6464 2.51983C12.13 2.57277 11.6152 2.40568 11.2289 2.05922C10.5294 1.43215 9.47036 1.43236 8.77087 2.05943C8.72131 2.10348 8.66985 2.14478 8.61649 2.18332C10.7315 3.38048 12.1601 5.64944 12.1601 8.25343C12.1599 10.8572 10.7317 13.1262 8.61627 14.3233C8.66985 14.3617 8.72131 14.403 8.77087 14.4474C9.47015 15.0743 10.5294 15.0743 11.2289 14.4472C11.6152 14.1008 12.13 13.9337 12.6464 13.9866C13.5807 14.0828 14.4375 13.4601 14.6349 12.5419Z" fill="#FD8F31"/>
<path d="M13.9212 8.25382C13.9212 6.0882 12.1654 4.33238 9.99979 4.33238C7.83376 4.33238 6.07814 6.08799 6.07814 8.25403C6.07814 10.4196 7.83397 12.1755 9.99958 12.1755C12.1656 12.1755 13.9212 10.4199 13.9212 8.25382Z" fill="#FFE285"/>
</svg>
