<svg width="24" height="25" viewBox="0 0 24 25" fill="none" xmlns="http://www.w3.org/2000/svg">
<g clip-path="url(#clip0_1902_8133)">
<path d="M12.003 0.396729H11.997C5.3805 0.396729 0 5.77873 0 12.3967C0 15.0217 0.846 17.4547 2.2845 19.4302L0.789 23.8882L5.4015 22.4137C7.299 23.6707 9.5625 24.3967 12.003 24.3967C18.6195 24.3967 24 19.0132 24 12.3967C24 5.78023 18.6195 0.396729 12.003 0.396729Z" fill="#4CAF50"/>
<path d="M18.9858 17.3423C18.6963 18.1598 17.5473 18.8378 16.6308 19.0358C16.0038 19.1693 15.1848 19.2758 12.4278 18.1328C8.90132 16.6718 6.63032 13.0883 6.45332 12.8558C6.28382 12.6233 5.02832 10.9583 5.02832 9.23625C5.02832 7.51425 5.90282 6.67575 6.25532 6.31575C6.54482 6.02025 7.02332 5.88525 7.48232 5.88525C7.63082 5.88525 7.76432 5.89275 7.88432 5.89875C8.23682 5.91375 8.41382 5.93475 8.64632 6.49125C8.93582 7.18875 9.64082 8.91075 9.72482 9.08775C9.81032 9.26475 9.89582 9.50475 9.77582 9.73725C9.66332 9.97725 9.56432 10.0838 9.38732 10.2878C9.21032 10.4918 9.04232 10.6478 8.86532 10.8668C8.70332 11.0573 8.52032 11.2613 8.72432 11.6138C8.92832 11.9588 9.63332 13.1093 10.6713 14.0333C12.0108 15.2258 13.0968 15.6068 13.4853 15.7688C13.7748 15.8888 14.1198 15.8603 14.3313 15.6353C14.5998 15.3458 14.9313 14.8658 15.2688 14.3933C15.5088 14.0543 15.8118 14.0123 16.1298 14.1323C16.4538 14.2448 18.1683 15.0923 18.5208 15.2678C18.8733 15.4448 19.1058 15.5288 19.1913 15.6773C19.2753 15.8258 19.2753 16.5233 18.9858 17.3423Z" fill="#FAFAFA"/>
</g>
<defs>
<clipPath id="clip0_1902_8133">
<rect width="24" height="24" fill="white" transform="translate(0 0.396729)"/>
</clipPath>
</defs>
</svg>
